<svg id="Layer_1" data-name="Layer 1" xmlns="http://www.w3.org/2000/svg" xmlns:xlink="http://www.w3.org/1999/xlink" viewBox="0 0 2800 2800"><defs><style>.cls-1{fill:#fff;}.cls-2{fill:#ffde9c;}.cls-3{fill:#e0e0e0;}.cls-4{fill:#00768a;}.cls-5{fill:#2813ff;}.cls-6{fill:#cf7d28;}.cls-7{fill:#ff9a31;}.cls-8{fill:#0096b0;}.cls-9{fill:#ffcd69;}.cls-10{fill:#0095e1;}.cls-11{fill:#969696;}.cls-12{fill:#c9c9c9;}.cls-13{fill:#636363;}.cls-14{fill:#160a8c;}.cls-15{fill:#7c00f0;}.cls-16{fill:url(#linear-gradient);}.cls-17{fill:#ffe889;}.cls-18{fill:#ff5c18;}.cls-19{fill:#93d700;}.cls-20{fill:#ff3ace;}.cls-21{fill:#d1d1d1;}.cls-22{fill:#ffc53f;}.cls-23{fill:#fff5de;}.cls-24{fill:#634c19;}.cls-25{fill:#262322;}.cls-26{fill:#5defff;}.cls-27{fill:#b0b0b0;}.cls-28{opacity:0.1;}</style><linearGradient id="linear-gradient" x1="945.08" y1="827.36" x2="2800" y2="827.36" gradientUnits="userSpaceOnUse"><stop offset="0" stop-color="#7c00f0"/><stop offset="1" stop-color="#7cc7f0"/></linearGradient></defs><rect class="cls-1" y="-7.59" width="2800" height="2800"/><path class="cls-2" d="M1570.28,1864.79c-15.68-22.82-42.68-33.62-66.72-26.69s-43.93,31.23-49.17,60.08c12.42,9.21,30.92,12.41,45.52,11.56s28.89-5.21,43.06-9.53c7.8-2.39,15.84-4.91,22.22-10.78S1575.39,1872.22,1570.28,1864.79Z"/><path class="cls-3" d="M704,2668.84a32.69,32.69,0,0,1-11.78-2.21c-15.12-5.85-29.13-24.17-24.16-50.58l125.11-664.54,10.69,2.87L678.76,2618.92c-3.48,18.51,6,31,16.85,35.27s24.7.67,31-16.76l247.52-687.07,10.07,5.17L736.65,2642.6C729.88,2661.38,716.61,2668.84,704,2668.84Z"/><path class="cls-3" d="M2129,2668.84c-12.61,0-25.88-7.46-32.65-26.24l-247.52-687.07,10.07-5.17,247.52,687.07c6.28,17.43,20.08,21,31,16.76s20.33-16.76,16.84-35.27l-125.1-664.54,10.69-2.87,125.1,664.54c5,26.41-9,44.73-24.15,50.58A32.73,32.73,0,0,1,2129,2668.84Z"/><path class="cls-4" d="M1976.61,1909.26c-101.66,19.61-207.06,40.94-291.92,110.58-73.6,60.39-125,152-167,246.07s-115.21,209.5-127.59,323.82c19.13,11.44,39.31,3.3,58.44,0,88.51-143,188.39-271.69,302.41-386.1-4.1-40.37,14.91-62.4,41.82-87.35s59.6-38.86,90.88-55,62.77-35.9,83.07-68.55S1997.62,1941.27,1976.61,1909.26Z"/><path class="cls-5" d="M2197.63,1575.33c6.25-8.66,13.58-17.42,23-19.27,13.74-2.7,26.73,10.93,31.24,26.65s2.7,32.9,1,49.39a3106.6,3106.6,0,0,0-15.6,419c1.4,46.25,2.68,97-21.36,133.35-16.16,24.41-41.66,38-67.37,43.06s-52,2.55-78,0l-143.79-14.09c-19.66-1.93-42.35-6-52.36-26.29-8.85-17.93-3.31-41.85,8-57.68s27.24-25.66,42.28-36.17c77-53.8,138.75-136.65,177.24-232.44C2141.1,1763.36,2136.36,1660.14,2197.63,1575.33Z"/><path class="cls-6" d="M1977.25,1492.48c-56.33,65.51-165.66,226.61-182.44,318.32-77,11.86-156.47,26.19-232.26,46-4.25,9.3-5.94,22.54-4.24,32.94l315.23,0c33.38-44,61.33-95.78,74.46-153S2014.58,1531.66,1977.25,1492.48Z"/><path class="cls-7" d="M1913.21,2068.25c-18.79-99.42-37.71-200.29-33.77-302.1s33.62-206.45,97.81-273.67c58-7.14,121.85,39.79,153.66,98.09s43.69,128.64,51.85,197.53c15.14,127.91,18.82,263.08-24.77,381.32C2064.81,2171.91,1983.1,2141.85,1913.21,2068.25Z"/><path class="cls-8" d="M2160.24,2148.9c-90.74,41.46-190.2,55.42-286.52,40.22-14.29,134.09-37.75,269.83-66.36,400.61h-58.44c-14.52-116.14-30-239.08-44.56-355.22-7.64-61.15-13.43-130.75,20-178,23.11-32.72,59.71-46.27,94.57-56.31a987,987,0,0,1,221.66-37.32C2092.69,2012.42,2137.52,2074.09,2160.24,2148.9Z"/><path class="cls-7" d="M1897.33,1981s167.45,205.92,215.18,186.91,45.48,1.51,45.48,1.51l7.94-94.21-5.69-94.21-67.9-28L2071,1889.8l-109,61.71Z"/><path class="cls-2" d="M1763.59,1862.81c-14.76-17.46-38.09-23.73-57.69-15.49s-34.49,30.57-36.82,55.22c11.5,9.14,26.35,9.46,40.15,8.86s27.31-5.21,40.11-11.43c5.23-2.55,10.54-5.51,14.31-10.54S1767.6,1867.56,1763.59,1862.81Z"/><path class="cls-7" d="M2105.13,1568c-56.33,65.51-96.11,151-112.88,242.76-77,11.86-156.47,26.19-232.26,46-4.26,9.3-6,22.54-4.25,32.94l315.24,0c33.37-44,61.32-95.78,74.46-153S2142.47,1607.22,2105.13,1568Z"/><path class="cls-9" d="M1954.42,1455.8l12,91c22.87-.17,48.54-16.1,60.5-46.17-1.79-24-8.84-44.59-17.15-65C1990.62,1436.65,1971.76,1443.22,1954.42,1455.8Z"/><path class="cls-2" d="M1924.68,1515.38c-28.69-58.52-38.6-129.78-27.31-196.23,6.12-36,56.58-34.17,85.6-22s50.65,45.17,55.25,81.47-7.29,74.52-29.41,100S1955.38,1517.4,1924.68,1515.38Z"/><path class="cls-10" d="M2013.76,1372.65a165.33,165.33,0,0,1-4.52,73.85c-2.62,8.75-6,17.56-5.57,26.83s1.23,13.2,9,12.68c10.15-.68,20.45-1.4,30-5.38s18.58-11.72,22.57-22.88S2067.8,1434,2068,1422c.21-17.46,3.89-34.55,6.27-51.78s3.4-35.33-1.51-51.77-18.9-34.16-33.49-35.35c.43-22-8.21-44-22.64-57.63s-34.34-18.7-52.17-13.2c-17.27,5.33-32.63,19.82-50.46,20.1-19.82.3-36.3-16.76-52.88-29.73-25.2-19.7-55.29-31.5-85.37-29.4s-59.87,19-77.68,48-22.07,70.12-8,101.88,47.24,50.81,76.21,40.91c16.69-5.71,30.45-19.51,45.55-29.75s34.15-16.85,49.55-7.26c11.4,7.09,18.1,21.37,26.9,32.55s23.35,19.66,34.19,11.41c11.88-9,30.13-8.85,43.62-4.06s24.72,21,22.33,37.6c.08-7.39.09-16.38,2.22-23.32s6.71-13.27,12.77-14.79S2012.55,1365.4,2013.76,1372.65Z"/><polygon class="cls-11" points="1323.2 1890.27 1183.27 1890.27 1276.56 1681.43 1416.49 1681.43 1323.2 1890.27"/><path class="cls-12" d="M1615.42,1785.85H1102.37c-16.95,0-31.83-13.44-36.44-32.9L962,1314.17c-6.83-28.85,11.33-57.5,36.45-57.5h513.05c17,0,31.83,13.44,36.44,32.9l103.94,438.78C1658.7,1757.2,1640.54,1785.85,1615.42,1785.85Z"/><path class="cls-13" d="M626.22,2668.84a32.73,32.73,0,0,1-11.78-2.21c-15.12-5.85-29.12-24.17-24.15-50.58l125.1-664.54,10.69,2.87L601,2618.92c-3.49,18.51,5.95,31,16.84,35.27s24.7.67,31-16.76l247.52-687.07,10.07,5.17L658.87,2642.6C652.1,2661.38,638.82,2668.84,626.22,2668.84Z"/><path class="cls-13" d="M2051.19,2668.84c-12.6,0-25.88-7.46-32.64-26.24L1771,1955.53l10.07-5.17,247.52,687.07c6.28,17.43,20.08,21,31,16.76s20.33-16.76,16.84-35.27l-125.1-664.54,10.69-2.87,125.11,664.54c5,26.41-9,44.73-24.16,50.58A32.69,32.69,0,0,1,2051.19,2668.84Z"/><polygon class="cls-14" points="2271.56 2664.52 2143.37 2229.67 2153.71 2225.33 2281.9 2660.18 2271.56 2664.52"/><polygon class="cls-14" points="2185.34 2664.05 2087.06 2229.2 2097.64 2225.8 2195.92 2660.65 2185.34 2664.05"/><polygon class="cls-14" points="1800.55 2664.46 1790.18 2660.24 1918.37 2211.3 1928.74 2215.52 1800.55 2664.46"/><polygon class="cls-14" points="1886.77 2664 1876.16 2660.7 1974.45 2211.76 1985.05 2215.06 1886.77 2664"/><path class="cls-10" d="M1954.87,1356.22c21,22.22,32.39,56.79,29.67,90.14,2.93-1.52,6.63-4.35,9.56-5.87-2.85-13.36-4-26.59-4.66-40.36s1.19-28,7.1-39.88a27.84,27.84,0,0,0-20.34-12.45A25.35,25.35,0,0,0,1954.87,1356.22Z"/><polygon class="cls-7" points="1748.92 2589.73 1624.1 2662.35 1830.37 2662.35 1807.36 2589.73 1748.92 2589.73"/><polygon class="cls-7" points="1390.08 2589.73 1265.26 2662.35 1471.52 2662.35 1448.52 2589.73 1390.08 2589.73"/><rect class="cls-12" x="633.1" y="1885.71" width="1459.24" height="67.24"/><polygon class="cls-15" points="1598.6 1647.72 1515.26 1295.91 991.82 1295.91 1075.16 1647.72 1598.6 1647.72"/><path class="cls-16" d="M1460.76,7C1395,36.46,1322.49,46.81,1263.12,91.51c-94.27,71-133.87,229.37-87.6,350.4,22,57.5,60,105.15,78.88,164.2,21.71,67.9,14.95,147.85-17.71,209.2-33.29,62.55-88.8,102.26-141.34,141.74s-106.46,84.17-132.92,151.2-27,156.7,29.39,187.66l83.34,351.81H1598.6l-83.34-351.81h-1.9c50.89-40.5,121.63-60.64,162.35-117.4,54.11-75.41,40.1-191.94,79.38-279.46,33-73.47,100.26-117.33,168.48-135,104.12-27,212-2.29,317.86,12s219.85,16.08,310.88-50c71.78-52.12,121.64-144.93,131.91-244.47,8.91-86.39-9.28-180.7,26.47-256.55,20.92-44.39,57-74.49,89.31-108.4V7Z"/><ellipse class="cls-11" cx="1362.72" cy="1716.84" rx="27.36" ry="32.66"/><polygon class="cls-3" points="2351.05 281.59 2401.82 257.33 2471.8 465.95 2421.03 490.21 2351.05 281.59"/><polygon class="cls-3" points="2401.82 257.33 2422.15 317.93 2247.37 401.45 2227.05 340.85 2401.82 257.33"/><polygon class="cls-1" points="2347.12 575.08 2275.56 609.28 2176.94 315.24 2248.5 281.04 2347.12 575.08"/><polygon class="cls-1" points="2275.56 609.28 2246.91 523.86 2493.25 406.14 2521.9 491.56 2275.56 609.28"/><path class="cls-17" d="M1316.41,374.15c1.21,34.5,10.4,69.57,30.1,94.87s50.87,39.06,78.66,29.48c38.54-13.28,58.77-63.2,91.39-91.07,37.13-31.71,90.56-34.93,119.09-77.49,21.45-32,21.54-80.22,4-115.48a119,119,0,0,0-84.07-64C1443.38,129.47,1311.31,229.08,1316.41,374.15Z"/><ellipse class="cls-18" cx="1367.72" cy="354.91" rx="25.44" ry="30.36"/><ellipse class="cls-19" cx="1424.11" cy="279.85" rx="30.95" ry="36.94"/><ellipse class="cls-20" cx="1540.91" cy="229.66" rx="42.04" ry="50.18"/><ellipse class="cls-21" cx="2281.9" cy="1197.27" rx="32.99" ry="39.38"/><ellipse class="cls-21" cx="931.69" cy="504.33" rx="57.49" ry="68.62"/><ellipse class="cls-21" cx="440.88" cy="788.11" rx="27.83" ry="33.22"/><ellipse class="cls-21" cx="186.88" cy="1097.92" rx="16.46" ry="19.64"/><ellipse class="cls-21" cx="302.97" cy="2276.3" rx="28.91" ry="34.51"/><ellipse class="cls-21" cx="991.82" cy="2252.45" rx="22.62" ry="27"/><ellipse class="cls-21" cx="2545.35" cy="1631.41" rx="24.19" ry="28.87"/><ellipse class="cls-21" cx="545.04" cy="1347.69" rx="24.43" ry="29.17"/><path class="cls-21" d="M1952.52,913.85h0c5.4,20.14,18.62,35.92,35.49,42.36h0c-16.87,6.44-30.09,22.22-35.49,42.36h0c-5.39-20.14-18.61-35.92-35.48-42.36h0c16.87-6.44,30.09-22.22,35.48-42.36Z"/><path class="cls-21" d="M2569.53,1059.11h0c5.4,20.14,18.62,35.92,35.49,42.36h0c-16.87,6.44-30.09,22.22-35.49,42.36h0c-5.39-20.14-18.61-35.92-35.48-42.36h0c16.87-6.44,30.09-22.22,35.48-42.36Z"/><path class="cls-21" d="M228.25,202.68h0c5.4,20.13,18.62,35.91,35.49,42.36h0c-16.87,6.44-30.09,22.22-35.49,42.36h0c-5.4-20.14-18.62-35.92-35.49-42.36h0c16.87-6.45,30.09-22.23,35.49-42.36Z"/><path class="cls-21" d="M2618.63,2508.73h0c5.39,20.14,18.61,35.92,35.49,42.36h0c-16.88,6.44-30.1,22.22-35.49,42.36h0c-5.4-20.14-18.62-35.92-35.49-42.36h0c16.87-6.44,30.09-22.22,35.49-42.36Z"/><path class="cls-21" d="M303,1743.49h0c5.4,20.14,18.62,35.92,35.49,42.36h0c-16.87,6.44-30.09,22.22-35.49,42.36h0c-5.39-20.14-18.61-35.92-35.48-42.36h0c16.87-6.44,30.09-22.22,35.48-42.36Z"/><path class="cls-21" d="M545,374.86h0c5.4,20.14,18.62,35.92,35.49,42.36h0c-16.87,6.44-30.09,22.22-35.49,42.36h0c-5.4-20.14-18.62-35.92-35.49-42.36h0c16.87-6.44,30.09-22.22,35.49-42.36Z"/><path class="cls-21" d="M874.2,785h0c5.4,20.14,18.62,35.92,35.49,42.36h0c-16.87,6.44-30.09,22.22-35.49,42.36h0c-5.39-20.14-18.61-35.92-35.49-42.36h0c16.88-6.44,30.1-22.22,35.49-42.36Z"/><path class="cls-22" d="M1342.84,1116.36l-59.63,15.11,31.24-62.48,199.16-170c8.35-7.13,20-4.83,25.93,5.14l6.76,11.27c6,10,4,23.83-4.3,31Z"/><polygon class="cls-23" points="1341.82 1116.62 1313.92 1070.06 1283.21 1131.47 1341.82 1116.62"/><path class="cls-24" d="M1283.21,1131.47l19.35-4.9a29.14,29.14,0,0,0-3.43-8.69,24.78,24.78,0,0,0-5.78-6.69Z"/><path class="cls-25" d="M1877,578.58c9.57,4.06,20.47-.76,28.09-8.76s12.72-18.79,18.09-29.08,11.43-20.59,20.17-26.75a57.49,57.49,0,0,0-48.51-7.18c-16,5-30.3,17.53-39,34.32C1856.36,554.5,1866.4,574.09,1877,578.58Z"/><path class="cls-26" d="M1859,536.16l17.6,42.35L1625.13,720.23c-7.08,4-15.54.48-19-7.89h0c-3.48-8.38-.71-18.53,6.24-22.85Z"/><polygon class="cls-27" points="1876.59 578.51 1858.98 536.16 1779.15 585.79 1795.19 624.38 1876.59 578.51"/><path class="cls-28" d="M1612.35,689.49c-6.95,4.32-9.72,14.47-6.24,22.85h0a15.53,15.53,0,0,0,8,8.48,16.75,16.75,0,0,1,7.09-10.16l246.64-153.33-8.8-21.17Z"/><path class="cls-1" d="M1118.42,1190.54l7.07,8.44c-19,22.7-30.49,52.82-32.3,84.82-1.8,31.69,5.94,63.07,21.79,88.36l-8,7.15c-17.28-27.58-25.72-61.78-23.76-96.32C1085.19,1248.12,1097.69,1215.29,1118.42,1190.54Z"/><path class="cls-1" d="M1137.62,1399.19c21.19,18.92,47.48,28.16,74,26,26.81-2.16,52-15.86,71.06-38.56l7.07,8.44c-20.73,24.74-48.24,39.67-77.45,42-28.93,2.34-57.59-7.74-80.7-28.36Z"/><path class="cls-1" d="M1282.71,1358.12c8.54-10.19,22.43-10.19,31,0s8.53,26.77,0,37-22.43,10.19-31,0S1274.17,1368.31,1282.71,1358.12Zm23.9,28.52a16.25,16.25,0,0,0,0-20.08c-4.64-5.54-12.19-5.54-16.83,0a16.22,16.22,0,0,0,0,20.08C1294.42,1392.18,1302,1392.18,1306.61,1386.64Z"/><path class="cls-1" d="M1118.42,1162c8.54-10.19,22.43-10.19,31,0s8.54,26.77,0,37-22.43,10.19-31,0S1109.88,1172.21,1118.42,1162Zm23.9,28.52a16.22,16.22,0,0,0,0-20.08c-4.64-5.54-12.19-5.54-16.83,0a16.22,16.22,0,0,0,0,20.08C1130.13,1196.08,1137.68,1196.08,1142.32,1190.54Z"/><path class="cls-1" d="M1106.47,1372.38c8.54-10.19,22.43-10.19,31,0s8.54,26.77,0,37-22.43,10.19-31,0S1097.94,1382.57,1106.47,1372.38Zm23.9,28.52a16.22,16.22,0,0,0,0-20.08c-4.64-5.54-12.19-5.54-16.83,0a16.24,16.24,0,0,0,0,20.08C1118.18,1406.44,1125.73,1406.44,1130.37,1400.9Z"/><path class="cls-1" d="M2050.25,194l.09-.21c1.24-3,2.9-6.63,5.09-11.22,1.77-3.69,4-8.14,6.84-13.62a9,9,0,0,0-.7-9.33,5.84,5.84,0,0,0-7.71-1.8c-4.69,2.72-8.86,5.19-12.93,7.61a83,83,0,0,1-10.24,5.16l-.26.12L1965,202.41a7.67,7.67,0,0,0-4,5.89,8.77,8.77,0,0,0,2.09,7.16l46.23,49.27a5.84,5.84,0,0,0,5.49,1.86,6.75,6.75,0,0,0,4.62-4Zm-70.63,18.15,55.59-26.92c1.82-.77,3.51-1.55,5.14-2.35-.61,1.37-1.16,2.64-1.66,3.84l-26.86,59.76Z"/><path class="cls-1" d="M2028.73,361.23c-.23-.56-.77-2-1.46-3.86-.89-2.38-2.14-5.72-3.77-10L2104.06,156a8.92,8.92,0,0,0-1.49-9.32l-29.13-31a5.75,5.75,0,0,0-6.69-1.47l-182.89,83.7c-3.28-1.44-6-2.63-8.18-3.54-2.82-1.22-5-2.18-5.76-2.54l-.51-.24c-6.61-2.65-12.07-1.63-16.24,3L1842.36,206a8.87,8.87,0,0,0,0,11.67l51.51,54.89a5.76,5.76,0,0,0,8.59.12l11.09-11.28.26-.27c3-3.45,6-9.38,3.13-18.2l21.61-10.59,53.91,57.46-9.77,21.93-.46-.24c-.17-.08-.33-.16-.51-.23-6.6-2.65-12.07-1.64-16.24,3l-10.81,11.42a8.86,8.86,0,0,0,0,11.66l51.51,54.9a5.77,5.77,0,0,0,8.59.12l11.09-11.28.26-.28C2030.8,375.44,2031.76,368.32,2028.73,361.23Zm-11.55,8.11-6.59,6.69-41.76-44.51,5.37-5.69a1.29,1.29,0,0,0,.16-.17c.48-.54,1.94-.12,2.92.25l.09,0a49.22,49.22,0,0,0,6.25,2.81c2.86,1.07,6-.32,7.52-3.37l1.65-3.22.2-.41,13.4-30.09a8.92,8.92,0,0,0-1.42-9.49l-60.79-64.79a5.72,5.72,0,0,0-6.83-1.39l-29.94,14.68-1.72.82c-3.36,1.59-5,6.13-3.67,10.13a58.79,58.79,0,0,0,2.37,6c.08.2.16.36.22.5h0a7.89,7.89,0,0,1,.38,1.36l-.1.13-6.59,6.7-41.77-44.52,5.38-5.68.16-.18c.49-.55,2-.1,3,.27,1.12.56,3,1.37,6.21,2.75,2.73,1.17,6.13,2.63,10.39,4.51a5.54,5.54,0,0,0,4.61,0l181.46-83,22.42,23.89-79.72,189.42a9.18,9.18,0,0,0-.09,6.78c2.25,5.82,3.91,10.26,5,13.2.85,2.29,1.37,3.67,1.71,4.49l0,.09a6.1,6.1,0,0,1,.28.8Z"/><ellipse class="cls-1" cx="1549.77" cy="1121.33" rx="16.5" ry="19.69"/><ellipse class="cls-1" cx="2281.9" cy="71.28" rx="16.5" ry="19.69"/><ellipse class="cls-1" cx="1669.08" cy="507.71" rx="16.5" ry="19.69"/><ellipse class="cls-1" cx="1183.27" cy="1059.11" rx="16.5" ry="19.69"/><path class="cls-1" d="M1416.49,678.46h0c5.4,20.14,18.62,35.92,35.49,42.36h0c-16.87,6.44-30.09,22.22-35.49,42.36h0c-5.39-20.14-18.61-35.92-35.49-42.36h0c16.88-6.44,30.1-22.22,35.49-42.36Z"/><path class="cls-1" d="M2104.75,582h0c5.4,20.14,18.62,35.92,35.49,42.36h0c-16.87,6.44-30.09,22.22-35.49,42.36h0c-5.39-20.14-18.62-35.92-35.49-42.36h0c16.87-6.44,30.1-22.22,35.49-42.36Z"/><path class="cls-1" d="M2521.16,88.07h0c5.4,20.14,18.62,35.92,35.49,42.36h0c-16.87,6.44-30.09,22.22-35.49,42.36h0c-5.4-20.14-18.62-35.92-35.49-42.36h0c16.87-6.44,30.09-22.22,35.49-42.36Z"/><path class="cls-1" d="M1766.54,71.28h0c5.39,20.14,18.61,35.92,35.49,42.36h0c-16.88,6.44-30.1,22.22-35.49,42.36h0c-5.4-20.14-18.62-35.92-35.49-42.36h0c16.87-6.44,30.09-22.22,35.49-42.36Z"/></svg>