<svg id="Layer_1" data-name="Layer 1" xmlns="http://www.w3.org/2000/svg" viewBox="0 0 2000 2000"><defs><style>.cls-1{fill:#fff;}.cls-2{fill:#bcbad6;}.cls-3{fill:#f8b7c8;}.cls-4{fill:#4a367f;}.cls-5{fill:#967dff;}.cls-6{fill:#190d44;}.cls-7{fill:#ce8da4;}.cls-8{fill:#e5a1b6;}.cls-9{fill:#76d6c2;}.cls-10{fill:#f17026;}.cls-11{fill:#d2ddff;}.cls-12{fill:#565656;opacity:0.2;}.cls-13{fill:#c14317;}.cls-14{fill:#341d60;}.cls-15{fill:#26154f;}.cls-16{fill:#664690;}.cls-17{fill:#452f70;}.cls-18{fill:#b690fd;}.cls-19{fill:#9d7dea;}.cls-20{fill:#dee3fe;}.cls-21{fill:#f0f3ff;}.cls-22{fill:#c0a6ff;}.cls-23{fill:#9d7bef;}.cls-24{fill:#220e49;}.cls-25{fill:#b1b9dd;}.cls-26{fill:#76cdff;}.cls-27{fill:#ed5817;}.cls-28{fill:#c1cbf4;}</style></defs><rect class="cls-1" width="2000" height="2000"/><ellipse class="cls-2" cx="1000" cy="1591.94" rx="749" ry="81.66"/><polygon class="cls-3" points="876.25 989.36 879.06 1026.71 930.83 1034.61 922.83 992.21 876.25 989.36"/><polygon class="cls-4" points="883.11 637.07 935 997.58 873.74 1004.08 801.36 637.07 883.11 637.07"/><path class="cls-4" d="M962.63,1040.33H873.74V1024.8c0-5.28-.85-13.27,5-13.27,0,0,45.52-1.93,49,.46,10.25,7,29.79,15.31,33.06,18.34a7.65,7.65,0,0,1,2.36,4.26A10.3,10.3,0,0,1,962.63,1040.33Z"/><path class="cls-5" d="M962.63,1040.33H873.74v-5.74h89.49A10.3,10.3,0,0,1,962.63,1040.33Z"/><rect class="cls-5" x="930.62" y="1012.87" width="1.61" height="8.95" rx="0.23" transform="translate(782.96 -353.97) rotate(36.3)"/><rect class="cls-5" x="935.54" y="1015.36" width="1.61" height="8.95" rx="0.23" transform="translate(785.32 -356.39) rotate(36.29)"/><rect class="cls-5" x="940.45" y="1017.85" width="1.61" height="8.95" rx="0.23" transform="translate(787.73 -358.81) rotate(36.29)"/><rect class="cls-5" x="945.36" y="1020.35" width="1.61" height="8.95" rx="0.23" transform="translate(790.18 -361.24) rotate(36.29)"/><polygon class="cls-3" points="760.07 989.36 757.26 1026.71 705.49 1034.61 713.5 992.21 760.07 989.36"/><polygon class="cls-4" points="753.21 637.07 701.32 997.58 762.58 1004.08 834.96 637.07 753.21 637.07"/><path class="cls-4" d="M673.69,1040.33h88.89V1024.8c0-5.28.85-13.27-5-13.27,0,0-45.52-1.93-49,.46-10.25,7-29.79,15.31-33.06,18.34a7.65,7.65,0,0,0-2.36,4.26A10.3,10.3,0,0,0,673.69,1040.33Z"/><path class="cls-5" d="M673.69,1040.33h88.89v-5.74H673.09A10.3,10.3,0,0,0,673.69,1040.33Z"/><rect class="cls-5" x="704.08" y="1012.87" width="1.61" height="8.95" rx="0.23" transform="translate(1875.21 1420.07) rotate(143.71)"/><rect class="cls-5" x="699.17" y="1015.36" width="1.61" height="8.95" rx="0.23" transform="translate(1867.82 1427.48) rotate(143.71)"/><rect class="cls-5" x="694.26" y="1017.85" width="1.61" height="8.95" rx="0.23" transform="translate(1860.41 1434.9) rotate(143.71)"/><rect class="cls-5" x="689.34" y="1020.35" width="1.61" height="8.95" rx="0.23" transform="translate(1853.02 1442.31) rotate(143.71)"/><path class="cls-6" d="M777.45,350.74s-11.72,36.56,7.15,61.93l4.55-55.49Z"/><circle class="cls-3" cx="782.66" cy="388.92" r="10.45" transform="translate(-35.8 695.43) rotate(-46.95)"/><path class="cls-7" d="M778,386.19s0-.07,0-.1.05,0,.07,0a9,9,0,0,1,4.82-2.85,1.34,1.34,0,0,1,1.54,1.06,1.32,1.32,0,0,1-1.07,1.53,6.68,6.68,0,0,0-2.53,1.22l3.45,3.36a1.3,1.3,0,0,1,0,1.86,1.27,1.27,0,0,1-.89.4,1.33,1.33,0,0,1-1-.37l-3.25-3.17a6.88,6.88,0,0,0-.67,2.52,1.31,1.31,0,0,1-1.27,1.23h-.14a1.31,1.31,0,0,1-1.22-1.41A8.84,8.84,0,0,1,778,386.19Z"/><rect class="cls-3" x="782.5" y="424.23" width="66.68" height="40.06" transform="translate(336.66 1240.08) rotate(-87.52)"/><path class="cls-8" d="M837.29,411.82l-.8,18.47c-7,8.88-24.38,10.29-40.31,4.83l1.09-25Z"/><path class="cls-3" d="M784.06,357.11s-4.71,43.47-.92,53.76,14.49,22.71,27.11,22.77c13.49.06,26.48-6.85,31.86-21.16S846,357.67,846,357.67Z"/><path class="cls-6" d="M841.48,360.85s-44.62,6-52.72,5.62c-13.71-.69-17.89-12-17.38-25.7.29-7.94,4.22-14.86,17.26-14.35,36.5,1.44,54.09-1.14,58.3,23.56a48.86,48.86,0,0,1,7.2,35.11c-5.58,32.68-13.14,30-13.14,30S846.66,383.34,841.48,360.85Z"/><circle class="cls-6" cx="824.41" cy="387.58" r="2.42"/><circle class="cls-6" cx="796.51" cy="386.31" r="2.42"/><path class="cls-6" d="M830.38,382.78a.86.86,0,0,1-.48-.14c-5.59-3.73-9.31-.59-9.35-.55a.88.88,0,0,1-1.24-.09.87.87,0,0,1,.09-1.24c.05,0,4.78-4.06,11.48.41a.88.88,0,0,1,.24,1.22A.85.85,0,0,1,830.38,382.78Z"/><path class="cls-6" d="M791.56,383a.89.89,0,0,1-.64-.27.87.87,0,0,1,0-1.24c5-4.73,11.32-1.46,11.39-1.42a.88.88,0,1,1-.83,1.55c-.21-.11-5.29-2.7-9.35,1.14A.82.82,0,0,1,791.56,383Z"/><path class="cls-1" d="M805.12,415.36l17.11-2s-1.51,7.71-8.14,8.45S805.12,415.36,805.12,415.36Z"/><path class="cls-3" d="M853.91,391.81a10.44,10.44,0,1,1-10-10.9A10.44,10.44,0,0,1,853.91,391.81Z"/><path class="cls-7" d="M848.18,388.66s0-.07,0-.09,0,0-.08,0a9,9,0,0,0-4.79-2.9,1.35,1.35,0,0,0-1.54,1.05,1.32,1.32,0,0,0,1,1.55,6.57,6.57,0,0,1,2.51,1.24l-3.47,3.32a1.32,1.32,0,0,0,0,1.87,1.33,1.33,0,0,0,1.86,0l3.28-3.13a6.89,6.89,0,0,1,.65,2.52,1.32,1.32,0,0,0,1.26,1.24H849a1.31,1.31,0,0,0,1.24-1.4A8.9,8.9,0,0,0,848.18,388.66Z"/><path class="cls-9" d="M788.8,449s13.34,25.82,53.07,2l17.06,217.3S807.55,676,765,660.34Z"/><path class="cls-10" d="M738.63,672.09S755,693,796.48,691c0,0,13.44-96.81,7.17-232.65a1.17,1.17,0,0,0,0-.35c-.45-3.21-8.14-12.15-8.05-14.92,0,0-2.61,1.13-6.22,2.79-6.74,3.14-16.93,8.17-20.21,11.18C764.11,461.71,749,537.73,738.63,672.09Z"/><path class="cls-10" d="M898.91,676.21s-11.83,12.95-61.61,14.92c0,0-11.44-95.65-14.82-186.58v0l-.1-3.45c-.53-14.54-.81-28.93-.81-42.73a.54.54,0,0,0,0-.22c.31-2.32,13.73-12.32,14.08-14.64,0,0,2.81.46,6.86,1.27,9.23,1.9,24.82,5.81,27.07,10.81,2.08,4.57,6.69,26.61,14.09,84.52,1.65,13.13,3.48,28.09,5.42,45.13C892.05,610.69,895.32,640.79,898.91,676.21Z"/><path class="cls-11" d="M821.56,458.34l11.24,10.29,9.71-23.88c-4-.84-6.86-1.28-6.86-1.28-.35,2.34-13.76,12.32-14.07,14.66C821.58,458.2,821.56,458.27,821.56,458.34Z"/><rect class="cls-4" x="759.59" y="390.04" width="75.72" height="44.29" rx="3.22" transform="translate(2.57 -4.93) rotate(0.35)"/><path class="cls-4" d="M783.4,381.73h30.34A4.27,4.27,0,0,1,818,386v10.76a0,0,0,0,1,0,0H779.13a0,0,0,0,1,0,0V386A4.27,4.27,0,0,1,783.4,381.73Z" transform="translate(2.42 -4.93) rotate(0.35)"/><circle class="cls-11" cx="798.42" cy="412.19" r="18.7" transform="translate(136.24 1019.56) rotate(-69.83)"/><circle class="cls-5" cx="798.42" cy="412.19" r="14.89" transform="translate(52.04 912.49) rotate(-61.14)"/><path class="cls-3" d="M732.14,424.41s4.12-14.51,8.28-22.47,27.41-20,35-14.85-9.47,12.05-11.1,14.12c-12,15.26,8.32,32.61,4,31.93-13.17-2.06-20.51,4.15-20.51,4.15Z"/><path class="cls-10" d="M789,446.65s-1.13,1.23-39.89,17.26c-18.36,7.59-29,14.52-29,14.52L756.82,437,731.3,406.12s-78,77.63-70,95.6c10.29,22.95,72.1,17,101.45,13.85a51.18,51.18,0,0,0,37.35-22.78C803.61,473,808.93,457,789,446.65Z"/><path class="cls-11" d="M789.34,445.88l3.71,21.31L803.61,458c-.45-3.21-8.14-12.15-8.05-14.92C795.56,443.09,793,444.22,789.34,445.88Z"/><path class="cls-12" d="M889.09,585.2a36.46,36.46,0,0,1-23.55-2.88c-28.31-13.87-42.64-76-43.06-77.77v0l-.1-3.45,61.29,39C885.32,553.2,887.15,568.16,889.09,585.2Z"/><path class="cls-3" d="M819.06,463.91s1.42-4.25-4.62-7-9.82,2.29-22.19-9.77-14.2-23.84,2.13-18.54,28.44,8.81,29.42,2.21,6.28-2.36,7.61,3.69,11.81,23.95,11.81,23.95Z"/><path class="cls-10" d="M854.12,461.16l-11-10.59-35.5,8.5s38.13,123.4,66.27,121c20.17-1.75,28.42-1.78,27.29-43.28-.42-15.32-8.65-45.47-15.2-59.32C876.24,456.76,862.87,442.77,854.12,461.16Z"/><path class="cls-12" d="M843.14,450.57l40,68.1a73.37,73.37,0,0,0-4.4-14.39C875.52,496.65,843.14,450.57,843.14,450.57Z"/><polygon class="cls-12" points="755.82 516.3 762.79 515.57 748.99 566.02 755.82 516.3"/><path class="cls-13" d="M1595.63,589l-25.54,42.08-63.55,17,51.24,7.11s-15.85,76.73-26.77,90.32l-54.81,31.75,48-4.12s-38.08,103.76-102.72,119.28c0,0-70.87-16.93-102.08-85.59l45.48,7-59.69-60.89s-23.35-93.26,109.54-162.58l15,41.28,8.83-49.08S1536.32,550.36,1595.63,589Z"/><path class="cls-6" d="M1421.73,895.51a3.15,3.15,0,0,1-3.4-2.86c-22.91-254.84,117.4-299,118.81-299.44a3.09,3.09,0,0,1,3.91,2.13,3.15,3.15,0,0,1-2.13,3.92c-1.36.4-136.72,43.47-114.32,292.82a3.15,3.15,0,0,1-2.85,3.43Z"/><path class="cls-10" d="M1690.46,756.54l-33.9,18.22L1607,761l31.71,25.12s-41.13,45.41-53.88,50.24l-49.52-.35,34,16.26s-66.82,54.8-116.53,39.61c0,0-41-39.53-34.83-98.18l27.86,22.78-16.06-64.71S1451,679.64,1568,685.66l-6.24,33.78,25.43-29.57S1665.82,707,1690.46,756.54Z"/><path class="cls-6" d="M1451.66,894.08a2.47,2.47,0,0,1-1.16-3.28c85.69-180.81,197.76-154.9,198.88-154.62a2.43,2.43,0,0,1,1.79,3,2.46,2.46,0,0,1-3,1.79c-1.09-.27-109.38-25-193.23,151.95a2.46,2.46,0,0,1-3.28,1.17Z"/><rect class="cls-14" x="667.48" y="740.33" width="121.48" height="42.49" rx="6.38"/><path class="cls-14" d="M1256.34,740.33h142.11a13.27,13.27,0,0,1,13.27,13.27v29.22a0,0,0,0,1,0,0H1243.07a0,0,0,0,1,0,0V753.61A13.27,13.27,0,0,1,1256.34,740.33Z"/><rect class="cls-15" x="667.48" y="763.67" width="121.48" height="42.49" rx="6.38"/><path class="cls-15" d="M1256.34,763.67h142.11a13.27,13.27,0,0,1,13.27,13.27v29.22a0,0,0,0,1,0,0H1243.07a0,0,0,0,1,0,0V776.95A13.27,13.27,0,0,1,1256.34,763.67Z"/><polygon class="cls-16" points="1056.94 1400.12 1054.89 1441.52 1049.54 1549.1 1046.51 1610.23 1019.73 1610.23 1015.97 1506.47 1013.62 1441.52 1012.11 1400.12 1056.94 1400.12"/><polygon class="cls-16" points="986.31 1400.12 956.87 1441.52 903.59 1516.51 841.61 1603.72 817.63 1603.72 885.09 1482.77 910.55 1437.11 932.34 1398.04 986.31 1400.12"/><polygon class="cls-16" points="1261.59 1603.72 1237.59 1603.72 1155.36 1487.99 1122.34 1441.52 1092.91 1400.12 1146.87 1398.04 1168.64 1437.09 1231.18 1549.21 1261.59 1603.72"/><path class="cls-15" d="M932.34,1398l54,2.08-29.44,41.4H927.06a33,33,0,0,1-16.51-4.41Z"/><polygon class="cls-15" points="1012.11 1400.12 1056.94 1400.12 1054.89 1441.52 1013.62 1441.52 1012.11 1400.12"/><path class="cls-15" d="M1168.64,1437.08a32.53,32.53,0,0,1-16.48,4.44h-29.82l-29.43-41.4,54-2.08Z"/><path class="cls-14" d="M894,1377.18h291.11a0,0,0,0,1,0,0v36.06a15.56,15.56,0,0,1-15.56,15.56h-260A15.56,15.56,0,0,1,894,1413.24v-36.06A0,0,0,0,1,894,1377.18Z"/><path class="cls-17" d="M885.09,1482.77c4.67,11.61,10.74,23.6,18.5,33.74l-62,87.21h-24Z"/><path class="cls-17" d="M1016,1506.47a244.54,244.54,0,0,0,33.57,42.63l-3,61.14h-26.77Z"/><path class="cls-17" d="M1261.58,1603.72h-24L1155.36,1488c19.46,20,46.92,45.11,75.82,61.22Z"/><rect class="cls-14" x="992.92" y="743.82" width="93.37" height="86.97"/><rect class="cls-15" x="992.92" y="760.79" width="93.37" height="86.97"/><path class="cls-18" d="M1157,647.28V718.7a25.12,25.12,0,0,1-25.11,25.13H947.3a25.11,25.11,0,0,1-25.1-25.13V647.28a25.11,25.11,0,0,1,25.1-25.13h184.61A25.12,25.12,0,0,1,1157,647.28Z"/><path class="cls-19" d="M1058.47,743.83H947.3a25.11,25.11,0,0,1-25.1-25.13V647.28a25.11,25.11,0,0,1,25.1-25.13h46.28C996,652.33,1007.25,718.13,1058.47,743.83Z"/><path class="cls-20" d="M1104,663.72v38.54A15.74,15.74,0,0,1,1088.24,718H991a15.47,15.47,0,0,1-9.14-3,15.66,15.66,0,0,1-6.58-12.79V663.72A15.73,15.73,0,0,1,991,648h97.27A15.74,15.74,0,0,1,1104,663.72Z"/><path class="cls-21" d="M1048.37,648l-47.44,70H991a15.47,15.47,0,0,1-9.14-3L1027.26,648Z"/><polygon class="cls-21" points="1077.15 647.98 1029.7 718 1016.12 718 1063.54 647.98 1077.15 647.98"/><path class="cls-22" d="M1157,647.28V718.7a25.12,25.12,0,0,1-25.11,25.13h-4.11c26.14-59.69,5-104.19-6.31-121.68h10.42A25.12,25.12,0,0,1,1157,647.28Z"/><path class="cls-16" d="M1505.71,858v462.45a82.46,82.46,0,0,1-82.5,82.51H656a82.46,82.46,0,0,1-82.5-82.51V858a82.47,82.47,0,0,1,82.5-82.5h767.21A82.5,82.5,0,0,1,1505.71,858Z"/><path class="cls-17" d="M929.1,1403H656a82.46,82.46,0,0,1-82.5-82.51V858a82.51,82.51,0,0,1,53.33-77.18,1145.36,1145.36,0,0,0,16.25,132.31c24.53,135.4,83.18,322.06,223.27,443.55A487.57,487.57,0,0,0,929.1,1403Z"/><path class="cls-17" d="M1505.71,858v462.45a82.46,82.46,0,0,1-82.5,82.51h-16c81.59-140.48,58.55-381.1,45.75-489.83-14.85-126.32-119.53-137.63-119.53-137.63h89.8A82.5,82.5,0,0,1,1505.71,858Z"/><path class="cls-18" d="M1505.71,913.16v407.32a82.23,82.23,0,0,1-8.36,36.23H581.86a82.37,82.37,0,0,1-8.36-36.23V913.16Z"/><polygon class="cls-18" points="1234.59 947.58 844.62 947.58 861.92 913.16 897.52 842.35 931.11 775.53 1148.1 775.53 1190.31 859.47 1217.3 913.16 1234.59 947.58"/><polygon class="cls-23" points="1395.37 1356.71 1225.54 1356.71 892.83 947.58 861.92 913.16 897.52 842.35 931.11 775.53 1041.05 913.16 1068.55 947.58 1395.37 1356.71"/><circle class="cls-14" cx="1039.61" cy="1106.51" r="239.05" transform="translate(-477.93 1059.2) rotate(-45)"/><path class="cls-20" d="M1229,1106.51a189.41,189.41,0,0,1-333.74,122.62A181.71,181.71,0,0,1,884,1214.49a188,188,0,0,1-28-61.3,189.37,189.37,0,0,1,183.61-236.07,187.08,187.08,0,0,1,30.89,2.53,176.74,176.74,0,0,1,18,3.88,187.83,187.83,0,0,1,58.35,26.91A189.14,189.14,0,0,1,1229,1106.51Z"/><path class="cls-21" d="M1070.5,919.65,884,1214.49a188,188,0,0,1-28-61.3l147.13-232.54a189,189,0,0,1,36.48-3.53A187.08,187.08,0,0,1,1070.5,919.65Z"/><path class="cls-21" d="M1124,936.92,922.52,1255.38a189.6,189.6,0,0,1-27.27-26.25l193.29-305.6A186.24,186.24,0,0,1,1124,936.92Z"/><path class="cls-16" d="M1137.09,1106.51a97.49,97.49,0,1,1-111.66-96.44l0,0h0a97.6,97.6,0,0,1,111.61,96.47Z"/><circle class="cls-24" cx="1039.61" cy="1106.51" r="41.01" transform="translate(-477.93 1059.2) rotate(-45)"/><path class="cls-17" d="M1009.6,1195.8c1.68,1.68,3.25,3.31,4.76,4.9a97.5,97.5,0,0,1,11.07-190.63C1023,1011.89,909.72,1095.75,1009.6,1195.8Z"/><path class="cls-25" d="M1229,1106.51a189.44,189.44,0,0,1-153.07,185.92c184.84-120.8,101.89-291.09,71-342A189.14,189.14,0,0,1,1229,1106.51Z"/><path class="cls-19" d="M866.35,1356.71H581.86a82.37,82.37,0,0,1-8.36-36.23V913.16h69.58C667.61,1048.56,726.26,1235.22,866.35,1356.71Z"/><circle class="cls-14" cx="1327.76" cy="842.97" r="31.15" transform="translate(-165.55 349.44) rotate(-14.12)"/><circle class="cls-14" cx="791.48" cy="1293.04" r="28.74" transform="translate(-655.71 1744.76) rotate(-75.86)"/><path class="cls-22" d="M1505.71,913.16v407.32a82.23,82.23,0,0,1-8.36,36.23h-68.17c55-142.3,35.24-346,23.76-443.55Z"/><rect class="cls-3" x="447.33" y="986.14" width="40.06" height="66.68" transform="translate(-91.1 46.91) rotate(-5.24)"/><path class="cls-8" d="M444.37,988.11l1.69,18.41c7.45,8.53,24.84,9.11,40.49,2.9l-2.29-25Z"/><path class="cls-3" d="M499,930.54s7,43.17,3.42,53.66-9.73,22.08-23.1,23.26c-14.24,1.27-33.11-4.47-39.48-18.47s-9-59.72-9-59.72Z"/><path class="cls-6" d="M439.65,946.26s55.47,2.17,61.84-2.83c17.67-13.89,1.6-54-11.62-43.3-33.41,27.06-62.95,12.4-65.3,27.67,0,0-10.33,7.41,1.09,43.66,7.38,23.46,20.47,26,20.47,26S446.46,970.81,439.65,946.26Z"/><path class="cls-3" d="M430.61,968.72a10.45,10.45,0,1,0,9.45-11.36A10.44,10.44,0,0,0,430.61,968.72Z"/><path class="cls-1" d="M490.81,985.58l-13.17,1.09s-.54,5.41,6.13,5.83S490.81,985.58,490.81,985.58Z"/><path class="cls-7" d="M436.19,965.3s0-.06,0-.09l.08,0a9,9,0,0,1,4.64-3.13,1.36,1.36,0,0,1,1.6,1,1.32,1.32,0,0,1-1,1.59,6.41,6.41,0,0,0-2.45,1.36l3.63,3.15a1.32,1.32,0,0,1-.74,2.31,1.3,1.3,0,0,1-1-.31l-3.42-3a6.64,6.64,0,0,0-.53,2.56,1.32,1.32,0,0,1-1.2,1.3h-.14a1.32,1.32,0,0,1-1.3-1.34A8.89,8.89,0,0,1,436.19,965.3Z"/><path class="cls-6" d="M457.63,917.71s18.95-8.09,26.61-16.64c0,0-19.1,14.11-43.41,17.94l.69,3.41Z"/><polygon class="cls-6" points="446.7 944.74 445.89 977 437.7 944.25 446.7 944.74"/><circle class="cls-6" cx="470.9" cy="963.89" r="2.42"/><path class="cls-6" d="M492.64,960.81a2.42,2.42,0,1,0,2.28-2.55A2.41,2.41,0,0,0,492.64,960.81Z"/><path class="cls-6" d="M464.23,960.11a.91.91,0,0,0,.46-.23c4.91-4.57,9.09-2.06,9.13-2a.88.88,0,0,0,.93-1.49c-.05,0-5.37-3.24-11.26,2.24a.88.88,0,0,0-.05,1.25A.91.91,0,0,0,464.23,960.11Z"/><path class="cls-6" d="M499.67,956.92a.87.87,0,0,0,.6-.33.89.89,0,0,0-.15-1.24c-5.42-4.23-11.41-.37-11.47-.33a.88.88,0,0,0,1,1.47c.21-.13,5-3.2,9.43.25A.9.9,0,0,0,499.67,956.92Z"/><polygon class="cls-3" points="438.62 1561.02 428.02 1596.94 375.75 1593.75 392.5 1553.99 438.62 1561.02"/><polygon class="cls-3" points="536.51 1561.47 539.31 1598.82 591.08 1606.71 583.08 1564.32 536.51 1561.47"/><polygon class="cls-4" points="543.37 1209.17 599.31 1425.25 595.25 1569.69 533.99 1576.18 531.25 1425.08 461.61 1209.17 543.37 1209.17"/><polygon class="cls-4" points="409.45 1219.18 419.03 1424.04 377.92 1570.54 443.3 1577.66 489.03 1432.74 491.13 1219.18 409.45 1219.18"/><path class="cls-3" d="M608.76,1011.62s4.86-14.29,6-23.2-15.19-26.24-24.31-26.29-3.2,13.88-1.35,15.75-8.46-1.53-9.13,2.84-1.65,6.28,6.55,17.51c3,13.06,2.15,15.13,2.15,15.13Z"/><path class="cls-5" d="M614.76,1116.9c-8.57,6.14-38.2-.21-65.7-8.21-6.79-2-13.2-4-18.69-6a51.11,51.11,0,0,1-25.49-20.31c-.46-.74-.92-1.48-1.34-2.22a48.37,48.37,0,0,1-4-8.52c-7.95-22.53-15.38-52.91,4.54-48.58,0,0,13,6.48,37.53,21,.6.35,1.23.74,1.87,1.09.42.25,1.34.81,2.67,1.58.5.29,1,.6,1.45.85l1.79,1.09c.5.32,1,.63,1.55.95,1.83,1.09,3.7,2.25,5.63,3.42,10.64,6.47,18.1,11.44,22.15,14.25,2.43,1.62,3.66,2.54,3.66,2.54l.25-64,36.22-7.36S630.76,1105.43,614.76,1116.9Z"/><path class="cls-10" d="M494.48,1022.65s-10.49,27.11-52.54,7.68l6.36,217.88s51.9,2.2,92.54-18Z"/><path class="cls-5" d="M563.74,1242.89s-18.41,19.79-59.85,22.29c0,0-2.43-54.74-12.92-148.42-.77-7.08-1.62-14.37-2.5-21.9q-3.37-28.62-7.74-61.29a1,1,0,0,1,0-.35c.1-3.24,6.79-13,6.41-15.71,0,0,2.71.85,6.47,2.12,7,2.39,17.71,6.3,21.3,8.94,3.31,2.46,11.37,31.68,22.67,83.47C545.05,1146.22,553.92,1190.26,563.74,1242.89Z"/><path class="cls-5" d="M481.57,1267.54c-65.55,7-76.25,0-76.25,0-.46-75.06,1-127.9,2.89-163.88.81-14.68,1.65-26.54,2.53-36,1.62-18.09,3.24-27.18,4.12-29.85,1.73-5.21,16.79-10.74,25.77-13.63,3.94-1.26,6.69-2,6.69-2,.6,2.29,15,10.77,15.56,13.06,0,.07,0,.14,0,.21,4.29,17.78,7.67,36,10.31,54.07,1.37,9.19,2.54,18.34,3.56,27.36A996.48,996.48,0,0,1,481.57,1267.54Z"/><path class="cls-11" d="M462.92,1035.47l-10.07,11.44-12.22-22.71c3.94-1.26,6.69-2,6.69-2,.6,2.29,15,10.77,15.56,13.06C462.88,1035.33,462.92,1035.4,462.92,1035.47Z"/><path class="cls-11" d="M493.61,1019.63l-1.4,21.58-11.48-8c.1-3.24,6.79-13,6.41-15.71C487.14,1017.51,489.85,1018.36,493.61,1019.63Z"/><path class="cls-4" d="M622.88,1612.43H534v-15.52c0-5.28-.84-13.27,5-13.27,0,0,45.52-1.94,49,.46,10.24,7,29.78,15.31,33,18.34a7.62,7.62,0,0,1,2.36,4.26A10.17,10.17,0,0,1,622.88,1612.43Z"/><path class="cls-5" d="M622.88,1612.43H534v-5.73h89.49A10.17,10.17,0,0,1,622.88,1612.43Z"/><rect class="cls-5" x="590.88" y="1584.97" width="1.61" height="8.95" rx="0.23" transform="translate(1055.62 -41.87) rotate(36.29)"/><rect class="cls-5" x="595.79" y="1587.47" width="1.61" height="8.95" rx="0.23" transform="translate(1058.05 -44.3) rotate(36.29)"/><rect class="cls-5" x="600.71" y="1589.96" width="1.61" height="8.95" rx="0.23" transform="translate(1060.36 -46.75) rotate(36.29)"/><rect class="cls-5" x="605.62" y="1592.45" width="1.61" height="8.95" rx="0.23" transform="translate(1062.91 -49.15) rotate(36.29)"/><path class="cls-4" d="M464.68,1612.43H375.79v-15.52c0-5.28-.85-13.27,5-13.27,0,0,45.52-1.94,49,.46,10.25,7,29.79,15.31,33.06,18.34a7.62,7.62,0,0,1,2.36,4.26A10.27,10.27,0,0,1,464.68,1612.43Z"/><path class="cls-5" d="M464.68,1612.43H375.79v-5.73h89.49A10.27,10.27,0,0,1,464.68,1612.43Z"/><rect class="cls-5" x="432.67" y="1584.97" width="1.61" height="8.95" rx="0.23" transform="translate(1024.93 51.77) rotate(36.29)"/><rect class="cls-5" x="437.59" y="1587.47" width="1.61" height="8.95" rx="0.23" transform="translate(1027.36 49.35) rotate(36.29)"/><rect class="cls-5" x="442.5" y="1589.96" width="1.61" height="8.95" rx="0.23" transform="translate(1029.76 46.91) rotate(36.29)"/><rect class="cls-5" x="447.42" y="1592.45" width="1.61" height="8.95" rx="0.23" transform="translate(1032.21 44.5) rotate(36.29)"/><rect class="cls-4" x="612.06" y="961.12" width="19.7" height="38.06" transform="translate(1243.82 1960.3) rotate(180)"/><rect class="cls-11" x="627.83" y="959.29" width="7.86" height="41.73" rx="0.89" transform="translate(1263.52 1960.3) rotate(180)"/><rect class="cls-4" x="583.38" y="952.36" width="36.44" height="55.58" rx="1.81" transform="translate(1203.21 1960.3) rotate(180)"/><path class="cls-4" d="M583.38,943.75h21.46a0,0,0,0,1,0,0V963a2.17,2.17,0,0,1-2.17,2.17H585.55a2.17,2.17,0,0,1-2.17-2.17V943.75A0,0,0,0,1,583.38,943.75Z" transform="translate(1188.23 1908.95) rotate(180)"/><path class="cls-12" d="M537.58,1112s-15.2,3.87-46.61,4.72l-14.18.14c-6,0-12.43-.18-19.33-.46-22.67-.92-38.51-6.55-49.25-12.78.81-14.68,1.65-26.54,2.53-36l62.49,21.86,15.24,5.32Z"/><path class="cls-12" d="M578.74,1067.29l-29.68,41.4c-6.79-2-13.2-4-18.69-6a51.11,51.11,0,0,1-25.49-20.31l-20.24-18.8,29.29,10.07,29.57-28.48c.42.25,1.34.81,2.67,1.58.5.29,1,.6,1.45.85l1.79,1.09c.5.32,1,.63,1.55.95,1.83,1.09,3.7,2.25,5.63,3.42C567.23,1059.51,574.69,1064.48,578.74,1067.29Z"/><path class="cls-3" d="M593.25,1036s7.34-8,12.27-12.42,17.8-14.79,12.8-31.33-14.61-23.6-17.44-6.66-9.22,21.91-12.13,15.9-6.71-.36-6.16,5.81-8.61,13.13-8.61,13.13Z"/><path class="cls-5" d="M425.13,1033.9s15.29,10.06,48.43,24.67c26.41,11.64,41.29,20.15,41.29,20.15l60.21-66.86,31.13,19.93s-52.92,68.83-61.34,77.78c-5.78,6.14-69.94,5-99-.17a51.19,51.19,0,0,1-35.71-25.27C398.42,1063.3,404.78,1033.07,425.13,1033.9Z"/><path class="cls-3" d="M1150.25,1100.19s-10.85-.23-17.46.26-23,2.63-31.48-12.42-6.93-26.87,7.25-17.2,22.2,8.5,19.88,2.23,4.38-5.08,8.46-.42,15.44,2.86,15.44,2.86Z"/><path class="cls-10" d="M1333.53,1029.71s-14.52,11.15-46.5,28.14c-25.49,13.54-37.57,16.26-37.57,16.26l-104-3.75-7.14,36.27s79.74,8.54,92,9.81c21.52,2.23,59.53-2.66,88.15-9.92a51.14,51.14,0,0,0,33.76-27.81C1362.31,1057.08,1353.76,1027.4,1333.53,1029.71Z"/><rect class="cls-3" x="1344.39" y="999.01" width="66.68" height="40.06" transform="translate(333.64 2377.89) rotate(-88.95)"/><path class="cls-8" d="M1398.37,986.08l-.34,18.49c-6.81,9-24.12,10.89-40.18,5.84l.46-25.06Z"/><path class="cls-3" d="M1339.71,932.65s-3.81,43.57.51,53.77,11.32,21.3,24.74,21.51c14.28.22,32.69-6.88,38-21.31s4.62-60.21,4.62-60.21Z"/><path class="cls-6" d="M1400,944s-55.17,6.23-61.89,1.7c-18.64-12.56-5.53-53.75,8.43-44,35.3,24.56,63.69,7.78,67.15,22.84,0,0,10.84,6.62,2.1,43.62-5.65,23.94-18.52,27.45-18.52,27.45S1395,969,1400,944Z"/><path class="cls-3" d="M1410.67,965.73a10.45,10.45,0,1,1-10.25-10.63A10.45,10.45,0,0,1,1410.67,965.73Z"/><path class="cls-1" d="M1351.86,986.94l13.22.14s.93,5.34-5.68,6.25S1351.86,986.94,1351.86,986.94Z"/><path class="cls-7" d="M1404.86,962.73s0-.06,0-.09,0,0-.08,0a9,9,0,0,0-4.86-2.78,1.35,1.35,0,0,0-1.52,1.09,1.32,1.32,0,0,0,1.09,1.52,6.36,6.36,0,0,1,2.55,1.17l-3.39,3.41a1.32,1.32,0,0,0,0,1.87,1.29,1.29,0,0,0,.91.38,1.31,1.31,0,0,0,1-.39l3.19-3.21a6.52,6.52,0,0,1,.71,2.51,1.34,1.34,0,0,0,1.29,1.21h.14A1.32,1.32,0,0,0,1407,968,9,9,0,0,0,1404.86,962.73Z"/><path class="cls-6" d="M1380,916.83s-19.49-6.68-27.75-14.65c0,0,20.07,12.68,44.6,14.72l-.43,3.46Z"/><polygon class="cls-6" points="1392.87 942.99 1396.04 975.11 1401.82 941.85 1392.87 942.99"/><path class="cls-6" d="M1372.55,964a2.42,2.42,0,1,1-2.3-2.53A2.41,2.41,0,0,1,1372.55,964Z"/><path class="cls-6" d="M1348.23,962.37a2.42,2.42,0,1,1-2.46-2.37A2.42,2.42,0,0,1,1348.23,962.37Z"/><path class="cls-6" d="M1376.51,959.6a.92.92,0,0,1-.47-.19c-5.24-4.2-9.22-1.4-9.26-1.37a.88.88,0,1,1-1-1.42s5.11-3.62,11.39,1.42a.88.88,0,0,1-.63,1.56Z"/><path class="cls-6" d="M1340.94,959a.85.85,0,0,1-.63-.29.87.87,0,0,1,.06-1.24c5.1-4.62,11.35-1.21,11.42-1.17a.88.88,0,0,1-.86,1.54c-.21-.12-5.23-2.82-9.38.93A.83.83,0,0,1,1340.94,959Z"/><polygon class="cls-3" points="1423.85 1561.02 1434.46 1596.94 1486.73 1593.75 1469.98 1553.99 1423.85 1561.02"/><polygon class="cls-3" points="1325.96 1561.47 1323.16 1598.82 1271.39 1606.71 1279.39 1564.32 1325.96 1561.47"/><polygon class="cls-4" points="1319.11 1209.17 1263.16 1425.25 1267.22 1569.69 1328.48 1576.18 1331.22 1425.08 1400.86 1209.17 1319.11 1209.17"/><polygon class="cls-4" points="1453.03 1219.18 1471.61 1424.04 1484.56 1570.54 1419.17 1577.66 1401.61 1432.74 1371.35 1219.18 1453.03 1219.18"/><path class="cls-26" d="M1350.91,1024.18s12.44,26.27,53,3.83l9.58,217.76s-51.61,6-93.61-11.17Z"/><path class="cls-10" d="M1297.92,1248.9s19.81,18.39,61.32,17.85c0,0-2.53-88,6.18-232.68a1.07,1.07,0,0,0,0-.35c-.34-3.22-7.72-12.43-7.54-15.19,0,0-2.64,1-6.3,2.58-6.85,2.9-17.2,7.57-20.59,10.47C1325.79,1036.05,1312.89,1115,1297.92,1248.9Z"/><path class="cls-10" d="M1457.73,1261.9s-10.17,7.82-76.08,5.57c0,0-5.31-40-6.58-94.53-.14-6.3-.21-12.78-.25-19.43-.1-37,1.91-78.89,8.52-118.85,0-.07,0-.14,0-.21.39-2.33,14.16-11.83,14.58-14.15,0,0,2.78.52,6.79,1.51,9.19,2.22,24.61,6.62,26.72,11.69,1.59,3.9,5.85,22,11.13,62.94.63,4.75,1.27,9.86,1.9,15.25C1448.65,1146.82,1453.3,1195.65,1457.73,1261.9Z"/><path class="cls-11" d="M1383.33,1034.66l10.88,10.68,10.52-23.54c-4-1-6.82-1.51-6.82-1.51-.43,2.32-14.17,11.84-14.56,14.16A1.49,1.49,0,0,0,1383.33,1034.66Z"/><path class="cls-11" d="M1351.56,1021.11l3,21.42,10.87-8.81c-.34-3.22-7.72-12.43-7.54-15.19C1357.86,1018.53,1355.22,1019.57,1351.56,1021.11Z"/><path class="cls-4" d="M1239.59,1612.43h88.89v-15.52c0-5.28.85-13.27-5-13.27,0,0-45.52-1.94-49,.46-10.25,7-29.79,15.31-33.06,18.34a7.62,7.62,0,0,0-2.36,4.26A10.27,10.27,0,0,0,1239.59,1612.43Z"/><path class="cls-5" d="M1239.59,1612.43h88.89v-5.73H1239A10.27,10.27,0,0,0,1239.59,1612.43Z"/><rect class="cls-5" x="1269.98" y="1584.97" width="1.61" height="8.95" rx="0.23" transform="translate(3235.83 2118.46) rotate(143.71)"/><rect class="cls-5" x="1265.07" y="1587.47" width="1.61" height="8.95" rx="0.23" transform="translate(3228.47 2125.73) rotate(143.71)"/><rect class="cls-5" x="1260.15" y="1589.96" width="1.61" height="8.95" rx="0.23" transform="translate(3221.03 2133.28) rotate(143.71)"/><rect class="cls-5" x="1255.24" y="1592.45" width="1.61" height="8.95" rx="0.23" transform="translate(3213.67 2140.56) rotate(143.71)"/><path class="cls-4" d="M1397.79,1612.43h88.89v-15.52c0-5.28.85-13.27-5-13.27,0,0-45.52-1.94-49,.46-10.24,7-29.78,15.31-33.06,18.34a7.74,7.74,0,0,0-2.36,4.26A10.27,10.27,0,0,0,1397.79,1612.43Z"/><path class="cls-5" d="M1397.79,1612.43h88.89v-5.73h-89.49A10.27,10.27,0,0,0,1397.79,1612.43Z"/><rect class="cls-5" x="1428.19" y="1584.97" width="1.61" height="8.95" rx="0.23" transform="translate(3521.55 2024.82) rotate(143.71)"/><rect class="cls-5" x="1423.27" y="1587.47" width="1.61" height="8.95" rx="0.23" transform="translate(3514.18 2032.09) rotate(143.71)"/><rect class="cls-5" x="1418.36" y="1589.96" width="1.61" height="8.95" rx="0.23" transform="translate(3506.78 2039.54) rotate(143.71)"/><rect class="cls-5" x="1413.44" y="1592.45" width="1.61" height="8.95" rx="0.23" transform="translate(3499.39 2046.91) rotate(143.71)"/><path class="cls-12" d="M1444.46,1111.69c-11.86,12.74-35.28,36.82-55.94,52-4,3-8.56,6.06-13.45,9.26-30,19.54-72,41.51-73.47,42.28l73.22-61.71,67.74-57.07C1443.19,1101.19,1443.83,1106.3,1444.46,1111.69Z"/><path class="cls-12" d="M1307.91,1165l56-46.48s26.24-37.73,34-61.62l-20.15,70.71Z"/><path class="cls-3" d="M1306.88,1202.73s-8.6,6.61-13.44,11.14-16.29,16.45-32.33,10-22.23-16.6-5.11-18,22.63-7.27,16.89-10.7.24-6.71,6.33-5.63,13.83-7.44,13.83-7.44Z"/><path class="cls-10" d="M1405.64,1033s-4.33,17.79-18.63,51.06c-11.4,26.52-19.11,36.2-19.11,36.2l-83.47,62.24,17.14,32.74s67.53-43.28,77.85-49.94c18.18-11.73,44.75-39.35,62.51-62.93a51.16,51.16,0,0,0,8.91-42.82C1445.22,1036.32,1420,1018.54,1405.64,1033Z"/><polygon class="cls-12" points="1315.79 1107.17 1321.48 1064.83 1308.72 1108.81 1315.79 1107.17"/><path class="cls-27" d="M643,1610.75s-6.33-19-3.17-33-9.5-10.14-18.37-22.81,2.53-24.08-7-34.86-22.18-3.8-26.62-8.87-13.94-22.18-19.65-26-9.5,1.27-16.47-6.34-8.24-12.67-20.28-15.84-13.94,1.9-24.08-7.6-72.88-7.61-72.88-7.61,46.26,18.38,47.53,26,3.17,30.42,13.94,27.25,10.78,19.65,17.75,21.55,13.3,18.38,18.37,18.38,3.81,19.64,21.55,23.44,10.14,21.55,20.28,31.69,13.31,14.57,13.31,14.57Z"/><path class="cls-13" d="M682.91,1610.75s12.68-15.84,20.28-18.37,5.07-24.09,0-31.06-.63-31,10.14-36.75,24.08-13.31,25.35-29.79S736,1462,755.47,1461.52s11.41-20.44,13.31-34.22,20.44-33.75,27.09-39.45c0,0-49-3.33-65.11,18.53s-19.49,46.58-31.37,54.18-25.19,5.71-31.37,18.07-9,40.87-14.73,44.67S629.52,1538,630,1556.57s-9.51,54.18-9.51,54.18Z"/><path class="cls-27" d="M594.72,1610.75s-7.15-46.26,0-57,13.94-34.85,15.84-45,13.31-15.21,16.48-22.82,3.17-26.29,10.77-38.17,12-9.35,16.48-27.1,5.07-28.52,17.11-36.75,20.91-19,28.52-31.06,36.75-31,36.75-31-16.48,39.93-15.84,55.77-1.9,41.82-8.87,46.26-19,24.71-18.38,34.85,7,28.5,0,40.55-11.33,17.6-11.37,30-.67,23.21-5.74,39-8.24,42.46-8.24,42.46Z"/><path class="cls-10" d="M649.74,1610.75s-12-88.08-15.21-97.59-17.11-22.18-17.11-33,3.8-21.86,0-32.47-10.14-17-11.41-26.47-5.07-20.27-9.51-26-15.84-19.64-17.74-27.88-20.91-25.35-25.35-29.15c0,0-3.8,31.68,0,45s10.78,19,9.51,33,.63,29.15,7,41.19,8.33,27.91,6.34,41.81-3.81,26,3.8,38,10,38.93,10.43,45.76-2.83,27.75-2.83,27.75Z"/><rect class="cls-17" x="431.91" y="626.72" width="116.72" height="119.32" transform="translate(199.99 -105.59) rotate(15.41)"/><rect class="cls-18" x="420.41" y="616.65" width="121.33" height="124.03" transform="translate(-153.72 141.03) rotate(-14.41)"/><polygon class="cls-21" points="532.19 694.05 444.71 716.52 438.38 691.83 426.24 644.61 513.72 622.14 524.64 664.62 532.19 694.05"/><path class="cls-28" d="M532.19,694.05l-87.48,22.47-6.33-24.69c6.21-10.64,18.63-23.94,40.85-19.57,22.72,4.5,37.61-2.21,45.41-7.64Z"/><circle class="cls-28" cx="490.67" cy="655.02" r="9.6" transform="translate(-234.72 1033.98) rotate(-80.75)"/><rect class="cls-17" x="1577.36" y="1189.58" width="97.82" height="100" transform="translate(387.8 -387.54) rotate(15.41)"/><rect class="cls-18" x="1567.72" y="1181.15" width="101.69" height="103.95" transform="translate(-255.9 441.45) rotate(-14.41)"/><polygon class="cls-21" points="1661.4 1246.01 1588.09 1264.84 1582.78 1244.15 1572.61 1204.58 1645.92 1185.75 1655.07 1221.35 1661.4 1246.01"/><path class="cls-28" d="M1661.4,1246l-73.31,18.83-5.31-20.69c5.21-8.91,15.62-20.06,34.24-16.39,19,3.76,31.52-1.86,38-6.41Z"/><circle class="cls-28" cx="1626.61" cy="1213.3" r="8.05" transform="translate(70.99 2516.37) rotate(-76.67)"/></svg>