<svg id="_Layer_" data-name="&lt;Layer&gt;" xmlns="http://www.w3.org/2000/svg" viewBox="0 0 2760 2760"><defs><style>.cls-1{fill:#fff;}.cls-2{fill:#bdd1ff;}.cls-3{fill:#283689;}.cls-4{fill:#8fa6ef;}.cls-5{fill:#505aba;}.cls-6{fill:#2b478b;}.cls-7{fill:#778de8;}.cls-8{fill:#e27227;}.cls-9{fill:#1c3870;}.cls-10{fill:#8c9df4;}.cls-11{fill:#1b376d;}.cls-12{fill:#f99746;}.cls-13{opacity:0.7;}.cls-14{fill:#d86713;}.cls-15{fill:#a8d29f;}.cls-16{fill:#82b378;}.cls-17{opacity:0.1;}.cls-18{fill:#dde7fe;}.cls-19{fill:#ebf2f9;}.cls-20{fill:#d5e5fb;}.cls-21{fill:#e2eefd;}.cls-22{fill:#9db0f4;}.cls-23{fill:#afcdfb;}.cls-24{fill:#aec3ff;}.cls-25{fill:#819dea;}.cls-26{fill:#c5d7ff;}.cls-27{fill:#d36d1a;}.cls-28{fill:#f49540;}.cls-29{fill:#ffa255;}.cls-30{fill:#f8fcff;}.cls-31{opacity:0.5;}.cls-32{fill:#ed7d2b;}.cls-33{fill:#131375;}.cls-34{fill:#060633;}.cls-35{fill:#829ce8;}.cls-36{fill:#ed975d;}.cls-37{fill:#ffb27d;}.cls-38{fill:#a9453d;}.cls-39{fill:#7a96e5;}.cls-40{fill:#233862;}.cls-41{fill:#ef873a;}.cls-42{fill:#f77d48;}.cls-43{fill:#15156d;}.cls-44{fill:#fa7267;}.cls-45{fill:#17152b;}.cls-46{opacity:0.3;}.cls-47{fill:#ea9963;}.cls-48{fill:#6980e2;}.cls-49{fill:#9fb1ff;}.cls-50{fill:#182d4c;}.cls-51{fill:#ffb583;}.cls-52{fill:#ea6c2d;}.cls-53{fill:#95c38b;}.cls-54{fill:#b5453c;}.cls-55{fill:#efcbab;}.cls-56{fill:#699dee;}.cls-57{fill:#548ee2;}</style></defs><rect class="cls-1" y="460" width="2760" height="1840"/><path class="cls-2" d="M2657.89,2432.87c-6.83,20.36-13.67,38.45-20.11,54.13l-.57,1.39c-18.6,45.14-49.81,72.16-83.18,72.16-178.83,0-796.07-.05-988.45-.15,0,0-1009.28-4.67-1325-6.34-61.79-.32-117.57-59.9-142.6-151.93-28.43-104.47-59.25-255-62.82-425.61-5.68-270.67,57.22-591.88,307.05-859.82C556.89,886.46,328.78,734.48,499.5,478.14c196.17-294.55,410.28,31.3,628.44-102.26,38.54-23.58,77.22-61.53,115.93-119.77A521,521,0,0,1,1315.13,170c3.92-3.81,7.88-7.51,11.88-11.14a462.78,462.78,0,0,1,47.54-37.57Q1391,110,1408.13,100.38A440.76,440.76,0,0,1,1463.78,74a461,461,0,0,1,83-23.72c12.35-2.34,24.79-4.15,37.32-5.52,243.75-26.7,518.08,123.36,659.65,342.66,28.49,44.18,158.1,272.67,55.95,586.75-64.51,198.29,205.7,387.68,301.73,614.13,60.08,141.67,90.82,272,103,388.2C2725.18,2174.92,2691.8,2331.85,2657.89,2432.87Z"/><path class="cls-3" d="M947.24,1977.07,942,1976c.12-1.53,3.23-37.81,25.17-60.43,19.4-20,12.77-82.46,12.7-83.08l5.2-1.53a264.36,264.36,0,0,1,1,36.64c-1.15,26.46-6.72,45.57-16.1,55.24C950.12,1943.29,947.26,1976.74,947.24,1977.07Z"/><path class="cls-3" d="M981,1978.59c-.13-.39-12.87-39.36,10.11-63,19-19.56,2.14-80.29,2-80.9l4.8-3.59a232.55,232.55,0,0,1,6.67,36.09c2.68,26.51-1,45.77-10.6,55.67-18.84,19.42-8.74,50.34-8.31,51.65Z"/><path class="cls-4" d="M2658.15,2524.93c-.44,1.62-.88,3.21-1.32,4.82-.89,3.2-1.76,6.35-2.65,9.44-5.94,20.88-11.85,39.64-17.45,56.18l-.57,1.68c-18.61,54.73-49.82,87.48-83.19,87.48l-365.92,0h-21.13c-84.5,0-172.7,0-256.08-.06h-24.91c-134.12,0-253.2-.05-320.41-.1,0,0-338-1.89-684-3.87l-17.57-.1-294.61-1.73-35.68-.2c-119.4-.69-223.28-1.33-293.17-1.78-48.94-.3-94.11-45.69-123.22-120q-2.3-5.86-4.46-12a456.27,456.27,0,0,1-14.91-52.2c-28.43-126.67-59.25-309.16-62.82-516H2703.34C2723.85,2213.9,2691.6,2402.32,2658.15,2524.93Z"/><polygon class="cls-5" points="2080.14 2411.19 579.22 2411.19 730.5 2160.17 1948.31 2160.17 2080.14 2411.19"/><rect class="cls-6" x="579.22" y="2411.19" width="1500.92" height="32.07"/><rect class="cls-6" x="739.15" y="2212.81" width="1196.27" height="8.56"/><rect class="cls-6" x="698.6" y="2265.25" width="1268.9" height="8.56"/><rect class="cls-6" x="664.81" y="2323.22" width="1336.49" height="8.56"/><rect class="cls-6" x="745.22" y="2174.15" width="54.09" height="26.42"/><rect class="cls-6" x="1159.51" y="2174.15" width="54.09" height="26.42"/><rect class="cls-6" x="1246.49" y="2174.15" width="54.09" height="26.42"/><rect class="cls-6" x="1477.73" y="2174.15" width="54.09" height="26.42"/><rect class="cls-6" x="1558.15" y="2174.15" width="54.09" height="26.42"/><rect class="cls-6" x="1645.14" y="2174.15" width="54.09" height="26.42"/><path class="cls-6" d="M2638.07,1976.52h-10.62c-24-57.1-44.76-59.74-85-64.83-12.39-1.56-26.44-3.34-42.89-7-36.68-8-48.74-40.09-62.69-77.24-6.33-16.82-12.85-34.2-22.39-51.77-29.28-54-95.09-38.2-95.76-38l-1.35-14.25c2.89-.72,71.25-17.16,103.74,42.73,10.05,18.54,17.1,37.28,23.31,53.81,13.82,36.78,23.82,63.35,56.34,70.47,16.19,3.54,30.1,5.3,42.37,6.86C2586.9,1902.85,2610.35,1905.8,2638.07,1976.52Z"/><path class="cls-7" d="M2095.13,1646h180.65a41.55,41.55,0,0,1,41.55,41.55v346.55a41.55,41.55,0,0,1-41.55,41.55H2095.13a41.56,41.56,0,0,1-41.56-41.56V1687.57A41.56,41.56,0,0,1,2095.13,1646Z"/><path class="cls-8" d="M2275.87,1851.18q0,11.57-1.06,22.68c-.17,1.81-.36,3.59-.59,5.37a215.38,215.38,0,0,1-7.36,36.17c-.32,1.08-.65,2.17-1,3.22-5.88,18.63-14.15,35-24.13,47.93-.54.7-1.08,1.4-1.63,2.07-10.16,12.61-22,21.79-34.93,26.48h0l-2.33.81h0a56.2,56.2,0,0,1-10,2.23c-1.11.16-2.2.29-3.31.34h0c-1.39.13-2.79.18-4.19.18a59.35,59.35,0,0,1-27.64-7c-1.36-.7-2.7-1.45-4-2.28a73.26,73.26,0,0,1-9.08-6.47c-.67-.55-1.32-1.09-2-1.65-12.58-11-23.38-26.7-31.51-45.64-.4-.93-.8-1.85-1.19-2.8a202.62,202.62,0,0,1-12.35-45.3c-.34-2.24-.66-4.49-.94-6.77q-1-8.28-1.49-16.87c-.07-1.42-.14-2.84-.18-4.26v0c-.1-2.8-.15-5.59-.15-8.41a235.54,235.54,0,0,1,4.09-44c.24-1.22.49-2.46.75-3.68,4.24-20.25,11.12-38.52,20-53.72.48-.81,1-1.62,1.45-2.41,8.93-14.7,19.76-26.34,31.84-33.89.7-.45,1.39-.86,2.09-1.27a60.17,60.17,0,0,1,30.36-8.5,56.38,56.38,0,0,1,15,2c.86.23,1.72.47,2.58.77q.91.27,1.83.6c1.19.43,2.38.88,3.56,1.4,13.06,5.53,25,15.74,35.06,29.43.54.72,1.07,1.45,1.59,2.21,10.65,15.16,19.08,34.3,24.44,56,.29,1.1.55,2.21.8,3.33a223.72,223.72,0,0,1,4.76,30.09c.18,1.94.33,3.9.45,5.86v0Q2275.86,1843.19,2275.87,1851.18Z"/><path class="cls-9" d="M2241.73,1966.55c-.54.7-1.08,1.4-1.63,2.07L2228,1946.73l-1.38-2.51-24.78-45-1.39-2.51-28-50.8-1.38-2.51-27.62-50.17-1.38-2.53-22.54-40.91c.48-.81,1-1.62,1.45-2.41l22.62,41.09,1.39,2.5,27.62,50.18,1.38,2.5,28,50.81,1.38,2.5,24.8,45,1.37,2.5Z"/><path class="cls-9" d="M2266.86,1915.4c-.32,1.08-.65,2.17-1,3.22l-8.29-15.06-1.39-2.5-24.78-45-1.38-2.51-28-50.8-1.38-2.51L2173,1750l-1.37-2.5-18.78-34.07c.7-.45,1.39-.86,2.09-1.27l18.22,33.11,1.39,2.5L2202.2,1798l1.38,2.5,28,50.81,1.38,2.5,24.78,45,1.39,2.5Z"/><path class="cls-9" d="M2274.9,1829.53c.18,1.94.33,3.9.45,5.86l-13.3-24.13-1.37-2.5-28-50.83-1.37-2.51-26.63-48.35c1.19.43,2.38.88,3.56,1.4l24.61,44.7,1.38,2.5,28,50.83,1.37,2.51Z"/><path class="cls-9" d="M2205.16,1995.1l-2.33.81h0l-3.77-6.86-1.37-2.5-24.79-45-1.39-2.51-28-50.8-1.38-2.53-27.64-50.15-1.38-2.53-14.25-25.86c.24-1.22.49-2.46.75-3.68l15,27.31,1.38,2.5,27.63,50.18,1.37,2.5,28,50.81,1.37,2.5,24.8,45,1.38,2.5Z"/><path class="cls-9" d="M2202.86,1706.47l-28.28,41.33L2173,1750l-28,40.91-1.54,2.26-27.45,40.09-1.54,2.26-19.39,28.32c-.07-1.42-.14-2.84-.18-4.26v0l18.19-26.57,1.54-2.23,27.45-40.12,1.53-2.23,28-40.91,1.53-2.23,27.09-39.6C2201.14,1705.93,2202,1706.17,2202.86,1706.47Z"/><path class="cls-9" d="M2244.9,1740.11l-10.66,15.56-1.55,2.26-29.11,42.55-1.54,2.26-28,40.88-1.54,2.26L2145.06,1886l-1.52,2.26-23.73,34.64-1.54,2.25-7.17,10.49c-.4-.93-.8-1.85-1.19-2.8l7-10.19,1.54-2.26,23.72-34.66,1.53-2.23,27.44-40.1,1.54-2.25,28-40.89,1.54-2.25,29.12-42.56,1.54-2.25,10.45-15.27C2243.85,1738.62,2244.38,1739.35,2244.9,1740.11Z"/><path class="cls-9" d="M2270.14,1799.44l-6.55,9.57-1.54,2.25-29.11,42.53-1.54,2.26-28,40.88-1.53,2.26-27.46,40.09-1.53,2.26-23.72,34.64-1.53,2.25-3.06,4.47c-.67-.55-1.32-1.09-2-1.65l3.64-5.32,1.54-2.26L2171.5,1939l1.55-2.25,27.44-40.1,1.54-2.25,28-40.89,1.54-2.25,29.12-42.53,1.54-2.26,7.12-10.39C2269.63,1797.21,2269.89,1798.32,2270.14,1799.44Z"/><path class="cls-9" d="M2274.81,1873.86c-.17,1.81-.36,3.59-.59,5.37l-15.11,22.1-1.54,2.23-28,40.91-1.54,2.26-27.44,40.09-1.55,2.23-6.21,9.09c-1.11.16-2.2.29-3.31.34l8.15-11.93,1.54-2.23,27.44-40.1,1.55-2.25,28-40.91,1.54-2.23Z"/><path class="cls-9" d="M2157.69,1991.65c-1.36-.7-2.7-1.45-4-2.28l-6-10.94-1.39-2.5-28-50.81-1.37-2.5-19.34-35.11c-.34-2.24-.66-4.49-.94-6.77l21.82,39.62,1.37,2.51,28,50.8,1.38,2.51Z"/><path class="cls-10" d="M2095.13,1217.73h180.65a41.55,41.55,0,0,1,41.55,41.55v346.55a41.56,41.56,0,0,1-41.56,41.56H2095.13a41.56,41.56,0,0,1-41.56-41.56V1259.29A41.56,41.56,0,0,1,2095.13,1217.73Z"/><path class="cls-8" d="M2275.87,1422.89q0,11.58-1.06,22.69c-.17,1.8-.36,3.59-.59,5.37a215.38,215.38,0,0,1-7.36,36.17c-.32,1.08-.65,2.16-1,3.22-5.88,18.63-14.15,35-24.13,47.92-.54.7-1.08,1.4-1.63,2.08-10.16,12.61-22,21.78-34.93,26.47h0l-2.33.82h0a57.1,57.1,0,0,1-10,2.23c-1.11.16-2.2.29-3.31.34h0c-1.39.13-2.79.18-4.19.18a59.25,59.25,0,0,1-27.64-7c-1.36-.69-2.7-1.44-4-2.27a73.36,73.36,0,0,1-9.08-6.48c-.67-.54-1.32-1.08-2-1.64-12.58-11-23.38-26.7-31.51-45.65-.4-.92-.8-1.85-1.19-2.79a202.7,202.7,0,0,1-12.35-45.31c-.34-2.23-.66-4.48-.94-6.76-.69-5.53-1.19-11.14-1.49-16.87-.07-1.42-.14-2.84-.18-4.26v0q-.15-4.18-.15-8.41a235.7,235.7,0,0,1,4.09-44c.24-1.21.49-2.46.75-3.67,4.24-20.25,11.12-38.52,20-53.72.48-.81,1-1.62,1.45-2.41,8.93-14.71,19.76-26.34,31.84-33.9.7-.45,1.39-.85,2.09-1.26a60.17,60.17,0,0,1,30.36-8.5,56.38,56.38,0,0,1,15,2c.86.22,1.72.47,2.58.76.61.18,1.22.39,1.83.61,1.19.43,2.38.88,3.56,1.4,13.06,5.53,25,15.74,35.06,29.43.54.72,1.07,1.44,1.59,2.21,10.65,15.16,19.08,34.3,24.44,56,.29,1.11.55,2.21.8,3.34a223.82,223.82,0,0,1,4.76,30.08c.18,1.94.33,3.91.45,5.87v0Q2275.86,1414.92,2275.87,1422.89Z"/><path class="cls-9" d="M2241.73,1538.26c-.54.7-1.08,1.4-1.63,2.08l-12.06-21.9-1.38-2.5-24.78-45-1.39-2.5-28-50.81-1.38-2.5-27.62-50.18-1.38-2.52-22.54-40.91c.48-.81,1-1.62,1.45-2.41l22.62,41.09,1.39,2.5,27.62,50.18,1.38,2.5,28,50.8,1.38,2.51,24.8,45,1.37,2.51Z"/><path class="cls-9" d="M2266.86,1487.12c-.32,1.08-.65,2.16-1,3.22l-8.29-15.06-1.39-2.5-24.78-45-1.38-2.5-28-50.81-1.38-2.5-27.63-50.2-1.37-2.5-18.78-34.08c.7-.45,1.39-.85,2.09-1.26l18.22,33.11,1.39,2.5,27.62,50.17,1.38,2.51,28,50.81,1.38,2.5,24.78,45,1.39,2.51Z"/><path class="cls-9" d="M2274.9,1401.24c.18,1.94.33,3.91.45,5.87l-13.3-24.13-1.37-2.51-28-50.83-1.37-2.5-26.63-48.35c1.19.43,2.38.88,3.56,1.4l24.61,44.7,1.38,2.5,28,50.83,1.37,2.5Z"/><path class="cls-9" d="M2205.16,1566.81l-2.33.82h0l-3.77-6.86-1.37-2.5-24.79-45-1.39-2.51-28-50.8-1.38-2.53-27.64-50.16-1.38-2.52-14.25-25.87c.24-1.21.49-2.46.75-3.67l15,27.31,1.38,2.5,27.63,50.18,1.37,2.5,28,50.81,1.37,2.5,24.8,45,1.38,2.51Z"/><path class="cls-9" d="M2202.86,1278.18l-28.28,41.34-1.55,2.23-28,40.91-1.54,2.25-27.45,40.1-1.54,2.25-19.39,28.33c-.07-1.42-.14-2.84-.18-4.26v0l18.19-26.56,1.54-2.23,27.45-40.12,1.53-2.23,28-40.91,1.53-2.23,27.09-39.6C2201.14,1277.64,2202,1277.89,2202.86,1278.18Z"/><path class="cls-9" d="M2244.9,1311.83l-10.66,15.56-1.55,2.25-29.11,42.56-1.54,2.25-28,40.89-1.54,2.25-27.45,40.1-1.52,2.26-23.73,34.63-1.54,2.26-7.17,10.48c-.4-.92-.8-1.85-1.19-2.79l7-10.2,1.54-2.25,23.72-34.66,1.53-2.23,27.44-40.1,1.54-2.25,28-40.89,1.54-2.26,29.12-42.55,1.54-2.25,10.45-15.27C2243.85,1310.34,2244.38,1311.06,2244.9,1311.83Z"/><path class="cls-9" d="M2270.14,1371.16l-6.55,9.56-1.54,2.26-29.11,42.53-1.54,2.25-28,40.89-1.53,2.25-27.46,40.1-1.53,2.26-23.72,34.63-1.53,2.26-3.06,4.46c-.67-.54-1.32-1.08-2-1.64l3.64-5.32,1.54-2.26,23.71-34.64,1.55-2.25,27.44-40.1,1.54-2.26,28-40.88,1.54-2.25,29.12-42.54,1.54-2.25,7.12-10.4C2269.63,1368.93,2269.89,1370,2270.14,1371.16Z"/><path class="cls-9" d="M2274.81,1445.58c-.17,1.8-.36,3.59-.59,5.37l-15.11,22.1-1.54,2.23-28,40.91-1.54,2.25-27.44,40.1-1.55,2.23-6.21,9.09c-1.11.16-2.2.29-3.31.34l8.15-11.93,1.54-2.24,27.44-40.09,1.55-2.26,28-40.9,1.54-2.24Z"/><path class="cls-9" d="M2157.69,1563.36c-1.36-.69-2.7-1.44-4-2.27l-6-10.94-1.39-2.5-28-50.81-1.37-2.51-19.34-35.11c-.34-2.23-.66-4.48-.94-6.76l21.82,39.62,1.37,2.5,28,50.81,1.38,2.5Z"/><path class="cls-11" d="M2221,2349.77,2360.9,2144.7c5.71-8.36,21.27-14.1,34.77-12.83l179.5,16.92c13.5,1.28,19.82,9.08,14.12,17.44L2449.37,2371.3c-5.7,8.36-21.27,14.1-34.77,12.83l-179.5-16.92C2221.6,2365.93,2215.28,2358.13,2221,2349.77Z"/><polygon class="cls-11" points="2591.38 2156.58 2591.38 2131.7 2222.36 2325.06 2219.17 2330.43 2218.89 2356.78 2381.93 2365.45 2591.38 2156.58"/><path class="cls-5" d="M2393.12,2106.15l176.44,16.63c14.17,1.33,20.79,9.52,14.81,18.29l-131.52,192.77c-8.61,12.62-32.12,21.29-52.51,19.37l-158.1-14.9c-15-1.42-22-10.1-15.69-19.39l138-202.23C2369.22,2109.82,2382,2105.1,2393.12,2106.15Z"/><path class="cls-6" d="M2591.33,2131.73c-.6-5.38-6.57-9.54-16.16-10.46l-179.5-16.91c-13.5-1.3-29.05,4.47-34.76,12.82L2221,2322.23c-2,2.87-2.51,5.7-1.82,8.19v0c1,3.48,4.33,6.37,9.54,8h0a31.15,31.15,0,0,0,6.37,1.24l157.75,14.87h0l21.74,2c13.5,1.27,29.07-4.48,34.76-12.82l97.26-142.57v0l34.92-51.16,7.73-11.32a10.83,10.83,0,0,0,2.1-6.08A8.88,8.88,0,0,0,2591.33,2131.73Zm-8.24,6.37-7.33,10.74v0l-49.65,72.81-.07.11-81,118.66v0l-1.53,2.25v0l-.32.46c-4.26,6.25-15.88,10.52-26,9.57l-.73-.05h0l-19.84-1.9-158.88-15a22,22,0,0,1-6.24-1.46c-5.59-2.27-7.55-6.78-4.31-11.57l.32-.42,0,0,1.53-2.25,138.05-202.36c4.26-6.21,15.89-10.49,26-9.55l179.49,16.9c8.56.81,13.25,5.15,11.86,10.26A8.53,8.53,0,0,1,2583.09,2138.1Z"/><path class="cls-6" d="M2232.33,2337.37,2415,2354.6c12.27,1.15,26.43-4.07,31.62-11.67l1.48-2.18L2226,2319.8l-3.59,5.26C2218.33,2331,2222.79,2336.48,2232.33,2337.37Z"/><path class="cls-11" d="M2658.15,2524.93c-.44,1.62-.88,3.21-1.32,4.82-.89,3.2-1.76,6.35-2.65,9.44-33.76-.46-76.68,4.31-121.32,9.28-115.45,12.84-234.81,26.11-272.92-34.19-12.6-20-17.11-41.12-13.44-62.89,5.76-34,30.45-61.78,49.11-78.48h0c5.22-4.69,10-8.49,13.72-11.31h0c4.56-3.46,7.62-5.47,8.15-5.8l2.58,6.37,2.58,6.38c-.14.09-3.42,2.24-8.43,6.13-16.16,12.44-50.39,42.71-56.66,79.73-3,17.59.66,34.23,11.18,50.87,34.33,54.34,155.89,40.83,263.12,28.9C2578.41,2529,2623.11,2524,2658.15,2524.93Z"/><rect class="cls-12" x="667.56" y="575.18" width="1324.26" height="1266.39"/><rect class="cls-3" x="667.56" y="575.18" width="1324.26" height="1064.08"/><path class="cls-12" d="M1503,2047.88v30.76H1114.16v-30.76c27.47,0,50-34.55,52.06-78.42.1-2.19.15-4.41.15-6.64V1841.57h284.41v121.25c0,2.23,0,4.45.15,6.64,1,20.83,6.59,39.58,15.13,53.51C1475.52,2038.36,1488.57,2047.88,1503,2047.88Z"/><g class="cls-13"><rect class="cls-14" x="1166.37" y="1841.57" width="284.4" height="25.34"/></g><g class="cls-13"><path class="cls-14" d="M1503,2047.88H1114.16c27.47,0,50-34.55,52.06-78.42h284.71c1,20.83,6.59,39.58,15.13,53.51C1475.52,2038.36,1488.57,2047.88,1503,2047.88Z"/></g><path class="cls-15" d="M382.2,1659.56s-13.78-199.27,39.15-367.19c5.61-17.81,19.54-13.32,21.84,7.06,8.23,73,16.44,219-21.5,374C367.71,1894.09,382.2,1659.56,382.2,1659.56Z"/><path class="cls-15" d="M445.41,1699s8.65-200,79.4-349.52c7.5-15.85,20.71-7.32,20.69,13.4,0,74.28-8.23,220.21-62.81,361.47C405,1925.3,445.41,1699,445.41,1699Z"/><path class="cls-16" d="M410.2,1659.11s.25-200.52,64.58-357.53c6.82-16.64,20.35-9.6,21.21,11.07,3.06,74.11,1,220.61-47.53,367.6C379.4,1889.42,410.2,1659.11,410.2,1659.11Z"/><path class="cls-16" d="M451.79,1669.24s24.29-151.47,91.78-249.61c7.15-10.4,16.53-.77,14.69,15.13-6.59,57-25.75,167-80.1,262.66C400.82,1833.48,451.79,1669.24,451.79,1669.24Z"/><path class="cls-15" d="M361,1682.92s13.78-199.27-39.15-367.19c-5.61-17.81-19.54-13.32-21.84,7.06-8.23,73-16.43,219,21.5,374C375.46,1917.45,361,1682.92,361,1682.92Z"/><path class="cls-15" d="M297.76,1722.32s-8.65-200-79.4-349.53c-7.5-15.85-20.7-7.32-20.69,13.4,0,74.28,8.23,220.21,62.81,361.47C338.14,1948.66,297.76,1722.32,297.76,1722.32Z"/><path class="cls-16" d="M333,1682.47s-.25-200.52-64.58-357.53c-6.82-16.64-20.35-9.6-21.2,11.07-3.07,74.11-1,220.61,47.52,367.61C363.78,1912.78,333,1682.47,333,1682.47Z"/><path class="cls-16" d="M404.62,1693.26s23.22-196.93-21.57-371c-4.75-18.46-18.85-15.75-22.11,4.28-11.68,71.8-26.8,216.26,3.65,375.62C407.93,1928.91,404.62,1693.26,404.62,1693.26Z"/><path class="cls-16" d="M291.38,1692.6S267.09,1541.13,199.6,1443c-7.15-10.4-16.53-.77-14.69,15.13,6.59,57,25.75,167.05,80.1,262.67C342.35,1856.84,291.38,1692.6,291.38,1692.6Z"/><path class="cls-6" d="M214,1653.74h326.4a0,0,0,0,1,0,0v241a127.89,127.89,0,0,1-127.89,127.89H335.13a127.89,127.89,0,0,1-127.89-127.89V1660.45A6.71,6.71,0,0,1,214,1653.74Z"/><rect class="cls-5" x="684.72" y="603.2" width="1287.31" height="995.93"/><g class="cls-17"><rect class="cls-18" x="715.06" y="649.16" width="276.02" height="449.63"/></g><g class="cls-17"><rect class="cls-18" x="715.06" y="1148.28" width="276.02" height="409.63"/></g><g class="cls-17"><rect class="cls-18" x="1044.55" y="1199.84" width="888.97" height="358.08"/></g><rect class="cls-19" x="1044.55" y="649.15" width="568.21" height="506.55"/><path class="cls-20" d="M1585.75,787.36V1155.7h-541.2v-275h20.21v17.07h16.61v-9.92h15.39V848.49h7.67V830.14h1.17v18.35H1124V814.11h1.81v34.38H1138V848h0v-4.36h0v-4.13h0v-6.88h0v-4.39h0v-6.86h0V817h0v-6.87h0v-4.75h0V798.5h0v-6h0v-6.88h0v-4.54h3.62V775.9h.58v5.15h26.88V775.9h.57v5.15h4.91v36H1178v-6.87h0v-4.75h0V798.5h0v-4.72h0v-6.87h0v0h32.58v0h5.61c.28.18.57.37.86.54v39.24h23.82v51.52h19.23V782.92h4.2v-6.66h.75v6.66h15.19v-6.66h.75v6.66h21.52v-6.66h.75v6.66h13.55v-6.66h.75v6.66h5.56v88.94h21.27V857.49l25.08.12V834.29h5V829.7h.67v4.59h19.36v0h3.88V829.7h.67v4.61h4.66v46.35h29.87v17.07h16.6v-9.92h15.39V848.49h7.68V830.14h1.15v18.35h18.41V814.11h1.8v34.38h12.17V848h0v-4.36h0v-4.13h0v-6.88h0v-4.39h0v-6.86h0V817h0v-6.87h0v-4.75h0V798.5h0v-6h0v-6.88h0v-4.54h3.64V775.9h.58v5.15h26.87V775.9h.58v5.15h4.9v36h3.42v-6.87h0v-4.75h0V798.5h0v-4.72h0v-6.87h0v0h32.59v0h5.6C1585.27,787.05,1585.5,787.22,1585.75,787.36Z"/><rect class="cls-21" x="1275.04" y="782.93" width="48.07" height="15.07"/><rect class="cls-21" x="1506.89" y="781.04" width="22.43" height="9.16"/><rect class="cls-21" x="1506.89" y="795.14" width="22.43" height="9.16"/><rect class="cls-21" x="1506.89" y="809.52" width="22.43" height="9.16"/><rect class="cls-21" x="1506.89" y="824.14" width="22.43" height="9.16"/><rect class="cls-21" x="1506.89" y="838.24" width="22.43" height="9.16"/><rect class="cls-21" x="1506.89" y="853.76" width="22.43" height="9.16"/><rect class="cls-21" x="1506.89" y="867.85" width="22.43" height="9.16"/><rect class="cls-21" x="1506.89" y="882.24" width="22.43" height="9.16"/><rect class="cls-21" x="1506.89" y="896.86" width="22.43" height="9.16"/><rect class="cls-21" x="1506.89" y="910.96" width="22.43" height="9.16"/><rect class="cls-21" x="1137.75" y="781.04" width="24.04" height="9.16"/><rect class="cls-21" x="1137.75" y="795.14" width="24.04" height="9.16"/><rect class="cls-21" x="1137.75" y="809.52" width="24.04" height="9.16"/><rect class="cls-21" x="1137.75" y="824.14" width="24.04" height="9.16"/><rect class="cls-21" x="1137.75" y="838.24" width="24.04" height="9.16"/><rect class="cls-21" x="1137.75" y="853.76" width="24.04" height="9.16"/><rect class="cls-21" x="1137.75" y="867.85" width="24.04" height="9.16"/><rect class="cls-21" x="1137.75" y="882.24" width="24.04" height="9.16"/><rect class="cls-21" x="1137.75" y="896.86" width="24.04" height="9.16"/><rect class="cls-21" x="1137.75" y="910.96" width="24.04" height="9.16"/><rect class="cls-21" x="1178.45" y="787.05" width="27.32" height="9.16"/><rect class="cls-21" x="1178.45" y="801.14" width="27.32" height="9.16"/><rect class="cls-21" x="1178.45" y="815.53" width="27.32" height="9.16"/><rect class="cls-21" x="1178.45" y="830.14" width="27.32" height="9.16"/><rect class="cls-21" x="1178.45" y="844.25" width="27.32" height="9.16"/><rect class="cls-21" x="1178.45" y="858.95" width="27.32" height="9.16"/><rect class="cls-21" x="1178.45" y="873.04" width="27.32" height="9.16"/><rect class="cls-21" x="1178.45" y="887.43" width="27.32" height="9.16"/><rect class="cls-21" x="1178.45" y="902.04" width="27.32" height="9.16"/><rect class="cls-21" x="1178.45" y="916.14" width="27.32" height="9.16"/><path class="cls-22" d="M1537.25,749.35h-2.11v-.27l.64-9.17c0-.3.18-.52.36-.52h.07a.57.57,0,0,1,.31.24,1.25,1.25,0,0,1,.18.59Z"/><path class="cls-23" d="M1535.34,747.27h-.08l.53-7.36c0-.3.18-.52.36-.52h.07l0,.09a1.29,1.29,0,0,1,.15.62l0,5.29C1536.46,746.41,1536,747.24,1535.34,747.27Z"/><rect class="cls-22" x="1534.52" y="790.17" width="4.07" height="292.83"/><rect class="cls-24" x="1534.52" y="790.17" width="1.88" height="292.83"/><rect class="cls-22" x="1530.07" y="1036.27" width="12.97" height="77.48"/><rect class="cls-24" x="1530.07" y="1036.27" width="7.73" height="77.48"/><path class="cls-22" d="M1543.64,753.77c0,3.62-3.33,6.55-7.45,6.55-.31,0-.62,0-.93-.05-3.67-.4-6.52-3.16-6.52-6.5s2.85-6.1,6.52-6.5c.31,0,.62,0,.93,0C1540.31,747.22,1543.64,750.15,1543.64,753.77Z"/><path class="cls-24" d="M1539.79,753.77a7.08,7.08,0,0,1-4.53,6.5c-3.67-.4-6.52-3.16-6.52-6.5s2.85-6.1,6.52-6.5A7.08,7.08,0,0,1,1539.79,753.77Z"/><polygon class="cls-24" points="1543.02 795.95 1530.06 795.95 1525.49 760.09 1546.9 760.09 1543.02 795.95"/><rect class="cls-22" x="1524.33" y="757.38" width="23.72" height="3.44"/><rect class="cls-24" x="1524.33" y="757.38" width="14.91" height="3.44"/><path class="cls-25" d="M1532.2,1036.27h8.28l-1.21-6c-.11-.53-.41-.89-.76-.89h-3.88c-.42,0-.8.42-1,1Z"/><polygon class="cls-26" points="1527.02 761.84 1545.3 761.84 1541.73 794.07 1531.23 794.07 1527.02 761.84"/><polygon class="cls-22" points="1546.54 757.38 1525.85 757.38 1527.54 753.45 1544.93 753.45 1546.54 757.38"/><polygon class="cls-24" points="1541.44 757.38 1525.85 757.38 1527.54 753.45 1539.83 753.45 1541.44 757.38"/><path class="cls-15" d="M1175.27,1114.07l-130.72-.07v-52l1.27,1c17.83,14.8,15.5,34.51,37.58,27.28s40.29-10.24,50.18,0,17.15,6.18,29.45,6.11C1173.22,1096.35,1175,1109.56,1175.27,1114.07Z"/><polygon class="cls-27" points="1202.4 1054.51 1077.84 1054.51 1072.08 1006.82 1196.41 1006.82 1202.4 1054.51"/><polygon class="cls-28" points="1204.53 1054.51 1079.97 1054.51 1074.21 1006.82 1198.54 1006.82 1204.53 1054.51"/><path class="cls-27" d="M1077.84,1054.51h36.76a0,0,0,0,1,0,0v5.84a0,0,0,0,1,0,0h-33.28a3.48,3.48,0,0,1-3.48-3.48v-2.36A0,0,0,0,1,1077.84,1054.51Z"/><rect class="cls-29" x="1114.33" y="1054.51" width="113.12" height="5.84"/><path class="cls-29" d="M1085.27,1060.34l-2.13,13.66v0l-6.31,40.46c-.09.54-.38.9-.71.9-.64,0-1.12-1-1-2l5.63-47.2.7-5.87Z"/><path class="cls-27" d="M1083.14,1074c.21-7-2.39-7.79-2.39-7.79l.7-5.87h3.82Z"/><path class="cls-29" d="M1112.29,1060.34l-2.13,13.66v0l-6.31,40.46c-.09.54-.38.9-.71.9-.64,0-1.12-1-1-2l5.63-47.2.7-5.87Z"/><path class="cls-27" d="M1110.16,1074c.21-7-2.39-7.79-2.39-7.79l.7-5.87h3.82Z"/><path class="cls-29" d="M1217.13,1060.34l2.13,13.66v0l6.32,40.46c.08.54.37.9.7.9.64,0,1.13-1,1-2l-5.63-47.2-.7-5.87Z"/><path class="cls-27" d="M1219.26,1074c-.2-7,2.39-7.79,2.39-7.79l-.7-5.87h-3.82Z"/><path class="cls-29" d="M1190.11,1060.34l2.13,13.66v0l6.32,40.46c.08.54.37.9.7.9.64,0,1.13-1,1-2l-5.63-47.2-.7-5.87Z"/><path class="cls-27" d="M1192.24,1074c-.2-7,2.39-7.79,2.39-7.79l-.7-5.87h-3.82Z"/><path class="cls-15" d="M1122.2,779.63a19.23,19.23,0,0,1-11.1,5.41c-18,1.84-24.29,12.77-38.88,35.9-7.84,12.39-18.64,15.07-27.67,15.5V679.3c2.55,3,5.16,6,7.83,8.9,9.92,10.84,20.69,19.63,32.46,15s21-4.41,28.12-.65c9.13,4.68,15.11,14.86,19.39,27.36C1138.26,747,1133.14,769.44,1122.2,779.63Z"/><path class="cls-30" d="M1269.49,724.09c0-7.28,3.62-13.17,8.09-13.17s8.08,5.89,8.08,13.17-3.62,13.16-8.08,13.16S1269.49,731.35,1269.49,724.09Z"/><path class="cls-30" d="M1402.55,712.36s7-18.38,23.81-16.34c0,0,24.38-30.64,50.38-4.09,0,0,27.63-6.58,48.1,5.7,13.64,8.19,18.15,16.77,18.15,16.77Z"/><g class="cls-31"><path class="cls-30" d="M1486.45,759.6s4.59-12,15.57-10.68c0,0,16-20,33-2.68,0,0,18.07-4.3,31.46,3.73,8.92,5.35,11.87,11,11.87,11Z"/></g><g class="cls-31"><path class="cls-30" d="M1143.46,751.27s4.6-12,15.58-10.69c0,0,15.94-20,33-2.67,0,0,18.07-4.31,31.46,3.72,8.92,5.36,11.87,11,11.87,11Z"/></g><rect class="cls-22" x="1044.55" y="1113.75" width="568.21" height="41.95"/><path class="cls-12" d="M1402.56,1100.92s-2.79-16.45,4.81-32.46,20.46-11.7,20.46-11.7a7.8,7.8,0,0,1-1.76,8.07c-3.55,3.56-16-3.57-19.07,31.48C1407,1096.31,1405.51,1103.56,1402.56,1100.92Z"/><path class="cls-32" d="M1306.2,864.13c0-4.11,2.06-7.46,4.58-7.46s4.58,3.35,4.58,7.46-2,7.46-4.58,7.46S1306.2,868.25,1306.2,864.13Z"/><path class="cls-22" d="M1417.07,1091.15c0-5.78,2.88-10.47,6.43-10.47s6.42,4.69,6.42,10.47-2.88,10.47-6.42,10.47S1417.07,1096.93,1417.07,1091.15Z"/><path class="cls-22" d="M1274.66,1083.16c0-8.85,4.4-16,9.83-16s9.84,7.17,9.84,16-4.41,16-9.84,16S1274.66,1092,1274.66,1083.16Z"/><polygon class="cls-33" points="1288.16 1057.36 1284.27 1056.49 1299.87 871.05 1303.76 871.92 1288.16 1057.36"/><polygon class="cls-32" points="1290.29 877.46 1290.29 870.3 1310.3 863.17 1311.62 869.19 1290.29 877.46"/><path class="cls-34" d="M1284.81,1113.57c-10.1,0-18.31-13.38-18.31-29.83s8.21-29.83,18.31-29.83,18.32,13.38,18.32,29.83S1294.91,1113.57,1284.81,1113.57Zm0-53.63c-8,0-14.61,10.68-14.61,23.8s6.56,23.8,14.61,23.8,14.61-10.68,14.61-23.8S1292.87,1059.94,1284.81,1059.94Z"/><path class="cls-34" d="M1423.5,1113c-7.38,0-13.39-9.78-13.39-21.8s6-21.8,13.39-21.8,13.38,9.78,13.38,21.8S1430.87,1113,1423.5,1113Zm0-38.81c-5.76,0-10.44,7.63-10.44,17s4.68,17,10.44,17,10.44-7.62,10.44-17S1429.25,1074.14,1423.5,1074.14Z"/><rect class="cls-33" x="1309.89" y="1091.72" width="96.81" height="11.92" rx="3.77"/><path class="cls-33" d="M1404.8,1103.71c-.62,0-1.19-.63-1.4-1.64a2.94,2.94,0,0,1,.93-3l18.7-10.16c.77-.43,1.6.26,1.86,1.51a2.92,2.92,0,0,1-.93,3l-18.69,10.17A1.06,1.06,0,0,1,1404.8,1103.71Z"/><polygon class="cls-33" points="1289.88 1010.33 1321.21 1091.98 1329.17 1091.98 1291.54 995.15 1289.88 1010.33"/><path class="cls-34" d="M1291.67,1057.54l-2.88-1.42-3,16c-1,5.31-4.13,8.78-7.53,8.31l-9.51-1.31-.25,4.88,9.54,1.31c4,.54,7.52,4.05,9.66,9.5l5,12.87,2.53-2.63-4.88-12.44a36.63,36.63,0,0,1-1.65-19.54Z"/><path class="cls-34" d="M1427.8,1074.45l-1.86-.93-2,10.42c-.65,3.46-2.69,5.71-4.9,5.4l-6.18-.84-.16,3.17,6.2.85c2.57.35,4.89,2.63,6.27,6.17l3.29,8.36,1.64-1.71-3.17-8.08a23.81,23.81,0,0,1-1.07-12.7Z"/><path class="cls-12" d="M1421.75,1090.76c0-1.32.66-2.4,1.48-2.4s1.47,1.08,1.47,2.4-.66,2.4-1.47,2.4S1421.75,1092.09,1421.75,1090.76Z"/><path class="cls-12" d="M1283,1083.16c0-1.32.66-2.4,1.47-2.4s1.47,1.08,1.47,2.4-.66,2.4-1.47,2.4S1283,1084.49,1283,1083.16Z"/><path class="cls-12" d="M1273.27,1052.24s8.58-9.79,20.39-3.49,13.62,27.49,13.62,27.49-2,4.26-5.25,0-3.28-25.68-24.6-18.72C1277.43,1057.52,1272.73,1057.66,1273.27,1052.24Z"/><path class="cls-35" d="M1354.86,685.89S1340,724.72,1340,735.25s4.72,22.66,4.72,22.66l15-20.28,7.46-21.81Z"/><path class="cls-36" d="M1366.57,742.84s-5,14.69-13.94,12.07a56.24,56.24,0,0,1-3.29-11.65c-.08-.63-.16-1.25-.23-1.84-.75-5.83-1.27-9.07-1.27-9.07h0c.35-.38,11.67-12.56,11.74-11.87C1361.29,736.35,1366.57,742.84,1366.57,742.84Z"/><path class="cls-37" d="M1344,733.25s13.75,7.5,16.49-6.52,6.35-22.5-2.32-27.88-11.42-.92-13,3.4S1340.44,730.94,1344,733.25Z"/><path class="cls-38" d="M1328.35,1092H1351a1.53,1.53,0,0,0,.48-.23c1.52-1.23,1-10.67.86-13.58,0-.54-.06-.86-.06-.86s-8-10.38-9.06-2.43l-.12.73h0c-1.38,7.44-7.57,10.82-11.14,11.76C1329.24,1088.08,1328.53,1090.67,1328.35,1092Z"/><path class="cls-38" d="M1372.71,1092h22.66a1.53,1.53,0,0,0,.48-.23c1.51-1.23,1-10.67.86-13.58,0-.54-.06-.86-.06-.86s-8-10.38-9.07-2.43c0,.25-.07.49-.11.73h0c-1.39,7.44-7.57,10.82-11.14,11.76C1373.6,1088.08,1372.89,1090.67,1372.71,1092Z"/><path class="cls-12" d="M1332.92,879.1s1.21,24.6,2.63,54.16c1.94,40.16,4.26,89.49,4.49,98.84.4,16.22,3.07,43.5,3.07,43.5s1.61,4.3,9.18,1.7a534.05,534.05,0,0,0,9.77-75.71l.09-1.94c1.79-39.91,4.58-124,4.58-124Z"/><path class="cls-32" d="M1332.92,879.1s1.21,24.6,2.63,54.16l26.51,68.33.09-1.94c1.79-39.91,4.58-124,4.58-124Z"/><path class="cls-12" d="M1338.45,882s14.86,92.72,29.2,134.57,19.46,60.5,19.46,60.5,8.79,3.86,9.54.21c0,0-7.51-99.63-13.33-122.93-3-12.07-4.43-49.14-4.73-60.83s-5.34-27.58-5.34-27.58Z"/><path class="cls-22" d="M1333.55,918.15c27.58,22.22,57.77,15,57.71,13.5S1379.77,830.87,1375.8,802c-3.68-26.92-8.67-50.51-13.29-55.89-.6-.68-4.24,2.36-7.58,5.18a9.35,9.35,0,0,1-9.15,2.11,43.85,43.85,0,0,0-2.38,6.76c-1.85,7.37-11.54,57.72-11.66,66.43,0,.52,0,1,0,1.55,0,2.53-.06,5-.09,7.57C1331.61,838.54,1333.24,917.9,1333.55,918.15Z"/><path class="cls-39" d="M1332.52,880.34c27.12-24.78,24.44-81.82,24.44-81.82l-25.33,37.15c0,2.87,0,5.72,0,8.54,0,2.11,0,4.21,0,6.27v.28c0,.77,0,1.6,0,2.37C1331.61,856.58,1332.49,877.2,1332.52,880.34Z"/><path class="cls-37" d="M1305.17,863.33c-1.35-3.8-.29-5.45-.29-5.45s22.4-26.8,24.17-29.53,10.55-47.21,10.55-47.21,3.08-18,9.52-19.71c5.59-1.46,9.35,3.22,11.77,8.6a29.74,29.74,0,0,1,.39,21.77c-5.87,15.05-17.71,44.91-21.1,49.94-7.54,11.21-31.84,24.68-31.84,24.68S1306.23,866.32,1305.17,863.33Z"/><path class="cls-40" d="M1359.73,730.55c.19.23,3.12,2.2,9.91-15.53a25.52,25.52,0,0,0,.25-14.89c-1.78-5.9-9-11.4-15-14.24s-7.87,2.6-9.65,8.07a26.37,26.37,0,0,1-6.55,10c5,5.64,11.86-.32,14,1.15s2.61,7.3,2.68,9.15.23,3.41,3.12,2.2.9,6.64.36,8.12C1358.84,724.58,1358.23,728.64,1359.73,730.55Z"/><path class="cls-22" d="M1354.86,685.89s7.58,21.12,7.83,30.14-16.91,37.33-16.91,37.33,14.7,6.29,20.75,0c0,0,14-31.75,14-37.54S1372.33,686.23,1354.86,685.89Z"/><path class="cls-39" d="M1341.48,878.24s13.31,3.54,21.67,1.56l-.19,21.78-10.64,6.65-10.84-9.79Z"/><path class="cls-37" d="M1304.83,857.88s-8.58.71-10.3,3.33-5.1,7.6-2.55,8.48l6.16-2.19c3.15,1.21,4.29,4,6.29,2.26s4.2-3.64,4.2-3.64Z"/><path class="cls-12" d="M1284.27,872.88c0-4.12,2-7.46,4.58-7.46s4.58,3.34,4.58,7.46-2,7.46-4.58,7.46S1284.27,877,1284.27,872.88Z"/><path class="cls-12" d="M1408.37,820.38a25,25,0,0,1-.26,2.83c-1.79,11.2-25.06,19.66-27.66,15.6a16.84,16.84,0,0,1-1.51-3.23c-6.63-17.74-15-82.33-11.72-78.51,0,0,6.18-3.14,11.26-3.93l.9-.11h0a6.77,6.77,0,0,1,4.07.59c4.32,2.62,7.78,21,7.78,21a18.38,18.38,0,0,1,6.74-.19,7.78,7.78,0,0,1,1.15.3h0a5.61,5.61,0,0,1,2.51,1.61C1404.38,779.52,1408.83,808.26,1408.37,820.38Z"/><path class="cls-12" d="M1370.15,756.15s-8-12.41-21.33-8l-3,5.2s13.41-5.25,20.79,6.24Z"/><path class="cls-12" d="M1347,815.29s8,23.07,29.75,11.62l2.23,8.67s-25.89,12-34.63-11.23Z"/><path class="cls-22" d="M1349.83,757.91s-5.53-1-7.57,7.36c-1.45,6-4.71,34.16-12.06,54.69-2.94,8.23-14.16,24.29-18.83,30.12,0,0,1.7,8.92,5.36,11.29,0,0,17.69,2.93,29.32-18.63,3.32-6.12,23.1-58.61,19-69.45S1349.83,757.91,1349.83,757.91Z"/><path class="cls-32" d="M1379.41,753c-.79,1.24-2.34,4.54-1.82,10.83a84.89,84.89,0,0,0,2.37,14.53l-.58.44A87.65,87.65,0,0,1,1377,764c-.46-5.61.63-9,1.52-10.86Z"/><path class="cls-32" d="M1401.91,820.64l-.61.31c-.26-1.37-6.44-33.85-6-39.84.26-3.77,1.64-5.71,2.71-6.66a7.78,7.78,0,0,1,1.15.3c-.75.38-2.9,1.86-3.23,6.49C1395.5,787,1401.85,820.3,1401.91,820.64Z"/><path class="cls-32" d="M1374.17,806.33l5.5,25.39s7.61.37,12.27-4.81l-5.08-26.09A17.38,17.38,0,0,1,1374.17,806.33Z"/><path class="cls-32" d="M1408.37,820.38a25,25,0,0,1-.26,2.83c-1.79,11.2-25.06,19.66-27.66,15.6a16.84,16.84,0,0,1-1.51-3.23C1379.15,835.57,1392.35,834.82,1408.37,820.38Z"/><path class="cls-41" d="M1374.17,806.33l1.61,7.46,7.27.81,5.22-6.51-1.41-7.27S1378.66,803.58,1374.17,806.33Z"/><path class="cls-33" d="M1382,812.36c0-.41.21-.74.46-.74s.46.33.46.74-.21.75-.46.75S1382,812.77,1382,812.36Z"/><rect class="cls-22" x="1085.11" y="1244.09" width="681.54" height="27.92"/><rect class="cls-22" x="1085.11" y="1300.44" width="681.54" height="27.92"/><rect class="cls-22" x="1388.74" y="1356.79" width="377.91" height="27.92"/><rect class="cls-22" x="1311.48" y="1413.13" width="293.08" height="27.92"/><rect class="cls-22" x="1388.74" y="1469.48" width="377.91" height="27.92"/><rect class="cls-22" x="734.91" y="1017.81" width="180.49" height="13.94"/><rect class="cls-22" x="932.81" y="1017.81" width="19.86" height="32.35"/><rect class="cls-42" x="802.4" y="1017.81" width="82.81" height="13.94"/><rect class="cls-22" x="734.91" y="941.3" width="180.49" height="13.94"/><rect class="cls-22" x="932.81" y="941.3" width="19.86" height="32.35"/><rect class="cls-42" x="758.54" y="941.3" width="57.67" height="13.94"/><rect class="cls-22" x="734.91" y="864.78" width="180.49" height="13.94"/><rect class="cls-39" x="932.81" y="864.78" width="19.86" height="32.35"/><rect class="cls-39" x="824.23" y="864.78" width="57.67" height="13.94"/><rect class="cls-22" x="734.91" y="788.26" width="180.49" height="13.94"/><rect class="cls-39" x="932.81" y="788.26" width="19.86" height="32.35"/><rect class="cls-39" x="758.54" y="788.26" width="87.73" height="13.94"/><rect class="cls-22" x="734.91" y="711.74" width="180.49" height="13.94"/><rect class="cls-42" x="932.81" y="711.74" width="19.86" height="32.35"/><rect class="cls-42" x="820.06" y="711.74" width="76.93" height="13.94"/><rect class="cls-22" x="816.21" y="1191.77" width="17.53" height="28.55"/><rect class="cls-22" x="847.54" y="1191.77" width="17.53" height="28.55"/><rect class="cls-22" x="877.17" y="1195.45" width="91.41" height="10.6"/><polygon class="cls-22" points="790.04 1188.2 804.42 1206.05 790.04 1219.71 790.04 1188.2"/><rect class="cls-39" x="816.21" y="1246.41" width="17.53" height="28.55"/><rect class="cls-22" x="847.54" y="1246.41" width="17.53" height="28.55"/><rect class="cls-22" x="877.17" y="1250.09" width="91.41" height="10.6"/><polygon class="cls-22" points="790.04 1242.84 804.42 1260.68 790.04 1274.35 790.04 1242.84"/><rect class="cls-42" x="816.21" y="1301.05" width="17.53" height="28.55"/><rect class="cls-22" x="847.54" y="1301.05" width="17.53" height="28.55"/><rect class="cls-22" x="877.17" y="1304.73" width="91.41" height="10.6"/><polygon class="cls-22" points="790.04 1297.47 804.42 1315.32 790.04 1328.99 790.04 1297.47"/><rect class="cls-42" x="816.21" y="1355.68" width="17.53" height="28.55"/><rect class="cls-22" x="847.54" y="1355.68" width="17.53" height="28.55"/><rect class="cls-22" x="877.17" y="1359.36" width="91.41" height="10.6"/><polygon class="cls-22" points="790.04 1352.11 804.42 1369.96 790.04 1383.62 790.04 1352.11"/><rect class="cls-39" x="816.21" y="1410.32" width="17.53" height="28.55"/><rect class="cls-22" x="847.54" y="1410.32" width="17.53" height="28.55"/><rect class="cls-22" x="877.17" y="1414" width="91.41" height="10.6"/><polygon class="cls-22" points="790.04 1406.75 804.42 1424.6 790.04 1438.26 790.04 1406.75"/><rect class="cls-39" x="816.21" y="1464.96" width="17.53" height="28.55"/><rect class="cls-22" x="847.54" y="1464.96" width="17.53" height="28.55"/><rect class="cls-22" x="877.17" y="1468.64" width="91.41" height="10.6"/><polygon class="cls-22" points="790.04 1461.39 804.42 1479.23 790.04 1492.9 790.04 1461.39"/><g class="cls-31"><path class="cls-18" d="M732.18,1204s4.63-9.73,10.89-9.73,10.35,9.73,10.35,9.73-3.33,9.74-10.35,9.74C735.69,1213.69,732.18,1204,732.18,1204Z"/><path class="cls-43" d="M738.67,1204c0-3.72,1.85-6.73,4.13-6.73s4.14,3,4.14,6.73-1.85,6.74-4.14,6.74S738.67,1207.67,738.67,1204Z"/><path class="cls-18" d="M740.28,1204c0-2.27,1.13-4.11,2.52-4.11s2.53,1.84,2.53,4.11-1.13,4.12-2.53,4.12S740.28,1206.23,740.28,1204Z"/></g><g class="cls-31"><path class="cls-18" d="M732.18,1258.59s4.63-9.73,10.89-9.73,10.35,9.73,10.35,9.73-3.33,9.74-10.35,9.74C735.69,1268.33,732.18,1258.59,732.18,1258.59Z"/><path class="cls-43" d="M738.67,1258.59c0-3.72,1.85-6.74,4.13-6.74s4.14,3,4.14,6.74-1.85,6.74-4.14,6.74S738.67,1262.31,738.67,1258.59Z"/><path class="cls-18" d="M740.28,1258.59c0-2.27,1.13-4.11,2.52-4.11s2.53,1.84,2.53,4.11-1.13,4.12-2.53,4.12S740.28,1260.86,740.28,1258.59Z"/></g><g class="cls-31"><path class="cls-18" d="M732.18,1313.23s4.63-9.73,10.89-9.73,10.35,9.73,10.35,9.73-3.33,9.73-10.35,9.73C735.69,1323,732.18,1313.23,732.18,1313.23Z"/><path class="cls-43" d="M738.67,1313.23c0-3.72,1.85-6.74,4.13-6.74s4.14,3,4.14,6.74-1.85,6.74-4.14,6.74S738.67,1317,738.67,1313.23Z"/><path class="cls-18" d="M740.28,1313.23c0-2.27,1.13-4.11,2.52-4.11s2.53,1.84,2.53,4.11-1.13,4.11-2.53,4.11S740.28,1315.5,740.28,1313.23Z"/></g><g class="cls-31"><path class="cls-18" d="M732.18,1367.87s4.63-9.73,10.89-9.73,10.35,9.73,10.35,9.73-3.33,9.73-10.35,9.73C735.69,1377.6,732.18,1367.87,732.18,1367.87Z"/><path class="cls-43" d="M738.67,1367.87c0-3.72,1.85-6.74,4.13-6.74s4.14,3,4.14,6.74-1.85,6.74-4.14,6.74S738.67,1371.59,738.67,1367.87Z"/><path class="cls-18" d="M740.28,1367.87c0-2.27,1.13-4.12,2.52-4.12s2.53,1.85,2.53,4.12-1.13,4.11-2.53,4.11S740.28,1370.14,740.28,1367.87Z"/></g><g class="cls-31"><path class="cls-18" d="M732.18,1422.51s4.63-9.73,10.89-9.73,10.35,9.73,10.35,9.73-3.33,9.73-10.35,9.73C735.69,1432.24,732.18,1422.51,732.18,1422.51Z"/><path class="cls-43" d="M738.67,1422.51c0-3.73,1.85-6.74,4.13-6.74s4.14,3,4.14,6.74-1.85,6.73-4.14,6.73S738.67,1426.23,738.67,1422.51Z"/><path class="cls-18" d="M740.28,1422.51c0-2.28,1.13-4.12,2.52-4.12s2.53,1.84,2.53,4.12-1.13,4.11-2.53,4.11S740.28,1424.78,740.28,1422.51Z"/></g><g class="cls-31"><path class="cls-18" d="M732.18,1477.14s4.63-9.73,10.89-9.73,10.35,9.73,10.35,9.73-3.33,9.74-10.35,9.74C735.69,1486.88,732.18,1477.14,732.18,1477.14Z"/><path class="cls-43" d="M738.67,1477.14c0-3.72,1.85-6.73,4.13-6.73s4.14,3,4.14,6.73-1.85,6.74-4.14,6.74S738.67,1480.86,738.67,1477.14Z"/><path class="cls-18" d="M740.28,1477.14c0-2.27,1.13-4.11,2.52-4.11s2.53,1.84,2.53,4.11-1.13,4.12-2.53,4.12S740.28,1479.42,740.28,1477.14Z"/></g><rect class="cls-12" x="1506.98" y="1413.13" width="259.68" height="27.92"/><rect class="cls-12" x="1552.86" y="1356.79" width="150.88" height="27.92"/><rect class="cls-12" x="1536.19" y="1244.09" width="174.61" height="27.92"/><rect class="cls-39" x="1589.29" y="1300.44" width="150.88" height="27.92"/><path class="cls-43" d="M1175.11,831.09c-35.67-74.25-75.38-76.86-75.78-76.88l0-1.67c.4,0,40.59,2.65,76.56,77.52Z"/><path class="cls-42" d="M1094.72,753.37c0-3.81,1.9-6.9,4.24-6.9s4.24,3.09,4.24,6.9-1.9,6.91-4.24,6.91S1094.72,757.18,1094.72,753.37Z"/><path class="cls-42" d="M1171.28,829.88c0-3.81,1.9-6.9,4.24-6.9s4.24,3.09,4.24,6.9-1.9,6.9-4.24,6.9S1171.28,833.69,1171.28,829.88Z"/><path class="cls-43" d="M1185.79,739l-.78-1.09c.26-.5,26.79-49.84,85.08-48.51v1.67C1212.21,689.82,1186.05,738.53,1185.79,739Z"/><path class="cls-42" d="M1182.5,744.35c-1.83-2.39-2.11-6.73-.65-9.7s4.14-3.44,6-1,2.11,6.74.64,9.7S1184.32,746.74,1182.5,744.35Z"/><path class="cls-42" d="M1267.1,695.2c-1.83-2.39-2.12-6.73-.65-9.7s4.14-3.44,6-1,2.11,6.74.64,9.71S1268.92,697.6,1267.1,695.2Z"/><path class="cls-43" d="M1456.06,738.84l-.93-1.29c.3-.56,30.27-55.92,100.42-48.57l-.08,2C1485.92,683.69,1456.35,738.29,1456.06,738.84Z"/><path class="cls-42" d="M1452.33,744.8a11.92,11.92,0,0,1-1.13-11.46c1.65-3.34,4.83-3.63,7.11-.64a12,12,0,0,1,1.14,11.46C1457.79,747.5,1454.61,747.79,1452.33,744.8Z"/><path class="cls-42" d="M1552.1,695.47A11.94,11.94,0,0,1,1551,684c1.65-3.34,4.84-3.63,7.12-.64a12,12,0,0,1,1.13,11.46C1557.57,698.17,1554.38,698.46,1552.1,695.47Z"/><rect class="cls-43" x="1335.57" y="764.71" width="71.22" height="1.67"/><path class="cls-44" d="M1331.34,765.55c0-3.81,1.89-6.9,4.23-6.9s4.24,3.09,4.24,6.9-1.9,6.9-4.24,6.9S1331.34,769.36,1331.34,765.55Z"/><path class="cls-44" d="M1402.55,765.55c0-3.81,1.9-6.9,4.24-6.9s4.23,3.09,4.23,6.9-1.89,6.9-4.23,6.9S1402.55,769.36,1402.55,765.55Z"/><polygon class="cls-42" points="1482.52 1207 1489.79 1218.83 1482.52 1230.66 1475.26 1218.83 1482.52 1207"/><path class="cls-43" d="M1295.49,975.47c-40.55,0-83.31-11.59-118-24.3a685.48,685.48,0,0,1-113.94-54.87l.37-1.56a684.59,684.59,0,0,0,113.81,54.81c57.93,21.22,138.48,39.36,193.26,5.29,55-34.2,113.22-29.26,152.38-19.09,42.43,11,72.25,30.37,72.54,30.57l-.38,1.55c-.3-.2-30-19.49-72.34-30.48-39-10.13-97.06-15-151.84,19C1349.2,970.19,1322.85,975.47,1295.49,975.47Z"/><path class="cls-45" d="M1378.53,949.48c0-3.81,1.9-6.9,4.23-6.9s4.24,3.09,4.24,6.9-1.9,6.9-4.24,6.9S1378.53,953.29,1378.53,949.48Z"/><path class="cls-45" d="M1261,973.75c0-3.81,1.9-6.9,4.24-6.9s4.23,3.09,4.23,6.9-1.89,6.9-4.23,6.9S1261,977.56,1261,973.75Z"/><path class="cls-43" d="M1288.25,1142.74A46.3,46.3,0,0,1,1260,1133l.43-1.52c29.21,21.87,58.62-.38,58.91-.61l.44,1.51C1319.57,1132.52,1306.07,1142.74,1288.25,1142.74Z"/><path class="cls-42" d="M1322.22,1137c-1.82,2.39-4.49,1.93-6-1s-1.19-7.31.63-9.71,4.49-1.93,6,1S1324,1134.58,1322.22,1137Z"/><path class="cls-42" d="M1262.87,1137.59c-1.82,2.39-4.49,1.93-6-1s-1.19-7.31.63-9.7,4.49-1.94,6,1S1264.69,1135.19,1262.87,1137.59Z"/><path class="cls-43" d="M1428.3,1142.74c-8.74,0-18.51-2.46-28.27-9.76l.43-1.52c29.21,21.87,58.62-.38,58.92-.61l.44,1.51C1459.62,1132.52,1446.11,1142.74,1428.3,1142.74Z"/><path class="cls-42" d="M1462.26,1137c-1.82,2.39-4.49,1.93-6-1s-1.19-7.31.63-9.71,4.49-1.93,6,1S1464.08,1134.58,1462.26,1137Z"/><path class="cls-42" d="M1402.91,1137.59c-1.82,2.39-4.49,1.93-6-1s-1.19-7.31.63-9.7,4.49-1.94,6,1S1404.73,1135.19,1402.91,1137.59Z"/><g class="cls-46"><path class="cls-22" d="M1612.77,888.35v236.36l-51.87-11s-4.63-49.83,17.41-65.64C1598.8,1033.41,1585,905.21,1612.77,888.35Z"/></g><path class="cls-42" d="M1589,967.09c0-3.81,1.9-6.9,4.24-6.9s4.24,3.09,4.24,6.9-1.9,6.9-4.24,6.9S1589,970.9,1589,967.09Z"/><path class="cls-42" d="M1060.56,895.52c0-3.81,1.9-6.9,4.23-6.9s4.24,3.09,4.24,6.9-1.9,6.9-4.24,6.9S1060.56,899.33,1060.56,895.52Z"/><g class="cls-17"><rect class="cls-18" x="1659.9" y="649.6" width="273.61" height="506.1"/></g><rect class="cls-22" x="1683.71" y="680.07" width="133.55" height="6.21"/><rect class="cls-22" x="1683.71" y="695.52" width="103.34" height="6.21"/><rect class="cls-22" x="1887.6" y="683.67" width="7.23" height="11.78"/><rect class="cls-22" x="1683.71" y="748.72" width="133.55" height="6.21"/><rect class="cls-22" x="1683.71" y="764.17" width="103.34" height="6.21"/><rect class="cls-22" x="1887.6" y="752.33" width="7.23" height="11.78"/><rect class="cls-22" x="1683.71" y="817.37" width="133.55" height="6.21"/><rect class="cls-22" x="1683.71" y="832.82" width="103.34" height="6.21"/><rect class="cls-22" x="1887.6" y="820.98" width="7.23" height="11.78"/><rect class="cls-22" x="1683.71" y="886.03" width="133.55" height="6.21"/><rect class="cls-22" x="1683.71" y="901.48" width="103.34" height="6.21"/><rect class="cls-22" x="1887.6" y="889.63" width="7.23" height="11.78"/><rect class="cls-22" x="1683.71" y="954.68" width="133.55" height="6.21"/><rect class="cls-22" x="1683.71" y="970.13" width="103.34" height="6.21"/><rect class="cls-22" x="1887.6" y="958.28" width="7.23" height="11.78"/><rect class="cls-22" x="1887.6" y="1020.54" width="7.23" height="11.78"/><rect class="cls-22" x="1683.71" y="1023.33" width="133.55" height="6.21"/><rect class="cls-22" x="1683.71" y="1038.78" width="103.34" height="6.21"/><rect class="cls-22" x="1683.71" y="1091.98" width="133.55" height="6.21"/><rect class="cls-22" x="1683.71" y="1107.43" width="103.34" height="6.21"/><rect class="cls-22" x="1887.6" y="1095.59" width="7.23" height="11.78"/><path class="cls-47" d="M1775.68,2165.86s-19.09,76.87-12.37,84.9,29.84-24.62,36-59.09S1775.68,2165.86,1775.68,2165.86Z"/><path class="cls-37" d="M2165.92,2684.5c-84.5,0-172.7,0-256.08-.06-3.21-12.63-6.64-25.9-10.2-39.4-23.12-87.74-52.13-186.51-68.28-198.26-29.7-21.63-47.59-2.7-84.56-73s-60.48-94.19-46-110.42,62.47,44.75,75.77,42.12c10.68-2.12,16.23-44.29,15.36-88.81-.22-11.65-.9-23.44-2-34.73h0c-.56-5.7-1.26-11.26-2.06-16.59a214.36,214.36,0,0,0-4.7-23.12c-3.64-13.51-3.31-22.76-.54-29,8.29-18.6,38.59-9.64,50-5.21,5.11,2,20.9-13.62,32-4.74,17.17,13.77,27.16-2.12,38.56,9.83,8.06,8.45,24.66,12.41,30.38,24.59,10.88,23.18,13.57,72.26,24.18,117.61,9.81,42,13.23,86,46.9,160.35,15,33.11,61.44,110,108.34,185C2131.17,2629.79,2149.41,2658.61,2165.92,2684.5Z"/><path class="cls-37" d="M1782.43,2113.15s-70.49,94-61.34,106.63,32.4.22,70.44-39.47S1782.43,2113.15,1782.43,2113.15Z"/><path class="cls-6" d="M2187.05,2684.5h-21.13c-84.5,0-172.7,0-256.08-.06h-24.91l-2.9-9.75a205.12,205.12,0,0,1,17.61-29.65c30.81-43.89,102-113.83,213.35-44.34q7.43,4.65,15.1,10.12Z"/><path class="cls-47" d="M1034.93,2213.87s12.23,80.49,4.87,86.9-27.39-31.25-30.47-66.77S1034.93,2213.87,1034.93,2213.87Z"/><path class="cls-37" d="M1045.48,2426.37c-42.69,61.06-58.76,38.22-90,52.78-17,7.92-54.29,99-84.79,180.56-2.61,7-5.17,13.88-7.66,20.66l-294.61-1.73c25.19-29.29,60.1-70.19,94.88-111.91,52.94-63.5,105.6-128.9,123.33-158.24,39.78-65.83,47-108.63,60.34-147.94,14.24-41.89,13.82-91.19,33.48-90.7,9.69.25,18.23-20.35,27.17-27,12.32-9.19,24.09,11.25,42.28,1.58,11.73-6.23,27.8,10.64,33,9.85,10-1.5,34.35-7.56,45.36,1.68,6.12,5.11,8.12,14.92,1.32,32.84a192.27,192.27,0,0,0-6.65,21.8q-1.68,6.79-3.13,14.08c-2.27,11.46-4.09,23.66-5.4,35.78-4.73,43.87-2.87,86.89,7.51,91.45,12.93,5.68,66.46-52.83,79.44-33.43S1088.18,2365.31,1045.48,2426.37Z"/><path class="cls-37" d="M1027.11,2155.38s106.46,51.67,100.93,69-61.25,14.37-105.68,1.13S1027.11,2155.38,1027.11,2155.38Z"/><path class="cls-6" d="M880.56,2680.47l-17.57-.1-294.61-1.73-35.68-.2,114.75-105.19q8.07-3.66,15.81-6.52c116.31-43.2,180.71,42.46,207.39,93C874.88,2667.73,878.17,2674.88,880.56,2680.47Z"/><path class="cls-6" d="M1425.83,2550.87c0,1.11,0,2.22.13,3.3a40.64,40.64,0,0,0,1.89,9.67,30,30,0,0,0,2.86,6.2c3,4.91,7.17,7.94,11.77,7.94h234.11c9.19,0,16.65-12.14,16.65-27.11,0-7.49-1.86-14.27-4.88-19.18s-7.17-7.94-11.77-7.94H1442.48C1433.29,2523.75,1425.83,2535.89,1425.83,2550.87Z"/><path class="cls-6" d="M1443.69,2518.84H1524c1.4,0,2.55-1.87,2.55-4.16h0c0-2.29-1.15-4.17-2.55-4.17h-80.27c-1.4,0-2.55,1.88-2.55,4.17h0C1441.14,2517,1442.29,2518.84,1443.69,2518.84Z"/><rect class="cls-40" x="1448.12" y="2518.84" width="8.7" height="4.91" transform="translate(2904.95 5042.59) rotate(180)"/><path class="cls-40" d="M1427.85,2563.84a30,30,0,0,0,2.86,6.2c3,4.91,7.17,7.94,11.77,7.94h49.59v-14.14Z"/><path class="cls-12" d="M1724.23,2542.92v15.89a30.3,30.3,0,0,1-.42,5c-1.35,8.15-5.92,14.14-11.35,14.14H1468.59c-5.43,0-10-6-11.35-14.14a30.31,30.31,0,0,1-.41-5v-15.89c0-10.59,5.26-19.17,11.76-19.17h243.87C1719,2523.75,1724.23,2532.33,1724.23,2542.92Z"/><path class="cls-41" d="M1723.81,2563.84c-1.35,8.15-5.92,14.14-11.35,14.14H1468.59c-5.43,0-10-6-11.35-14.14Z"/><path class="cls-10" d="M1700,2551c0,8.43,1.88,15.95,4.85,20.94.06.11.13.22.2.33,2.29,3.72,5.19,5.94,8.35,5.94,4.94,0,17.17-12.13,24.76-20.19,3.77-4,6.4-7,6.4-7s-2.63-3-6.4-7c-7.59-8.06-19.82-20.19-24.76-20.19a7.48,7.48,0,0,0-4.1,1.29,17.05,17.05,0,0,0-5.64,7.25,41.56,41.56,0,0,0-3.39,13.27,1.1,1.1,0,0,0,0,.18C1700.09,2547.42,1700,2549.17,1700,2551Z"/><path class="cls-48" d="M1700,2551c0,8.43,1.88,15.95,4.85,20.94l37.53-21-42.13-5.13C1700.09,2547.42,1700,2549.17,1700,2551Z"/><path class="cls-49" d="M1703.66,2532.29,1741.1,2549,1709.3,2525A17.05,17.05,0,0,0,1703.66,2532.29Z"/><path class="cls-50" d="M1735.71,2551c0,3.24,1,6,2.45,7,3.77-4,6.4-7,6.4-7s-2.63-3-6.4-7C1736.73,2545,1735.71,2547.72,1735.71,2551Z"/><path class="cls-32" d="M253,2479.21a86.46,86.46,0,0,0,30.42-5.68c39.48-14.66,81.63-58.31,112.57-138.79,0,0-6.48-54.06-25.09-96.39h0c-12.91-29.35-35.22-64.21-61.84-64.43-17.16-.14-29.29,10-38.78,23.25-16.14,22.44-24.64,53.73-37.14,58.25-12.33,4.45-25.68,15.17-36.94,30.47-1.85,2.5-3.64,5.11-5.35,7.87h0c-.72,1.13-1.42,2.27-2.11,3.45a.2.2,0,0,0,0,.08,143.37,143.37,0,0,0-16.52,99.93,150.25,150.25,0,0,0,8.38,28C194.4,2459.51,221.41,2479.11,253,2479.21Z"/><path class="cls-51" d="M296.2,2196.44s23.08-13.15,34,9.6-3.79,36.84-16.1,33.21S284.66,2208.87,296.2,2196.44Z"/><path class="cls-52" d="M172.12,2397.23c1.75,9,5,17.82,8.38,28,23.68,71.72,56.81,101.83,82,111.67,27.83,10.88,79.94-7.5,100.66-29.31,34-35.79,44.38-99.54,32.79-172.84,0,0-6.47-54.05-25.09-96.38h0s-14.8,124-101.56,164.94C229.87,2421.88,196.65,2412.74,172.12,2397.23Z"/><path class="cls-15" d="M205.74,2219.61c.44-22.56,15.31-30.35,27.45-44.74s26.54-51.42,26.54-51.42-19.38,1.21-42.48,12.22S205.74,2219.61,205.74,2219.61Z"/><path class="cls-16" d="M205.74,2219.61c-1.71-23.41,5-56.43,13.91-66.66s40.08-29.5,40.08-29.5-19.38,1.21-42.48,12.22S205.74,2219.61,205.74,2219.61Z"/><path class="cls-52" d="M233.08,2255.42c-12.33,4.45-25.68,15.17-36.94,30.47,20.32-24.8,52.76-16.36,54.68-31.81,2.05-16.57,18.76-55.44,19.4-56.91C254.08,2219.61,245.58,2250.9,233.08,2255.42Z"/><path class="cls-53" d="M188.68,2297.22c.58-.84,1.28-2,2.11-3.45C190.07,2294.9,189.37,2296,188.68,2297.22Z"/><path class="cls-16" d="M249.41,2255.86h0c-10.09-25.25-29.91-37.93-44.77-44.11-11.82-4.93-28.95-8.61-37.15-10.2-1.74-.33-2.83,2.94-1.73,5.15l2.92,5.84c2.92,5.85,7.26,9.34,11.89,9.53,14.23.58,46.2,5.25,62.35,35C244.74,2260.38,251.22,2260.36,249.41,2255.86Z"/><polygon class="cls-54" points="469.57 2081.84 453.16 2086.14 422.09 1771.01 438.5 1766.72 469.57 2081.84"/><polygon class="cls-55" points="424.83 1713.38 422.09 1771.01 438.5 1766.72 424.83 1713.38"/><polygon class="cls-54" points="580.54 2112.07 564.19 2107.12 599.98 1793.32 616.33 1798.27 580.54 2112.07"/><polygon class="cls-55" points="614.46 1740.55 599.98 1793.32 616.33 1798.27 614.46 1740.55"/><polygon class="cls-54" points="559.82 2020.03 543.47 2015.08 579.26 1701.29 595.61 1706.23 559.82 2020.03"/><polygon class="cls-55" points="593.74 1648.52 579.26 1701.29 595.61 1706.23 593.74 1648.52"/><rect class="cls-32" x="483.63" y="1899.76" width="130.94" height="307.4"/><rect class="cls-12" x="418.16" y="1899.76" width="130.94" height="307.4"/><polygon class="cls-15" points="1896.94 1976.41 1741.43 1928.24 1768.07 1699.98 1923.59 1748.15 1896.94 1976.41"/><polygon class="cls-16" points="1908.35 1800.09 1752.83 1751.91 1756.67 1719.03 1912.19 1767.21 1908.35 1800.09"/><polygon class="cls-10" points="909.79 1890.47 755.84 1950.51 722.63 1724.54 876.59 1664.51 909.79 1890.47"/><polygon class="cls-48" points="883.89 1714.2 729.93 1774.23 722.63 1724.54 876.59 1664.51 883.89 1714.2"/><polygon class="cls-56" points="2033.42 1753.88 1877.49 1798.37 1852.88 1569.5 2008.81 1525.01 2033.42 1753.88"/><polygon class="cls-57" points="2014.22 1575.35 1858.29 1619.83 1852.88 1569.5 2008.81 1525.01 2014.22 1575.35"/></svg>