<svg xmlns="http://www.w3.org/2000/svg" viewBox="0 0 2000 2000"><defs><style>.cls-1{isolation:isolate;}.cls-2{fill:#f8f8f8;}.cls-3{fill:#031162;}.cls-4{fill:#d4d3e7;}.cls-5{fill:#1957c2;}.cls-6{fill:#7dadff;}.cls-7{fill:#9e8fae;}.cls-8{fill:#ffcb30;}.cls-9{opacity:0.15;mix-blend-mode:multiply;}.cls-10{fill:#e4e4f0;}.cls-11{fill:#ff654d;}.cls-12{fill:#ffcf41;}.cls-13{fill:#fff;}.cls-14{fill:#ff8876;}.cls-15{fill:#febac7;}.cls-16{fill:#e6e7e8;}.cls-17{fill:#bcbec0;}.cls-18{fill:#000d41;}.cls-19{fill:#fe91a6;}.cls-20{fill:#939598;}.cls-21{fill:#a7a9ac;}.cls-22{fill:#6d6e71;}.cls-23{fill:#fdfeff;}.cls-24{fill:#eb8195;}.cls-25{fill:#d1d3d4;}.cls-26{fill:#746980;}.cls-27{fill:#2c4b80;}.cls-28{fill:#d67487;}</style></defs><g class="cls-1"><g id="Layer_1" data-name="Layer 1"><rect class="cls-2" width="2000" height="2000"/><path class="cls-3" d="M1624.59,774l8.19,15.67a5,5,0,0,0,6.19,2.37c9.6-3.62,33.13-13.36,41.68-25l-5.1-5.55s-23.37,8.23-31.2.45Z"/><path class="cls-3" d="M1497.84,706.62l51.67-27.77a11.54,11.54,0,0,1,14.12,2.53l80.88,83.16-18.4,16.2c-33-21.62-61-42.34-80-61.47l-62.15,24.58Z"/><path class="cls-4" d="M1195,669V629.37L1145.1,615.5a125.88,125.88,0,0,0-12-29.23l25.4-44.94-28-28-44.69,25.26a126.23,126.23,0,0,0-29.63-12.34l-13.72-49.38h-39.61l-13.72,49.38a126.23,126.23,0,0,0-29.63,12.34l-44.69-25.26-28,28,25.41,44.94a126.34,126.34,0,0,0-12,29.23l-49.9,13.87V669l50.31,14a126.07,126.07,0,0,0,11.93,28.46L886.82,757l28,28,45.86-25.92a126.49,126.49,0,0,0,28.06,11.58l14.12,50.81h39.61l14.12-50.81a126.49,126.49,0,0,0,28.06-11.58L1130.53,785l28-28-25.77-45.6a126,126,0,0,0,12-28.47Zm-172.33,54.8A75.27,75.27,0,1,1,1098,648.51,75.26,75.26,0,0,1,1022.68,723.78Z"/><path class="cls-4" d="M882.31,607.32l4-16.85-19.84-10.88A54.88,54.88,0,0,0,864.25,566l15.29-16.58-9.11-14.7L848.9,541a54.78,54.78,0,0,0-11.36-8.21l-.91-22.37-16.84-3.95L809,526.07a54.74,54.74,0,0,0-13.83,2.29l-16.48-15.21L764,522.27l6.32,21.65a55,55,0,0,0-8,11.23l-22.6.91-4,16.85,20,11a55.24,55.24,0,0,0,2.23,13.3L742.47,614l9.12,14.7,22.09-6.44A54.68,54.68,0,0,0,784.45,630l.93,23,16.85,4,11.07-20.19a55.58,55.58,0,0,0,13.09-2.12l16.91,15.6L858,641.11l-6.41-22a55.19,55.19,0,0,0,7.93-10.91Zm-78.75,6.1a32.88,32.88,0,1,1,39.52-24.5A32.88,32.88,0,0,1,803.56,613.42Z"/><path class="cls-5" d="M358.12,1189.12c-22.68-25.78-23-65.23-11.11-97.44s34-59.38,53.55-87.62,37.3-59.7,38.4-94c2-63.66-51.81-114-73.95-173.73a189.94,189.94,0,0,1-10.73-46.69C340.72,554.3,414.39,403.29,545.14,357.25c16.58-7.37,38.68,3.68,38.68,20.25,1.84,36.84-33.15,66.3-33.15,105,0,3.68,1.84,11,3.68,12.89,66.3,36.83,79.19,103.13,11,147.33-5.52,5.53-7.36,12.89-11.22,19.7-4.58,11.74-5.11,24.3-3.12,36.75s6.52,24.8,12.06,36.11c11.09,22.63,26.19,43.39,34.39,67.21,22.4,65.1-11.22,135.83-51.18,191.89s-88.71,110-101.75,177.62c-4.18,21.65-4.62,44.52-14.38,64.3s-33.39,35.4-53.64,26.67l-4-17.82"/><path class="cls-3" d="M414.68,987.57l-1.81-2.19c41.28-34.23,62.13-79.07,63.74-137.08,1.43-51.86-12.27-109.08-25.52-164.41-2.28-9.55-4.57-19.08-6.78-28.59-14.69-63.23,5.24-118,24.55-152.79,20.89-37.67,45.61-60.75,45.85-61l1.93,2.09c-.24.22-24.68,23.05-45.35,60.34-19,34.36-38.69,88.38-24.21,150.7,2.2,9.5,4.48,19,6.77,28.57C480.55,794.74,508.16,910,414.68,987.57Z"/><path class="cls-6" d="M168.86,803.51c-34-38.48-56.53-90.51-47.49-141s56.68-95.09,107.67-89.1c-28.32-44.25-57.54-91.16-60.22-143.63s32-110.79,84.46-114.29c22.26-1.48,43.75,8.75,59,24.88,15.56,16.93,24.77,39,22.93,61.12-11.05-14.73,3.68-33.14,18.41-36.83a32,32,0,0,1,25.79,5.53c14.73,12.89,23.94,31.3,20.25,49.72-11,44.2-42.35,84.72-20.25,130.76,35,70,66.29,138.12,82.11,214.09,3.1,12.34,6,24.74,8.52,37.22s4.73,25,6.55,37.63c4.87,33.65,6.94,69.21-6.38,100.49-15.87,37.25-51.85,64.22-63.07,103.12-17.78,61.72,32.38,132.57,2.36,189.35-21.74,41.12-80.13,48.58-118.27,27.44-54.37-30.13-55.72-101.54-41.86-155,13.1-50.48,42-94,34-149a130.66,130.66,0,0,0-18.92-50.7C240.28,866.42,199.43,838.14,168.86,803.51Z"/><path class="cls-7" d="M232.2,1179.88H454.88c37,0,61.1,39,44.48,72.1l-52.1,103.8a49.79,49.79,0,0,1-44.49,27.44H278.1a49.77,49.77,0,0,1-45.52-29.65l-45.9-103.79C172.13,1216.88,196.22,1179.88,232.2,1179.88Z"/><path class="cls-3" d="M344.38,1169.43c-.38-.82-9.51-20.5-11.35-58.87-1.7-35.29,2.83-93.66,34-171.27,42.56-106-13.45-211.89-54.34-289.24-16.67-31.53-31.07-58.76-35.36-79.5-14.66-70.87,26.71-156,27.13-156.84L307,415c-.41.85-41.36,85.11-26.89,155,4.21,20.34,18.52,47.41,35.08,78.74,41.16,77.84,97.52,184.45,54.47,291.63-30.94,77-35.46,134.89-33.81,169.87,1.79,37.87,11,57.81,11.1,58Z"/><path class="cls-3" d="M369.75,940l-2.81-.32c4.44-38.07-2.59-75-20.89-109.82-14.68-27.89-36.59-54.48-65.13-79.05C232.24,708.9,180.47,687.2,180,687l1.09-2.62c.52.22,52.65,22.06,101.67,64.24,28.83,24.79,51,51.67,65.83,79.89C367.13,863.82,374.27,901.33,369.75,940Z"/><path class="cls-3" d="M298.48,622.79c-17.78-59.19-1.41-105.35,15.46-133.65C332.2,458.5,355,441.6,355.23,441.43l1.68,2.29c-.23.16-22.64,16.79-40.59,47C299.78,518.48,283.73,563.82,301.2,622Z"/><path class="cls-3" d="M359.71,966.85l-2.83-.2c3.06-44.83-4-106.36-54.82-144.88-30.41-23-62.47-27-62.79-27l.32-2.82c.33,0,33.17,4,64.18,27.55C355.63,858.8,362.81,921.32,359.71,966.85Z"/><path class="cls-3" d="M457,696.82l-2.82-.24c3.55-40.55,15.85-95,54.26-123.94,23.11-17.43,44.4-17.31,45.3-17.3l0,2.83c-.26,0-21.37-.07-43.71,16.85C472.55,603.4,460.52,656.92,457,696.82Z"/><path class="cls-3" d="M163.28,680.7a8.93,8.93,0,1,1,8.93-8.93A8.95,8.95,0,0,1,163.28,680.7Zm0-15a6.09,6.09,0,1,0,6.1,6.09A6.09,6.09,0,0,0,163.28,665.68Z"/><path class="cls-3" d="M569.39,558.17a7.25,7.25,0,1,1,7.25-7.24A7.25,7.25,0,0,1,569.39,558.17Zm0-11.66a4.42,4.42,0,1,0,4.42,4.42A4.42,4.42,0,0,0,569.39,546.51Z"/><path class="cls-3" d="M218.71,801.58a8.33,8.33,0,1,1,8.33-8.32A8.33,8.33,0,0,1,218.71,801.58Zm0-13.81a5.49,5.49,0,1,0,5.49,5.49A5.5,5.5,0,0,0,218.71,787.77Z"/><path class="cls-3" d="M310.06,407.65a7,7,0,1,1,7-7A7,7,0,0,1,310.06,407.65Zm0-11.23a4.2,4.2,0,1,0,4.2,4.2A4.2,4.2,0,0,0,310.06,396.42Z"/><path class="cls-3" d="M368.07,441.72a7,7,0,1,1,7-7A7,7,0,0,1,368.07,441.72Zm0-11.23a4.2,4.2,0,1,0,4.2,4.2A4.21,4.21,0,0,0,368.07,430.49Z"/><path class="cls-3" d="M527.37,435.64a10.35,10.35,0,1,1,10.35-10.35A10.36,10.36,0,0,1,527.37,435.64Zm0-17.86a7.52,7.52,0,1,0,7.52,7.51A7.52,7.52,0,0,0,527.37,417.78Z"/><path class="cls-8" d="M1388.39,529.11A88.37,88.37,0,1,1,1300,440.74,88.35,88.35,0,0,1,1388.39,529.11Z"/><path class="cls-2" d="M1254.15,588.11a5.18,5.18,0,0,0,3.59-8.92c-19.29-18.55-19.51-45.51-19.51-45.78a5.19,5.19,0,0,0-10.37,0c0,1.29.26,31.68,22.69,53.25A5.17,5.17,0,0,0,1254.15,588.11Z"/><polygon class="cls-3" points="1670.4 1054.01 1742.84 681.61 1464.57 382.87 1479.15 362.39 1772.08 672.53 1698.81 1050.02 1670.4 1054.01"/><polygon class="cls-3" points="1496.66 380.93 1529.19 415.37 1494.84 415.37 1483.66 403.36 1496.66 380.93"/><polygon class="cls-3" points="1757.62 747.02 1735.39 719.91 1736.77 712.78 1764.69 710.58 1757.62 747.02"/><path class="cls-2" d="M1590.16,1100.84a3.63,3.63,0,0,1-3.63,3.63h-48a3.64,3.64,0,0,1-3.64-3.63v-36.26a3.63,3.63,0,0,1,3.64-3.62h48a3.62,3.62,0,0,1,3.63,3.62Z"/><path class="cls-3" d="M1684.6,1066.55c-118.35,0-214.29,27.62-214.29,77.11h428.58C1898.89,1094.17,1803,1066.55,1684.6,1066.55Z"/><path class="cls-3" d="M1684.6,1097.4c-21.52,0-17.23-16.32-9.2-30.79,3,0,6.11-.06,9.2-.06a662.78,662.78,0,0,1,74.31,4C1747,1078.44,1715.17,1097.4,1684.6,1097.4Z"/><path class="cls-5" d="M1503.36,407.42a45.39,45.39,0,1,1,1.18-64.17A45.38,45.38,0,0,1,1503.36,407.42Z"/><path class="cls-3" d="M1487.07,390.53a21.92,21.92,0,1,1,.57-31A21.92,21.92,0,0,1,1487.07,390.53Z"/><path class="cls-5" d="M1802.47,676.91a45.39,45.39,0,1,1-45.39-45.38A45.39,45.39,0,0,1,1802.47,676.91Z"/><path class="cls-3" d="M1779,676.91A21.93,21.93,0,1,1,1757.08,655,21.92,21.92,0,0,1,1779,676.91Z"/><path class="cls-5" d="M1730,1052a45.38,45.38,0,1,1-45.38-45.38A45.38,45.38,0,0,1,1730,1052Z"/><path class="cls-3" d="M1706.52,1052a21.93,21.93,0,1,1-21.92-21.92A21.93,21.93,0,0,1,1706.52,1052Z"/><rect class="cls-3" x="1426.39" y="369.26" width="28.39" height="69.49" transform="translate(123.04 1112.93) rotate(-43.95)"/><path class="cls-5" d="M1188.85,468c88.3-85.12,170.31-140.31,250.06-60.55,73.33,73.33,18.61,162.55-69.7,247.66Z"/><path class="cls-2" d="M1471.74,359a15.09,15.09,0,1,0,15.09,15.08A15.07,15.07,0,0,0,1471.74,359Z"/><path class="cls-2" d="M1757.08,661.52a15.1,15.1,0,1,0,15.1,15.1A15.1,15.1,0,0,0,1757.08,661.52Z"/><path class="cls-2" d="M1684.6,1036.92a15.1,15.1,0,1,0,15.08,15.09A15.1,15.1,0,0,0,1684.6,1036.92Z"/><path class="cls-9" d="M323.68,1599h0a17.2,17.2,0,0,0,17.2,17.2H1703.83A17.2,17.2,0,0,0,1721,1599h0a17.2,17.2,0,0,0-17.2-17.19H340.88A17.2,17.2,0,0,0,323.68,1599Z"/><path class="cls-10" d="M372.37,777H1663.05a48.69,48.69,0,0,1,48.69,48.69v713.68a54.42,54.42,0,0,1-54.42,54.42H378.1a54.42,54.42,0,0,1-54.42-54.42V825.73A48.69,48.69,0,0,1,372.37,777Z"/><path class="cls-8" d="M1711.74,825.73H323.68A48.69,48.69,0,0,1,372.37,777H1663.05a48.68,48.68,0,0,1,48.69,48.69Z"/><path class="cls-3" d="M369.33,869.94h0a7.75,7.75,0,0,1-7.75-7.75h0a7.74,7.74,0,0,1,7.75-7.74h0a7.73,7.73,0,0,1,7.74,7.74h0A7.74,7.74,0,0,1,369.33,869.94Z"/><rect class="cls-7" x="383.08" y="857.92" width="70.81" height="7.9" rx="3.12"/><path class="cls-3" d="M369.33,956.86h0a7.74,7.74,0,0,1-7.75-7.74h0a7.75,7.75,0,0,1,7.75-7.75h0a7.74,7.74,0,0,1,7.74,7.75h0A7.73,7.73,0,0,1,369.33,956.86Z"/><rect class="cls-7" x="383.08" y="944.85" width="70.81" height="7.9" rx="3.12"/><path class="cls-3" d="M369.33,1070h0a7.75,7.75,0,0,1-7.75-7.75h0a7.74,7.74,0,0,1,7.75-7.74h0a7.73,7.73,0,0,1,7.74,7.74h0A7.74,7.74,0,0,1,369.33,1070Z"/><rect class="cls-7" x="383.08" y="1058.01" width="70.81" height="7.9" rx="3.12"/><path class="cls-3" d="M369.33,1099.26h0a7.74,7.74,0,0,1-7.75-7.74h0a7.74,7.74,0,0,1,7.75-7.74h0a7.73,7.73,0,0,1,7.74,7.74h0A7.73,7.73,0,0,1,369.33,1099.26Z"/><rect class="cls-7" x="383.08" y="1087.25" width="70.81" height="7.9" rx="3.12"/><path class="cls-3" d="M390.82,892.69h0a7.74,7.74,0,0,1-7.74-7.74h0a7.74,7.74,0,0,1,7.74-7.74h0a7.74,7.74,0,0,1,7.75,7.74h0A7.74,7.74,0,0,1,390.82,892.69Z"/><rect class="cls-7" x="404.57" y="880.68" width="70.81" height="7.9" rx="3.12"/><path class="cls-3" d="M390.82,915.45h0a7.74,7.74,0,0,1-7.74-7.74h0a7.74,7.74,0,0,1,7.74-7.74h0a7.74,7.74,0,0,1,7.75,7.74h0A7.74,7.74,0,0,1,390.82,915.45Z"/><rect class="cls-7" x="404.57" y="903.44" width="97.67" height="7.9" rx="3.12"/><path class="cls-3" d="M390.82,978.67h0a7.74,7.74,0,0,1-7.74-7.74h0a7.75,7.75,0,0,1,7.74-7.75h0a7.75,7.75,0,0,1,7.75,7.75h0A7.74,7.74,0,0,1,390.82,978.67Z"/><rect class="cls-7" x="404.57" y="966.66" width="118.85" height="7.9" rx="3.12"/><path class="cls-3" d="M390.82,1001.43h0a7.74,7.74,0,0,1-7.74-7.74h0a7.75,7.75,0,0,1,7.74-7.75h0a7.75,7.75,0,0,1,7.75,7.75h0A7.74,7.74,0,0,1,390.82,1001.43Z"/><rect class="cls-7" x="404.57" y="989.42" width="80.29" height="7.9" rx="3.12"/><path class="cls-3" d="M410.69,1022.19h0a6.11,6.11,0,0,1-6.12-6.11h0a6.11,6.11,0,0,1,6.12-6.11h0a6.11,6.11,0,0,1,6.11,6.11h0A6.11,6.11,0,0,1,410.69,1022.19Z"/><path class="cls-7" d="M550.65,1019h-126a3.12,3.12,0,0,1-3.12-3.12h0a3.12,3.12,0,0,1,3.12-3.12h126a3.12,3.12,0,0,1,3.12,3.12h0A3.12,3.12,0,0,1,550.65,1019Z"/><path class="cls-3" d="M410.69,1040.15h0a6.11,6.11,0,0,1-6.12-6.11h0a6.12,6.12,0,0,1,6.12-6.11h0a6.12,6.12,0,0,1,6.11,6.11h0A6.11,6.11,0,0,1,410.69,1040.15Z"/><path class="cls-7" d="M499.13,1036.91H424.66a3.12,3.12,0,0,1-3.12-3.12h0a3.12,3.12,0,0,1,3.12-3.12h74.47a3.12,3.12,0,0,1,3.12,3.12h0A3.12,3.12,0,0,1,499.13,1036.91Z"/><path class="cls-3" d="M369.33,1132h0a7.75,7.75,0,0,1-7.75-7.74h0a7.75,7.75,0,0,1,7.75-7.75h0a7.74,7.74,0,0,1,7.74,7.75h0A7.74,7.74,0,0,1,369.33,1132Z"/><rect class="cls-7" x="383.08" y="1119.97" width="70.81" height="7.9" rx="3.12"/><path class="cls-3" d="M369.33,1218.91h0a7.75,7.75,0,0,1-7.75-7.75h0a7.75,7.75,0,0,1,7.75-7.74h0a7.74,7.74,0,0,1,7.74,7.74h0A7.74,7.74,0,0,1,369.33,1218.91Z"/><rect class="cls-7" x="383.08" y="1206.9" width="70.81" height="7.9" rx="3.12"/><path class="cls-3" d="M369.33,1332.07h0a7.75,7.75,0,0,1-7.75-7.74h0a7.75,7.75,0,0,1,7.75-7.75h0a7.74,7.74,0,0,1,7.74,7.75h0A7.74,7.74,0,0,1,369.33,1332.07Z"/><rect class="cls-7" x="383.08" y="1320.06" width="70.81" height="7.9" rx="3.12"/><path class="cls-3" d="M369.33,1361.31h0a7.75,7.75,0,0,1-7.75-7.74h0a7.75,7.75,0,0,1,7.75-7.75h0a7.74,7.74,0,0,1,7.74,7.75h0A7.74,7.74,0,0,1,369.33,1361.31Z"/><rect class="cls-7" x="383.08" y="1349.3" width="70.81" height="7.9" rx="3.12"/><path class="cls-3" d="M390.82,1154.74h0a7.75,7.75,0,0,1-7.74-7.74h0a7.75,7.75,0,0,1,7.74-7.75h0a7.75,7.75,0,0,1,7.75,7.75h0A7.75,7.75,0,0,1,390.82,1154.74Z"/><rect class="cls-7" x="404.57" y="1142.73" width="70.81" height="7.9" rx="3.12"/><path class="cls-3" d="M390.82,1177.5h0a7.75,7.75,0,0,1-7.74-7.74h0a7.75,7.75,0,0,1,7.74-7.75h0a7.75,7.75,0,0,1,7.75,7.75h0A7.75,7.75,0,0,1,390.82,1177.5Z"/><rect class="cls-7" x="404.57" y="1165.49" width="97.67" height="7.9" rx="3.12"/><path class="cls-3" d="M390.82,1240.72h0a7.75,7.75,0,0,1-7.74-7.74h0a7.75,7.75,0,0,1,7.74-7.75h0a7.75,7.75,0,0,1,7.75,7.75h0A7.75,7.75,0,0,1,390.82,1240.72Z"/><rect class="cls-7" x="404.57" y="1228.71" width="118.85" height="7.9" rx="3.12"/><path class="cls-3" d="M390.82,1263.48h0a7.75,7.75,0,0,1-7.74-7.75h0a7.75,7.75,0,0,1,7.74-7.74h0a7.75,7.75,0,0,1,7.75,7.74h0A7.75,7.75,0,0,1,390.82,1263.48Z"/><rect class="cls-7" x="404.57" y="1251.47" width="80.29" height="7.9" rx="3.12"/><path class="cls-3" d="M410.69,1284.24h0a6.12,6.12,0,0,1-6.12-6.11h0a6.12,6.12,0,0,1,6.12-6.12h0a6.12,6.12,0,0,1,6.11,6.12h0A6.12,6.12,0,0,1,410.69,1284.24Z"/><path class="cls-7" d="M550.65,1281h-126a3.11,3.11,0,0,1-3.12-3.11h0a3.11,3.11,0,0,1,3.12-3.12h126a3.12,3.12,0,0,1,3.12,3.12h0A3.12,3.12,0,0,1,550.65,1281Z"/><path class="cls-3" d="M410.69,1302.2h0a6.12,6.12,0,0,1-6.12-6.11h0a6.11,6.11,0,0,1,6.12-6.11h0a6.11,6.11,0,0,1,6.11,6.11h0A6.12,6.12,0,0,1,410.69,1302.2Z"/><path class="cls-7" d="M499.13,1299H424.66a3.12,3.12,0,0,1-3.12-3.12h0a3.12,3.12,0,0,1,3.12-3.12h74.47a3.12,3.12,0,0,1,3.12,3.12h0A3.12,3.12,0,0,1,499.13,1299Z"/><path class="cls-3" d="M621.08,861.88h0a6.31,6.31,0,0,1-6.3-6.31h0a6.3,6.3,0,0,1,6.3-6.31h0a6.3,6.3,0,0,1,6.3,6.31h0A6.31,6.31,0,0,1,621.08,861.88Z"/><path class="cls-11" d="M715.73,861.88H652.51a6.31,6.31,0,0,1-6.31-6.31h0a6.3,6.3,0,0,1,6.31-6.31h63.22a6.31,6.31,0,0,1,6.31,6.31h0A6.32,6.32,0,0,1,715.73,861.88Z"/><path class="cls-12" d="M872.79,861.88H747.08a6.32,6.32,0,0,1-6.31-6.31h0a6.31,6.31,0,0,1,6.31-6.31H872.79a6.31,6.31,0,0,1,6.31,6.31h0A6.32,6.32,0,0,1,872.79,861.88Z"/><path class="cls-3" d="M621.08,899h0a6.3,6.3,0,0,1-6.3-6.31h0a6.3,6.3,0,0,1,6.3-6.3h0a6.3,6.3,0,0,1,6.3,6.3h0A6.3,6.3,0,0,1,621.08,899Z"/><path class="cls-8" d="M828.9,899H652.51a6.3,6.3,0,0,1-6.31-6.31h0a6.3,6.3,0,0,1,6.31-6.3H828.9a6.31,6.31,0,0,1,6.31,6.3h0A6.31,6.31,0,0,1,828.9,899Z"/><path class="cls-5" d="M1181.12,899H860.25a6.31,6.31,0,0,1-6.31-6.31h0a6.31,6.31,0,0,1,6.31-6.3h320.87a6.3,6.3,0,0,1,6.3,6.3h0A6.3,6.3,0,0,1,1181.12,899Z"/><path class="cls-3" d="M621.08,936.13h0a6.3,6.3,0,0,1-6.3-6.31h0a6.31,6.31,0,0,1,6.3-6.31h0a6.31,6.31,0,0,1,6.3,6.31h0A6.3,6.3,0,0,1,621.08,936.13Z"/><path class="cls-8" d="M715.73,936.13H652.51a6.3,6.3,0,0,1-6.31-6.31h0a6.31,6.31,0,0,1,6.31-6.31h63.22a6.32,6.32,0,0,1,6.31,6.31h0A6.31,6.31,0,0,1,715.73,936.13Z"/><path class="cls-3" d="M621.08,973.26h0a6.31,6.31,0,0,1-6.3-6.31h0a6.31,6.31,0,0,1,6.3-6.31h0a6.31,6.31,0,0,1,6.3,6.31h0A6.31,6.31,0,0,1,621.08,973.26Z"/><path class="cls-12" d="M683.78,973.26H652.51A6.31,6.31,0,0,1,646.2,967h0a6.31,6.31,0,0,1,6.31-6.31h31.27a6.32,6.32,0,0,1,6.31,6.31h0A6.32,6.32,0,0,1,683.78,973.26Z"/><path class="cls-13" d="M828.9,973.26H715.13a6.32,6.32,0,0,1-6.31-6.31h0a6.32,6.32,0,0,1,6.31-6.31H828.9a6.32,6.32,0,0,1,6.31,6.31h0A6.32,6.32,0,0,1,828.9,973.26Z"/><path class="cls-3" d="M621.08,1010.38h0a6.3,6.3,0,0,1-6.3-6.3h0a6.3,6.3,0,0,1,6.3-6.31h0a6.3,6.3,0,0,1,6.3,6.31h0A6.3,6.3,0,0,1,621.08,1010.38Z"/><path class="cls-13" d="M753.65,1010.38H690.43a6.3,6.3,0,0,1-6.31-6.3h0a6.3,6.3,0,0,1,6.31-6.31h63.22a6.31,6.31,0,0,1,6.31,6.31h0A6.31,6.31,0,0,1,753.65,1010.38Z"/><path class="cls-3" d="M939.29,1010.38H785a6.31,6.31,0,0,1-6.31-6.3h0a6.31,6.31,0,0,1,6.31-6.31H939.29a6.31,6.31,0,0,1,6.31,6.31h0A6.31,6.31,0,0,1,939.29,1010.38Z"/><path class="cls-3" d="M621.08,1047.51h0a6.3,6.3,0,0,1-6.3-6.31h0a6.3,6.3,0,0,1,6.3-6.3h0a6.3,6.3,0,0,1,6.3,6.3h0A6.3,6.3,0,0,1,621.08,1047.51Z"/><path class="cls-5" d="M1246.29,1047.51H690.43a6.3,6.3,0,0,1-6.31-6.31h0a6.3,6.3,0,0,1,6.31-6.3h555.86a6.3,6.3,0,0,1,6.3,6.3h0A6.3,6.3,0,0,1,1246.29,1047.51Z"/><path class="cls-14" d="M1346,1047.51H1281.9a6.31,6.31,0,0,1-6.31-6.31h0a6.31,6.31,0,0,1,6.31-6.3H1346a6.3,6.3,0,0,1,6.3,6.3h0A6.3,6.3,0,0,1,1346,1047.51Z"/><path class="cls-14" d="M1346,1046.46H1281.9a6.31,6.31,0,0,1-6.31-6.31h0a6.31,6.31,0,0,1,6.31-6.3H1346a6.3,6.3,0,0,1,6.3,6.3h0A6.3,6.3,0,0,1,1346,1046.46Z"/><path class="cls-3" d="M621.08,1084.64h0a6.31,6.31,0,0,1-6.3-6.31h0a6.31,6.31,0,0,1,6.3-6.31h0a6.31,6.31,0,0,1,6.3,6.31h0A6.31,6.31,0,0,1,621.08,1084.64Z"/><path class="cls-3" d="M1504.79,1084.64H734a6.31,6.31,0,0,1-6.31-6.31h0A6.31,6.31,0,0,1,734,1072h770.81a6.31,6.31,0,0,1,6.31,6.31h0A6.31,6.31,0,0,1,1504.79,1084.64Z"/><path class="cls-3" d="M621.08,1121.77h0a6.31,6.31,0,0,1-6.3-6.31h0a6.3,6.3,0,0,1,6.3-6.31h0a6.3,6.3,0,0,1,6.3,6.31h0A6.31,6.31,0,0,1,621.08,1121.77Z"/><path class="cls-3" d="M1194.3,1121.77H734a6.31,6.31,0,0,1-6.31-6.31h0a6.3,6.3,0,0,1,6.31-6.31H1194.3a6.3,6.3,0,0,1,6.31,6.31h0A6.31,6.31,0,0,1,1194.3,1121.77Z"/><path class="cls-5" d="M1346,1121.77H1227.11a6.31,6.31,0,0,1-6.31-6.31h0a6.3,6.3,0,0,1,6.31-6.31H1346a6.3,6.3,0,0,1,6.3,6.31h0A6.31,6.31,0,0,1,1346,1121.77Z"/><path class="cls-3" d="M621.08,1158.89h0a6.3,6.3,0,0,1-6.3-6.3h0a6.3,6.3,0,0,1,6.3-6.31h0a6.3,6.3,0,0,1,6.3,6.31h0A6.3,6.3,0,0,1,621.08,1158.89Z"/><path class="cls-12" d="M721.36,1158.89H690.43a6.3,6.3,0,0,1-6.31-6.3h0a6.3,6.3,0,0,1,6.31-6.31h30.93a6.3,6.3,0,0,1,6.31,6.31h0A6.3,6.3,0,0,1,721.36,1158.89Z"/><path class="cls-3" d="M621.08,1195.53h0a6.3,6.3,0,0,1-6.3-6.31h0a6.3,6.3,0,0,1,6.3-6.3h0a6.3,6.3,0,0,1,6.3,6.3h0A6.3,6.3,0,0,1,621.08,1195.53Z"/><path class="cls-13" d="M753.65,1195.53H690.43a6.3,6.3,0,0,1-6.31-6.31h0a6.3,6.3,0,0,1,6.31-6.3h63.22a6.31,6.31,0,0,1,6.31,6.3h0A6.31,6.31,0,0,1,753.65,1195.53Z"/><path class="cls-3" d="M939.29,1195.53H785a6.31,6.31,0,0,1-6.31-6.31h0a6.31,6.31,0,0,1,6.31-6.3H939.29a6.31,6.31,0,0,1,6.31,6.3h0A6.31,6.31,0,0,1,939.29,1195.53Z"/><path class="cls-3" d="M621.08,1232.66h0a6.31,6.31,0,0,1-6.3-6.31h0a6.31,6.31,0,0,1,6.3-6.31h0a6.31,6.31,0,0,1,6.3,6.31h0A6.31,6.31,0,0,1,621.08,1232.66Z"/><path class="cls-5" d="M1246.29,1232.66H690.43a6.31,6.31,0,0,1-6.31-6.31h0a6.31,6.31,0,0,1,6.31-6.31h555.86a6.31,6.31,0,0,1,6.3,6.31h0A6.31,6.31,0,0,1,1246.29,1232.66Z"/><path class="cls-14" d="M1346,1232.66H1281.9a6.32,6.32,0,0,1-6.31-6.31h0a6.32,6.32,0,0,1,6.31-6.31H1346a6.31,6.31,0,0,1,6.3,6.31h0A6.31,6.31,0,0,1,1346,1232.66Z"/><path class="cls-14" d="M1346,1231.61H1281.9a6.31,6.31,0,0,1-6.31-6.31h0a6.32,6.32,0,0,1,6.31-6.31H1346a6.31,6.31,0,0,1,6.3,6.31h0A6.3,6.3,0,0,1,1346,1231.61Z"/><path class="cls-3" d="M621.08,1269.79h0a6.31,6.31,0,0,1-6.3-6.31h0a6.3,6.3,0,0,1,6.3-6.31h0a6.3,6.3,0,0,1,6.3,6.31h0A6.31,6.31,0,0,1,621.08,1269.79Z"/><path class="cls-12" d="M1504.79,1269.79H734a6.31,6.31,0,0,1-6.31-6.31h0a6.3,6.3,0,0,1,6.31-6.31h770.81a6.3,6.3,0,0,1,6.31,6.31h0A6.31,6.31,0,0,1,1504.79,1269.79Z"/><path class="cls-3" d="M621.08,1306.91h0a6.3,6.3,0,0,1-6.3-6.3h0a6.3,6.3,0,0,1,6.3-6.31h0a6.3,6.3,0,0,1,6.3,6.31h0A6.3,6.3,0,0,1,621.08,1306.91Z"/><path class="cls-3" d="M862.51,1306.91H734a6.3,6.3,0,0,1-6.31-6.3h0a6.3,6.3,0,0,1,6.31-6.31H862.51a6.31,6.31,0,0,1,6.31,6.31h0A6.31,6.31,0,0,1,862.51,1306.91Z"/><path class="cls-13" d="M1194.3,1306.91H899.87a6.3,6.3,0,0,1-6.3-6.3h0a6.3,6.3,0,0,1,6.3-6.31H1194.3a6.3,6.3,0,0,1,6.31,6.31h0A6.3,6.3,0,0,1,1194.3,1306.91Z"/><path class="cls-5" d="M1346,1306.91H1227.11a6.3,6.3,0,0,1-6.31-6.3h0a6.3,6.3,0,0,1,6.31-6.31H1346a6.3,6.3,0,0,1,6.3,6.31h0A6.3,6.3,0,0,1,1346,1306.91Z"/><path class="cls-3" d="M621.08,1344h0a6.3,6.3,0,0,1-6.3-6.31h0a6.3,6.3,0,0,1,6.3-6.3h0a6.3,6.3,0,0,1,6.3,6.3h0A6.3,6.3,0,0,1,621.08,1344Z"/><path class="cls-14" d="M721.36,1344H690.43a6.3,6.3,0,0,1-6.31-6.31h0a6.3,6.3,0,0,1,6.31-6.3h30.93a6.3,6.3,0,0,1,6.31,6.3h0A6.3,6.3,0,0,1,721.36,1344Z"/><path class="cls-3" d="M621.08,1380.68h0a6.3,6.3,0,0,1-6.3-6.31h0a6.31,6.31,0,0,1,6.3-6.31h0a6.31,6.31,0,0,1,6.3,6.31h0A6.3,6.3,0,0,1,621.08,1380.68Z"/><path class="cls-13" d="M753.65,1380.68H690.43a6.3,6.3,0,0,1-6.31-6.31h0a6.31,6.31,0,0,1,6.31-6.31h63.22a6.32,6.32,0,0,1,6.31,6.31h0A6.31,6.31,0,0,1,753.65,1380.68Z"/><path class="cls-3" d="M939.29,1380.68H785a6.31,6.31,0,0,1-6.31-6.31h0a6.32,6.32,0,0,1,6.31-6.31H939.29a6.32,6.32,0,0,1,6.31,6.31h0A6.31,6.31,0,0,1,939.29,1380.68Z"/><path class="cls-3" d="M621.08,1417.81h0a6.31,6.31,0,0,1-6.3-6.31h0a6.3,6.3,0,0,1,6.3-6.31h0a6.3,6.3,0,0,1,6.3,6.31h0A6.31,6.31,0,0,1,621.08,1417.81Z"/><path class="cls-5" d="M1246.29,1417.81H690.43a6.31,6.31,0,0,1-6.31-6.31h0a6.3,6.3,0,0,1,6.31-6.31h555.86a6.3,6.3,0,0,1,6.3,6.31h0A6.31,6.31,0,0,1,1246.29,1417.81Z"/><path class="cls-14" d="M1346,1417.81H1281.9a6.32,6.32,0,0,1-6.31-6.31h0a6.31,6.31,0,0,1,6.31-6.31H1346a6.3,6.3,0,0,1,6.3,6.31h0A6.31,6.31,0,0,1,1346,1417.81Z"/><path class="cls-5" d="M1346,1416.76H1281.9a6.32,6.32,0,0,1-6.31-6.31h0a6.32,6.32,0,0,1,6.31-6.31H1346a6.31,6.31,0,0,1,6.3,6.31h0A6.31,6.31,0,0,1,1346,1416.76Z"/><path class="cls-3" d="M621.08,1454.93h0a6.3,6.3,0,0,1-6.3-6.3h0a6.3,6.3,0,0,1,6.3-6.31h0a6.3,6.3,0,0,1,6.3,6.31h0A6.3,6.3,0,0,1,621.08,1454.93Z"/><path class="cls-3" d="M1504.79,1454.93H734a6.3,6.3,0,0,1-6.31-6.3h0a6.3,6.3,0,0,1,6.31-6.31h770.81a6.3,6.3,0,0,1,6.31,6.31h0A6.3,6.3,0,0,1,1504.79,1454.93Z"/><path class="cls-3" d="M621.08,1492.06h0a6.3,6.3,0,0,1-6.3-6.31h0a6.3,6.3,0,0,1,6.3-6.3h0a6.3,6.3,0,0,1,6.3,6.3h0A6.3,6.3,0,0,1,621.08,1492.06Z"/><path class="cls-13" d="M1194.3,1492.06H734a6.3,6.3,0,0,1-6.31-6.31h0a6.3,6.3,0,0,1,6.31-6.3H1194.3a6.3,6.3,0,0,1,6.31,6.3h0A6.3,6.3,0,0,1,1194.3,1492.06Z"/><path class="cls-12" d="M1346,1492.06H1227.11a6.3,6.3,0,0,1-6.31-6.31h0a6.3,6.3,0,0,1,6.31-6.3H1346a6.3,6.3,0,0,1,6.3,6.3h0A6.3,6.3,0,0,1,1346,1492.06Z"/><path class="cls-13" d="M1504.79,1492.06H1385.86a6.3,6.3,0,0,1-6.3-6.31h0a6.3,6.3,0,0,1,6.3-6.3h118.93a6.3,6.3,0,0,1,6.31,6.3h0A6.3,6.3,0,0,1,1504.79,1492.06Z"/><path class="cls-3" d="M621.08,1529.19h0a6.31,6.31,0,0,1-6.3-6.31h0a6.31,6.31,0,0,1,6.3-6.31h0a6.31,6.31,0,0,1,6.3,6.31h0A6.31,6.31,0,0,1,621.08,1529.19Z"/><path class="cls-14" d="M721.36,1529.19H690.43a6.31,6.31,0,0,1-6.31-6.31h0a6.31,6.31,0,0,1,6.31-6.31h30.93a6.31,6.31,0,0,1,6.31,6.31h0A6.31,6.31,0,0,1,721.36,1529.19Z"/><path class="cls-15" d="M1451.39,604.46l4.17-9.62s-9.78-24.56-2.08-32.25,27.27-11.69,34.9-6.37c8.86,6.18,4.48,23.49,4.48,23.49l1.72,12.12c-1.35,2.48-5.24,1.48-5.24,1.48s-.54,8.89-6.9,11.15-6.79,3.54-6.79,10.75S1449.27,620,1451.39,604.46Z"/><path class="cls-5" d="M1478.16,609.63a29.76,29.76,0,0,1,20.27,30.56l-4.12,52.75,3.92,15.2-68.62,39.15-15.51-35.22a100.47,100.47,0,0,1-1.22-78.88c.22-.53.45-1.06.68-1.59h0c6-13.76,14.13-23.71,26.61-27.34a31.21,31.21,0,0,1,16.5-.16Z"/><path class="cls-15" d="M1493.62,656.87l-37.22,9s5,32.84,10.29,41.14S1559,678.77,1559,678.77l18.13-6.25s-3.55-7.36-11.51-9.68-15.58,5.84-15.58,5.84l-56.85,8.53Z"/><path class="cls-15" d="M1470.68,708.41c-2.15,0-3.6-.39-4.16-1.28-5.27-8.23-10.26-40.88-10.31-41.21l0-.18.18,0,37.46-9.08-.39,20.36,56.55-8.49c.67-.69,8.07-8.08,15.73-5.84,8,2.32,11.59,9.71,11.63,9.78l.09.21-.21.07L1559.09,679C1555.92,680.29,1488.72,708.41,1470.68,708.41Zm-14-42.36c.41,2.63,5.2,33,10.22,40.87,5.15,8.05,91.23-28,92.1-28.34l17.93-6.17c-.64-1.19-4.23-7.32-11.28-9.38-7.76-2.27-15.31,5.71-15.38,5.79l0,0h-.07L1493,677.45l.39-20.32Z"/><path class="cls-5" d="M1642.86,775.84l11.24,13.65a5,5,0,0,0,6.55,1c8.65-5.51,29.67-19.89,35.65-33l-6.14-4.38S1669,766,1659.72,760Z"/><path class="cls-11" d="M1429.61,747.29s16.18,24.75,32.76,30.39,108.14-56.39,108.14-56.39c12.67,15.69,36.55,34.49,72,56.46L1661.37,760c-28.2-23.81-53.54-48.44-70.78-75.36a13,13,0,0,0-14.5-4l-79.16,28.27Z"/><path class="cls-3" d="M1496.93,708.88l-67.32,38.41a123.78,123.78,0,0,0,8.66,11.36C1445.53,748.81,1463.32,728.29,1496.93,708.88Z"/><rect class="cls-16" x="1508.66" y="683.37" width="73.97" height="3.65" transform="translate(-137.78 528.36) rotate(-18.59)"/><rect class="cls-16" x="1550.9" y="635.38" width="73.97" height="3.65" transform="translate(2517.05 -799.48) rotate(101.03)"/><circle class="cls-17" cx="1580.59" cy="673.41" r="2.78"/><path class="cls-3" d="M1492.59,553.79c-5.68-4.47-26.49-7.34-37.77,3h0c9.69,5.85,22.75,7.84,27.08,8.36h-.41a9.08,9.08,0,0,1,1.87.15,53.86,53.86,0,0,0,10.29.83S1498.4,558.37,1492.59,553.79Z"/><path class="cls-7" d="M1466.62,590.65s-5.39-8.8,0-12.06,7.09,1.28,7.09,1.28,4.82-4.12,3.69-8c-1-3.47.15-6.94,4.5-6.82-4.33-.52-17.39-2.51-27.08-8.36-.53.45-1,.92-1.54,1.42-11.14,11.14-.32,34.5,2,35.85S1464.63,599.45,1466.62,590.65Z"/><path class="cls-18" d="M1454.21,661.68a.48.48,0,0,1-.47-.42c-3.36-29,5.53-35.18,5.91-35.43a.48.48,0,0,1,.66.14.47.47,0,0,1-.14.65h0c-.08.06-8.77,6.26-5.49,34.53a.47.47,0,0,1-.41.53Z"/><path class="cls-9" d="M979.52,1737.91c-3.85-.05-8.63-.67-9.88-4.05-1-2.58.94-5.47,3.52-6.78s5.64-1.43,8.58-1.52c37.78-1.14,75.58-3,113.33-4.11,4.34-.13,10.57-.5,13.68,3,3.9,4.38,1.41,11.63-3.78,13.82-7.27,3.08-18.74.89-26.54.79l-30.43-.35C1025.18,1738.45,1002.34,1737.91,979.52,1737.91Z"/><path class="cls-3" d="M1027,1714.78v16.28h-15.54s.34-2.54-4.74-1.69-2.71,2.71-11,2.71H982.38a2.45,2.45,0,0,1-2.45-2.45h0a2.45,2.45,0,0,1,1.26-2.14c4.59-2.55,20.4-11.58,24.15-16.92H1027Z"/><path class="cls-3" d="M1099.42,1714.78v16.28h-15.54s.34-2.54-4.74-1.69-2.71,2.71-11,2.71h-13.31a2.45,2.45,0,0,1-2.45-2.45h0a2.45,2.45,0,0,1,1.26-2.14c4.59-2.55,20.4-11.58,24.15-16.92h21.64Z"/><path class="cls-3" d="M1099.13,1523.3l-5,111.66,10.11,77.49-31.61-.86s-8-76.14-8-81-6.93-81.33-6.93-81.33Z"/><path class="cls-5" d="M1026.12,1507.08s-10.29,64.9-17.13,123.86c-4.2,36.27-5.11,75.17-7.39,80.86,0,0,25.53.65,29.2.65l8.53-77.81,25.31-70.9s14.57-3.85,27.09-12,6-38.56,6-38.56Z"/><path class="cls-19" d="M1024.78,1417.68l-.41,1.18s-7-2.2-8-3.12-2.57-2.77-2.57-2.77l-1.84-1.71,3.67-10.24,8.71,12.41,1.19,2.65Z"/><path class="cls-15" d="M1038.88,1330.46l-2.57,6a8.81,8.81,0,0,0-.3,6.29c.93,2.85,2,6.83.79,8s-4,3.53-6,5.12a2,2,0,0,0,.09,3.16l2.95,2.14s-2.8,7.67,3,10.42,8.83,4.55,8.83,8.1-1.84,11.52-1.84,11.52l27.58-1.32s-4.92-9.41-4.92-17.68,9.21-27.59,4.92-35S1045.63,1312.68,1038.88,1330.46Z"/><path class="cls-16" d="M1075.41,1388l-4.48-8.88-24.61,7.59a7.88,7.88,0,0,0-5.31,5.54l-1,3.81Z"/><path class="cls-16" d="M986.77,1436.28l37.52-31.27c.83-.69.58-1.9-.56-2.69L993.37,1381a3.14,3.14,0,0,0-3.55-.2l-37.52,31.28c-.83.69-.58,1.9.56,2.69l30.36,21.35A3.12,3.12,0,0,0,986.77,1436.28Z"/><polygon points="984.74 1433.52 1020.57 1403.65 991.9 1383.5 956.07 1413.36 984.74 1433.52"/><polygon class="cls-20" points="972.43 1426.73 972.82 1426.41 966.33 1421.86 965.95 1422.17 972.43 1426.73"/><path class="cls-15" d="M1024.66,1416.56a14,14,0,0,1-5.06-2.65c-1.71-1.7-2.46-8.7-2.46-8.7l-3.34-5a2.61,2.61,0,0,1-.38-2l.27-1.21a1.2,1.2,0,0,1,2.16-.42c2.08,3,5.67,8.22,7.07,9.62,2,2,7.88,4.54,7.88,4.54S1027.46,1417.67,1024.66,1416.56Z"/><path class="cls-17" d="M1100.39,1404a26.69,26.69,0,0,0-29.42-17.38l-31.48,5.13a22,22,0,0,0-18.88,23.54l5.95,73.34-2.4,17.79s38.41,14.83,73.56,6.78l4.22-65.74C1103.86,1435.53,1105.32,1417.78,1100.39,1404Z"/><path class="cls-3" d="M1051,1364.42a1.14,1.14,0,0,1-1.12-1.34c.72-3.9,2.58-15.12.81-16.89-2.14-2.14,5.53-8.13,5.53-8.13s-1.12-7.57-8.83-7.57-7.81-1.53-7.81-1.53-4.25-5.62,5.29-9.69,27,8.42,27,8.42,9.12-1,11.22,9.25-3.93,24-9.25,28a22.67,22.67,0,0,0-7.23,9.84h-1a12.41,12.41,0,0,1-12.06-9.49l-.08-.35s11.44-6,7.54-11.22-7.12-.7-7.12,1.12c0,1.45-1.34,6.64-1.88,8.69a1.13,1.13,0,0,1-1.1.85Z"/><path class="cls-18" d="M1036.92,1354.29c-2.3,0-4.17-2.55-4.17-5.69s1.87-5.69,4.17-5.69,4.16,2.56,4.16,5.69S1039.22,1354.29,1036.92,1354.29Zm0-10.43c-1.78,0-3.22,2.13-3.22,4.74s1.44,4.74,3.22,4.74,3.22-2.12,3.22-4.74S1038.69,1343.86,1036.92,1343.86Z"/><path class="cls-18" d="M1053.79,1351.43h-.09l-13.17-2.36a.48.48,0,0,1-.39-.55.47.47,0,0,1,.55-.38l13.18,2.35a.47.47,0,0,1-.08.94Z"/><path class="cls-15" d="M1003.12,1442s-2.43-7.71-3.52-8.79-6.51-4.16-6.51-4.16l-4-9.22s-3.44,1.26-3.44,2.89,5.06,10.85-.36,13.89l-13.73-8.73s1.17,5.6,3.06,7.5,22.06,18,22.06,18Z"/><polygon class="cls-16" points="1008.96 1443.12 1003.98 1440.26 994.9 1453.43 998.91 1457.47 1008.96 1443.12"/><path class="cls-17" d="M1065,1408.53s14.51,16.52,16.63,53.79-12.29,36-21.61,36-61.84-39.82-61.84-39.82l11.86-16.94,33.89,18.63s-14.4-27.53-14.4-44.47S1059.16,1397.29,1065,1408.53Z"/><path class="cls-18" d="M1066.15,1499.91a26.06,26.06,0,0,1-4.54-.45c-3.9-.68-8-2.86-10.94-4.45-.77-.41-1.45-.78-2-1.06a.47.47,0,0,1-.22-.63.48.48,0,0,1,.63-.22c.58.29,1.28.66,2.06,1.08,2.91,1.56,6.9,3.7,10.65,4.35s8.76,1,12.66-2.48c5.46-4.86,7.72-16.2,6.72-33.7-2.08-36.69-16.36-53.34-16.5-53.51a.47.47,0,0,1,0-.67.47.47,0,0,1,.67,0c.15.16,14.64,17.07,16.74,54.08,1,18-1.28,29.32-7,34.45A12.9,12.9,0,0,1,1066.15,1499.91Z"/><path class="cls-18" d="M1045.07,1461.38l-19.17-10.55a.47.47,0,0,1-.19-.64.46.46,0,0,1,.64-.19l16.46,9c-2.45-4.93-10.68-22.14-13.08-36.16a.47.47,0,0,1,.39-.54.47.47,0,0,1,.54.38c2.8,16.31,13.58,37,13.69,37.26Z"/><path class="cls-3" d="M1047.61,1492.81s-12.3-6.37-21.28-7.08l-.58-7.22h0Z"/><path class="cls-9" d="M286.41,1702.76s3,8.33,23.4,8.33,104.3-1.51,126.11,0,85.07,2.24,97.21-4.16-14.74-9.88-37.67-12.08-132.26-1-154.74-1.07S280.13,1697.4,286.41,1702.76Z"/><polygon class="cls-16" points="303.27 1694.85 299.29 1693.78 330.66 1549.14 361.85 1549.14 385.98 1693.9 381.94 1694.73 358.49 1553.26 333.81 1553.26 303.27 1694.85"/><path class="cls-21" d="M306.19,1695.87a5.1,5.1,0,1,1-5.1-5.09A5.1,5.1,0,0,1,306.19,1695.87Z"/><path class="cls-21" d="M389.06,1695.87a5.1,5.1,0,1,1-5.1-5.09A5.1,5.1,0,0,1,389.06,1695.87Z"/><polygon class="cls-22" points="344.7 1694.85 340.72 1693.78 372.09 1549.14 403.28 1549.14 427.41 1693.9 423.37 1694.73 399.92 1553.26 375.25 1553.26 344.7 1694.85"/><path class="cls-22" d="M347.62,1695.87a5.1,5.1,0,1,1-5.09-5.09A5.09,5.09,0,0,1,347.62,1695.87Z"/><path class="cls-22" d="M430.49,1695.87a5.1,5.1,0,1,1-5.1-5.09A5.1,5.1,0,0,1,430.49,1695.87Z"/><path class="cls-17" d="M311.86,1453h72.67l2.73,51.58A60.34,60.34,0,0,0,410.47,1549l18.23,14.18H339l-9.6-9a69.81,69.81,0,0,1-22-47.71l-2.18-46.52A6.67,6.67,0,0,1,311.86,1453Z"/><path class="cls-16" d="M313.19,1506.46,311,1459.94a6.66,6.66,0,0,1,6.64-7h-5.8a6.67,6.67,0,0,0-6.65,7l2.18,46.52a69.77,69.77,0,0,0,22,47.7l7.47,7.41,7.93,1.58-9.6-9A69.77,69.77,0,0,1,313.19,1506.46Z"/><path class="cls-23" d="M431.45,1563.15H339.56a3.08,3.08,0,0,1-3.07-3.08h0a3.07,3.07,0,0,1,3.07-3.07h91.89a3.07,3.07,0,0,1,3.08,3.07h0A3.08,3.08,0,0,1,431.45,1563.15Z"/><polygon class="cls-7" points="320.95 1701.1 318.39 1701.1 314.05 1485.79 325.29 1485.79 320.95 1701.1"/><polygon class="cls-3" points="325.29 1485.79 314.05 1485.79 314.29 1498.26 325.2 1490.63 325.29 1485.79"/><polygon class="cls-7" points="524.39 1701.1 521.82 1701.1 517.48 1485.79 528.73 1485.79 524.39 1701.1"/><polygon class="cls-3" points="528.73 1485.79 517.48 1485.79 517.72 1498.26 528.63 1490.63 528.73 1485.79"/><path class="cls-15" d="M435.41,1479.5s2.9,2,9.6,2.89c0,0,4.12.31,3.2-1.45s-4.11-3.54-4.11-3.54h4.25l0,0a4.83,4.83,0,0,0,4.89,3h0a4.84,4.84,0,0,0,4.14-6.45c-.84-2.36-2.09-4.68-3.85-5.43-4-1.67-15.38-1.13-15.38-1.13S432.37,1474,435.41,1479.5Z"/><path class="cls-24" d="M448.37,1477.45s-1.29-1.77-2.26-1.85-4.71,0-4.71,0l2.7,1.8Z"/><path class="cls-3" d="M395,1405.86s12.81,7.27,13.09,12.22-6.54,46.25-6.54,46.25l38.47,2.75s-6.61,3.58-4.13,13.77c0,0-37.44.43-46.52-2.4S395,1405.86,395,1405.86Z"/><path class="cls-15" d="M285.82,1400.65s6.85-12.42,2-16.8-8-3.48-8-3.48-2.47,2.39.15,3.7,4.52,4.77,1.78,5.27-5.1.63-5.23-2.24,0-5.88,0-5.88a2.84,2.84,0,0,0,3.3-1.46c1.06-2.12-.79-4.86-3.35-5s-4.8,2-4.68,3.11-4-5.1-9.19-8.12a2.19,2.19,0,0,0-2.5.23h0a2.17,2.17,0,0,0,.27,3.49c2.54,1.56,6.27,4.29,8.06,7.72l-1,.9s-5.53-4-8.7-5.92a2.16,2.16,0,0,0-3,.78l-.19.33a2.17,2.17,0,0,0,.76,2.92l9,5.5-.37,1.75-7-3a2.17,2.17,0,0,0-3,1.44h0a2.17,2.17,0,0,0,1.24,2.55l8.36,3.61s2.85,11.08,5.85,14S284.16,1404.19,285.82,1400.65Z"/><polygon class="cls-24" points="276.53 1381.22 274.49 1381.22 276.53 1387.1 276.53 1381.22"/><path class="cls-24" d="M274.48,1402.15a.46.46,0,0,1-.45-.42c-.85-10.44,7.56-11.72,7.64-11.73a.46.46,0,0,1,.52.39.47.47,0,0,1-.39.52c-.32,0-7.64,1.19-6.86,10.74a.47.47,0,0,1-.42.5Z"/><path class="cls-15" d="M447.58,1677.06l-6.18-35.73s-13.59-2.15-23.71,7.38l13.42,33.45,3.49-1.08v.27l8.86,7.79,7.4-.18,3.28-3.44Z"/><path class="cls-3" d="M431.11,1682.16s-1.58,16-.86,18.92,31.85,4.16,41.63,0-2.18-11.4-6.7-11.4-12.34-7.52-12.34-7.52-1.87,6.43-5.26,3.18S437.75,1673.19,431.11,1682.16Z"/><path class="cls-3" d="M399.23,1504.16h64s16.87,3,0,26.59a147.18,147.18,0,0,1-39.22,36.87s2.56-20.4-14.41-15.69l17.15-20.79s-35.3,10.59-47.46,11S367,1507,399.23,1504.16Z"/><path class="cls-11" d="M329.53,1504.16s1.21,27.61,10.57,41.65,50.65,41.84,50.65,41.84,24.19,50.87,26.94,61.06c0,0,11-7.38,23.71-7.38,0,0-19-61.94-22.3-66.89s-27-45.42-27-45.42,9.09-12.27,4.13-24.86S329.53,1504.16,329.53,1504.16Z"/><path class="cls-3" d="M419.1,1574.44c-.71-1.06-2.34-3.73-4.46-7.27-3,4.27-17.1,24.54-11.38,18.49,4.67-5,13.07-7.35,17.21-8.28A19.63,19.63,0,0,0,419.1,1574.44Z"/><path class="cls-5" d="M353,1399s-22.79,3.54-27.08,11.69c-3.29,6.25,8,38.66,13.5,53.49a21.18,21.18,0,0,1-.12,15l-9.73,25.06c20.2,7.06,43.57,6.74,69.7,0,0,0-8.89-22.71-5.89-36s22.84-21.05,16.3-32.63-13.84-18.87-12.56-25.31-14.15-8.8-21.87-11.26S353,1399,353,1399Z"/><polygon class="cls-3" points="395.67 1488.17 336.61 1485.92 334.29 1491.9 395.67 1488.17 395.67 1488.17"/><path class="cls-5" d="M347.53,1400.8s-5.74,8.52,13.83,10.5,20.61-9.08,20.61-9.08-.44-4.58-7.3-5.83c-8.27-1.5-16,1.15-18.14.35S349.13,1397.87,347.53,1400.8Z"/><path class="cls-3" d="M350.56,1344.64s-10.46-12.09-20.92-5.56-2.61,23.54-12.75,27.79c0,0,13.08,11.11,25.5-4.58S350.56,1344.64,350.56,1344.64Z"/><path class="cls-3" d="M356,1361.87s12.5,2.79,23.8,1.17a6.58,6.58,0,0,0,5.61-7c-.46-5.93-3.19-14.65-14.82-17.75-18.27-4.88-25,7.62-25,7.62s-16,21.94,1.45,35S356,1361.87,356,1361.87Z"/><path class="cls-15" d="M382,1360.87s1,12.69-1.7,18.35-8,4.77-7.77,9.4c.19,3.35,2,7.51,3,9.55a4.29,4.29,0,0,1-.48,4.56c-1.22,1.51-3.73,3-8.92,3.12a32,32,0,0,1-8-.69,4.23,4.23,0,0,1-2.66-6.32c2.17-3.54,4.32-8.88.66-12.54-5.92-5.91-10.8-10.54-8.23-14.66s6.43-1,6.43-1l1.8-8.74S379.83,1363.13,382,1360.87Z"/><path class="cls-5" d="M325.88,1410.65s-12.7,20-15.79,33.67-23.22-44.83-23.22-44.83a18.62,18.62,0,0,1-17.86,6.37s17.1,52.52,33.44,69.62,40.27-45.22,40.27-45.22S338.29,1406.24,325.88,1410.65Z"/><path class="cls-5" d="M286.87,1399.49a18.62,18.62,0,0,1-17.86,6.37s1.34,4.12,3.63,10.43c9.62-.67,15-3.48,18-6.27C288.39,1403.9,286.87,1399.49,286.87,1399.49Z"/><path class="cls-15" d="M409.64,1551.93l-18.54,21.18,12.16,12.55,20.79-18S428.57,1546.44,409.64,1551.93Z"/><path class="cls-15" d="M391.1,1573.11s-21.21,9.63-16.85,16.07,25,24.82,35.39,19.07-6.35-10.93-6.38-22.59S392.16,1572.6,391.1,1573.11Z"/><path class="cls-3" d="M397,1586.8c-2.89-1.88,0-3.88-3-7.77s-11.45-1.29-11.48-1.28c-5.31,3.35-10.7,7.87-8.29,11.43,4.37,6.43,25,24.82,35.39,19.07,9.53-5.28-3.85-10.1-6.08-19.91A12.54,12.54,0,0,1,397,1586.8Z"/><path class="cls-5" d="M397.4,1603.72c-6.39-2.13-18.93-14.29-21.43-16-1.18-.82-1.89-.65-2.31-.24a3.42,3.42,0,0,0,.59,1.74c3.9,5.74,20.76,21,31.71,20.14C408.13,1607,403.76,1605.84,397.4,1603.72Z"/><path class="cls-18" d="M335.05,1448.09a.45.45,0,0,1-.16,0,.54.54,0,0,1-.36-.68c.08-.23,7.2-23.06-1.76-35.58a.55.55,0,0,1,.89-.63c9.28,13,2.22,35.58,1.91,36.54A.55.55,0,0,1,335.05,1448.09Z"/><path class="cls-7" d="M545.81,1488.17H302.39a2.38,2.38,0,0,1-2.39-2.38h0a2.39,2.39,0,0,1,2.39-2.39H545.81a2.39,2.39,0,0,1,2.39,2.39h0A2.38,2.38,0,0,1,545.81,1488.17Z"/><path class="cls-25" d="M432.7,1479.7h78.75a3.7,3.7,0,0,1,3.7,3.7v0a0,0,0,0,1,0,0H429a0,0,0,0,1,0,0v0A3.7,3.7,0,0,1,432.7,1479.7Z" transform="translate(944.14 2963.11) rotate(180)"/><path class="cls-16" d="M442.83,1483.4h86.6a3.7,3.7,0,0,0,3.7-3.7H447.18C446.47,1481.34,445.61,1483.4,442.83,1483.4Z"/><path class="cls-17" d="M457.11,1482.4h3.24a.73.73,0,0,0,.73-.73h0a.73.73,0,0,0-.73-.73h-3.24a.74.74,0,0,0-.74.73h0A.73.73,0,0,0,457.11,1482.4Z"/><path class="cls-17" d="M453.7,1481.67a.74.74,0,1,0,.74-.73A.73.73,0,0,0,453.7,1481.67Z"/><path class="cls-13" d="M550.6,1431.26H474.18a6.28,6.28,0,0,0-5.66,3.56L447,1479.7h86.15l20.75-43.23A3.64,3.64,0,0,0,550.6,1431.26Z"/><path class="cls-16" d="M474.3,1431.26H472a6.27,6.27,0,0,0-5.65,3.56l-21.54,44.88h2.29l21.54-44.88A6.27,6.27,0,0,1,474.3,1431.26Z"/><path class="cls-9" d="M975.54,788c-.46-5.52-5.72-9.65-11.16-10.74s-11,.18-16.45,1.32a434.94,434.94,0,0,1-195-3.64c-6.19-1.55-12.45-3.25-18.82-3s-13,2.78-16.58,8.07c-5.51,8.2-1.35,20.18,6.68,25.93s18.57,6.6,28.43,5.92,19.69-2.68,29.53-1.81c9.51.84,19.8,5.48,22.73,14.56,1.76,5.46-4.11,37.46,10.92,30,4.88-2.43,4.85-10.91,8.51-15.07a21.68,21.68,0,0,1,36.88,6.59c2.33,6.32,2.67,14.84,9,17.23s12.34-3.89,16.22-9.44l10.24-14.69c3.1-4.46,6.31-9.19,6.83-14.6s-2.74-11.6-8.13-12.29a235.41,235.41,0,0,1,55.81-9.47c5.35-.25,10.87-.36,15.77-2.51S976,793.3,975.54,788Z"/><polygon class="cls-3" points="776.22 743.71 928.14 737.09 918.75 771.42 830.29 808.51 773.96 783.41 776.22 743.71"/><polygon class="cls-11" points="792.43 729.18 793.75 756.18 909.83 756.18 912.76 699.65 792.43 729.18"/><path class="cls-11" d="M829.76,624.32s-49.57,10-58.69,17.53S752.92,741.18,756,745.41,944.6,754,948.88,746s-19.55-103-26-107.82S845.47,623.25,829.76,624.32Z"/><path class="cls-18" d="M909.84,721.49h-.05a.53.53,0,0,1-.49-.59c1.51-17.49,0-66.76,0-67.26a.55.55,0,1,1,1.09,0c0,.49,1.51,49.83,0,67.39A.54.54,0,0,1,909.84,721.49Z"/><path class="cls-18" d="M787.37,719.69h-.07a.54.54,0,0,1-.48-.6c2.37-20.71-1.9-63.26-1.94-63.69a.55.55,0,0,1,1.09-.11c0,.43,4.32,43.09,1.94,63.92A.54.54,0,0,1,787.37,719.69Z"/><path class="cls-15" d="M804.58,741.6l-2.34-9.46a1.26,1.26,0,0,1,.85-1.51l3.21-1a1.24,1.24,0,0,0,.86-1l.55-2.94a1.26,1.26,0,0,1,1.24-1h2.62a1.26,1.26,0,0,0,1.07-.6l1.6-2.56a1.26,1.26,0,0,1,1.71-.41l3,1.8a1.26,1.26,0,0,0,1.26,0l1.78-1a1.26,1.26,0,0,1,1.67.4l6.38,9.65a1.25,1.25,0,0,1-.39,1.77l-1.42.86a1.25,1.25,0,0,1-1.6-.24h0a1.26,1.26,0,0,0-2.19,1l.06.42a1.25,1.25,0,0,1-.69,1.33l-12.51,6.18a1.34,1.34,0,0,1-.26.09c-.78.19-4.63,1-6.32-1.43A1.2,1.2,0,0,1,804.58,741.6Z"/><path class="cls-15" d="M892.77,741.6l2.35-9.46a1.26,1.26,0,0,0-.86-1.51l-3.2-1a1.27,1.27,0,0,1-.87-1l-.54-2.94a1.26,1.26,0,0,0-1.24-1h-2.62a1.26,1.26,0,0,1-1.07-.6l-1.6-2.56a1.27,1.27,0,0,0-1.72-.41l-3,1.8a1.26,1.26,0,0,1-1.26,0l-1.78-1a1.25,1.25,0,0,0-1.67.4L867.28,732a1.25,1.25,0,0,0,.39,1.77l1.41.86a1.27,1.27,0,0,0,1.61-.24h0a1.26,1.26,0,0,1,2.19,1l-.06.42a1.25,1.25,0,0,0,.68,1.33L886,743.34a1.14,1.14,0,0,0,.26.09c.78.19,4.63,1,6.32-1.43A1.18,1.18,0,0,0,892.77,741.6Z"/><path class="cls-18" d="M802.21,728.9h-.09l-29.67-4.37a.55.55,0,0,1,.16-1.08l29.67,4.37a.54.54,0,0,1-.07,1.08Z"/><path class="cls-18" d="M897.77,730.48a.55.55,0,0,1-.1-1.09l24.13-4.3a.54.54,0,0,1,.19,1.07l-24.13,4.31Z"/><path class="cls-15" d="M821.84,603.07s-4.17,35.81,21.33,35.81c23.2,0,22.39-30.81,22.39-30.81s2.32-19.07-15.66-21.23S820.75,596.63,821.84,603.07Z"/><path class="cls-3" d="M859.39,591.32s-5.67,11.1.08,16.74a14.61,14.61,0,0,1,4.1,13.78l-.06.27s9.63-7.63,11.41-23.09-5.23-25.2-11.17-24.1c0,0-2.36-11.88-17.46-10.77s-27.54-.12-33,11.85,4.06,22.44,4.06,22.44.74,12.66,5.9,23.68l-2-14.79S837.81,585.05,859.39,591.32Z"/><path class="cls-15" d="M865.27,610l-1.76,12.12s8.57-4.55,8.44-10.72c-.05-2.06-.76-3.2-1.7-3.8A3.31,3.31,0,0,0,865.27,610Z"/><path class="cls-15" d="M821.89,606.5l1.48,15.61s-8.24-4.77-8.1-11S821.89,606.5,821.89,606.5Z"/><rect class="cls-16" x="796.64" y="690.16" width="99.55" height="70.35" rx="6.84"/><path class="cls-26" d="M894.53,763.82H798.3a1.66,1.66,0,0,1-1.66-1.66h0a1.65,1.65,0,0,1,1.66-1.65h96.23a1.65,1.65,0,0,1,1.66,1.65h0A1.66,1.66,0,0,1,894.53,763.82Z"/><path class="cls-7" d="M880.21,762a.7.7,0,0,1-.7.7.7.7,0,0,1-.71-.7.71.71,0,0,1,.71-.71A.7.7,0,0,1,880.21,762Z"/><rect class="cls-7" x="871.4" y="761.33" width="5.69" height="1.41"/><path class="cls-5" d="M744.26,720.71l131.86,80.06c-10.61,8.62-16.52,19.88-18.9,33.12L719.87,764.72a25.17,25.17,0,0,1-9.11-37.2h0A25.17,25.17,0,0,1,744.26,720.71Z"/><path class="cls-3" d="M838,812.92,829.62,820l16.56,8.34c5-4.26,14.62-12.49,16.06-13C864.19,814.54,838,812.92,838,812.92Z"/><path class="cls-3" d="M876.12,800.77l22,12.37a3.4,3.4,0,0,1,1.27,4.64c-5.79,10.1-25.12,42.76-35.33,47.2,0,0-8.24-2.65-5.08-13.43s-1.1-20.75-1.1-20.75S858.57,805.67,876.12,800.77Z"/><path class="cls-27" d="M864,865c10.21-4.44,29.54-37.1,35.33-47.2a3.37,3.37,0,0,0-.39-3.91C895.05,816.19,878.05,828,864,865Z"/><path class="cls-5" d="M945.34,729.75,806,796c9.68,9.66,14.42,21.46,15.43,34.88L965.13,776A25.18,25.18,0,0,0,978,739.93h0A25.18,25.18,0,0,0,945.34,729.75Z"/><path class="cls-3" d="M806,796l-23.11,10.08a3.39,3.39,0,0,0-1.74,4.48c4.74,10.64,20.64,45.09,30.35,50.55,0,0,8.47-1.8,6.42-12.84s3.2-20.53,3.2-20.53S823,802.65,806,796Z"/><path class="cls-27" d="M811.52,861.09c-9.71-5.46-25.61-39.91-30.35-50.55a3.39,3.39,0,0,1,.79-3.85C785.62,809.4,801.33,822.87,811.52,861.09Z"/><path class="cls-11" d="M756.23,721.78c-1,12.8-1.17,22.33-.23,23.63s16.15,2.39,37.78,3.32Z"/><path class="cls-11" d="M895.37,750.38c29.34-.34,52-1.62,53.51-4.34,1-1.95.41-9.12-1.25-18.91Z"/><path class="cls-18" d="M811.35,794a.55.55,0,0,1-.49-.31.55.55,0,0,1,.26-.73l25-11.88a.55.55,0,1,1,.47,1l-25,11.88A.69.69,0,0,1,811.35,794Z"/><path class="cls-3" d="M1311.2,1681.28c-3.51,5.86-6.56,12-9.61,18.08.86.45,1.72.9,2.59,1.34l6.7-10.78a50.54,50.54,0,0,0-2.13,8.73,7.6,7.6,0,0,0,.07,3.55c.61,1.82,2.36,3,4,4q8,4.81,16.16,9.29a84.18,84.18,0,0,1-2.4-31.2c.43-4-1.12-8.58-5.75-9.5C1316.47,1673.87,1313.15,1678,1311.2,1681.28Z"/><path class="cls-15" d="M1319.77,1676.64a1.35,1.35,0,0,0,.53,1.67l3.47,2.17a1.46,1.46,0,0,0,1,.31,1.5,1.5,0,0,0,.72-.51,208.62,208.62,0,0,0,14.27-17.39c-.93,1-9.42-5.56-13-2.13-1.79,1.7-2.44,4.61-3.3,6.82Q1321.66,1672.14,1319.77,1676.64Z"/><path class="cls-15" d="M1319.65,1698.5c1.74,2.27,4,4.43,6.84,4.77h.15a85.36,85.36,0,0,1-.06-19,10.28,10.28,0,0,0-1.24-6.37,3.71,3.71,0,0,0-2-.94c-1-.13-2.11.19-2.84-.46l-.81.34c-2,3.26-4,6.69-4.25,10.5C1315.26,1691.37,1317.18,1695.27,1319.65,1698.5Z"/><path class="cls-3" d="M1358.56,1527.28s22.33,68.14,23.15,74.75-45.84,71.45-45.84,71.45l-16-10.74s30.38-59.47,26.5-67.73-27.93-47.91-27.93-47.91l9.31-58.56Z"/><path class="cls-3" d="M1295,1407.91s12-9.6,27.45-9.66c7.4,0,20.48.79,32.08,1.65a45.4,45.4,0,0,0,38.52-16.51l20-24.36,14.18,5.55s-9.67,52-52.67,63.61c-27.68,7.49-75.47,14.72-75.47,14.72S1281.45,1437.4,1295,1407.91Z"/><path class="cls-15" d="M1423.28,1366.74a22.18,22.18,0,0,0,6.32-4c3.26-2.67,6.48-5.68,7.82-9.71a1.6,1.6,0,0,0-.16-1.38,1.06,1.06,0,0,0-1.5-.26,6.94,6.94,0,0,0-2,2.29c-.61.82-1.63,1.56-2.59,1.21l3.39-4.48a4.62,4.62,0,0,0,1.25-2.79,1.73,1.73,0,0,0-1-1.57c-1.32-.55-2.52,1-3.41,2.12a9.78,9.78,0,0,1-3.79,2.95l5.7-7.55a3.25,3.25,0,0,0,.68-2.28,2,2,0,0,0-2.78-1.62c-2.64.77-4.34,5.21-6.54,7.61a.45.45,0,0,1-.72-.52l2.7-4.76a1.69,1.69,0,0,0-2.89-1.72l0,0a57.24,57.24,0,0,0-3.48,7.23c-.63,1.66-1.87,3.33-3.64,3.53s-3.11-.95-4.63-1.6-3.8-.48-4.23,1.12c-.86,3.2,4.38,3.18,5.68,4.88,1.17,1.52.32,3,0,4.65C1412.43,1366,1418.28,1368.58,1423.28,1366.74Z"/><path class="cls-28" d="M1421.58,1361.86h0a.23.23,0,0,1-.22-.27,15.89,15.89,0,0,0-.2-4.77,7.81,7.81,0,0,0-1.16-3,4.06,4.06,0,0,0-2.55-1.77.25.25,0,0,1-.21-.29.24.24,0,0,1,.29-.2,4.52,4.52,0,0,1,2.88,2,8.36,8.36,0,0,1,1.24,3.23,15.93,15.93,0,0,1,.2,4.92A.25.25,0,0,1,1421.58,1361.86Z"/><path class="cls-28" d="M1431.51,1356.34a.26.26,0,0,1-.18-.07,27.09,27.09,0,0,0-8.47-5.47.25.25,0,0,1-.13-.33.24.24,0,0,1,.32-.14,27.77,27.77,0,0,1,8.63,5.58.25.25,0,0,1,0,.36A.26.26,0,0,1,1431.51,1356.34Z"/><path class="cls-9" d="M1269.15,1724.71c4.44-6.88,12.8-8.64,19.78-11.73,1.18-.32,2.36-.6,3.52-.84s2.32-.46,3.46-.64c1.59-.26,3.15-.46,4.71-.62s3.11-.28,4.65-.37a43.64,43.64,0,0,1,9.36.84c1.44.12,2.89.27,4.34.46a40.55,40.55,0,0,0,4,1.07c1.33.3,2.67.53,4,.72,10,2.91,32.83-2.37,29.31,13.9-.87,3.51-7,3.51-11,5.51-1.52.49-3,.94-4.67,1.31a133.6,133.6,0,0,1-43.53.93c-1.15,0-2.31,0-3.46,0-4.62.06-9.24.39-13.85.17a17.8,17.8,0,0,1-12.23-6.9Z"/><path class="cls-3" d="M1281.66,1708.61c-.42,6.82-.31,13.65-.2,20.47h2.92q.48-6.33,1-12.66a49.21,49.21,0,0,0,2.13,8.73,7.67,7.67,0,0,0,1.7,3.12c1.37,1.33,3.45,1.54,5.37,1.66q9.3.6,18.62.81a84.17,84.17,0,0,1-16.51-26.6c-1.47-3.76-5-7.09-9.48-5.78C1282.92,1699.6,1281.89,1704.82,1281.66,1708.61Z"/><path class="cls-15" d="M1287.13,1700.54a1.34,1.34,0,0,0,1.23,1.24l4.08.32a1.4,1.4,0,0,0,1-.17,1.43,1.43,0,0,0,.4-.78,206.41,206.41,0,0,0,4.65-22c-.34,1.36-10.92-.6-12.52,4.1-.8,2.33,0,5.22.22,7.57C1286.55,1694.05,1286.86,1697.3,1287.13,1700.54Z"/><path class="cls-3" d="M1340.56,1379.78a19.1,19.1,0,0,0,.37,7.07c1,3.61,3.61,7.32,2,10.72a9.79,9.79,0,0,1-2.46,3,12.37,12.37,0,0,1-5,3.26c-2.77.72-5.78-.64-7.64-2.82a15.79,15.79,0,0,1-3.2-7.85,8.12,8.12,0,0,1,0-3.22c.74-3.18,4.3-4.65,6.73-6.83,3.13-2.81,4.26-10.41,7.58-12.25C1344.34,1367.84,1340.79,1377.51,1340.56,1379.78Z"/><path class="cls-5" d="M1277.54,1565.33c2.61,36.7,3.92,83.55,3.92,120.34l21-.66c4.81-39.24,12.89-88.13,24.15-126,3.62-12.2,10.36-53.43,4.16-62.69-2-3-2.92-6.29-6.46-7-10.71,0-11.43,1.7-20.51,7-6,3.51-12.65,7-17.15,12.53C1274.6,1523.55,1276.3,1547.84,1277.54,1565.33Z"/><path class="cls-3" d="M1332.41,1488.59c-6.72-.75-24.71,7.22-39.94,14.78a32.7,32.7,0,0,0-5.85,5.48c-7.09,8.67-9.4,20.68-9.86,32.66,8,1.11,27.67,1.66,41.3-16.43,0,0,5.85-8.48,10.68-7.74s5.65,12.69,13.83,13.59h0a21.35,21.35,0,0,1,2.42-1.51C1349.18,1522,1343.36,1489.82,1332.41,1488.59Z"/><path class="cls-11" d="M1275.49,1400.89c-12.27,13.7-7.57,24.73.36,41.32,8.52,17.83,10.58,42.65,10.72,43.54a6.6,6.6,0,0,1-.5,3l-11.77,34.87a9,9,0,0,0,9,11.88h.16q3-.15,6.07-.22a42.05,42.05,0,0,0,41.27-43.17c0-.16.85,12.64,1.36,19.19A27.81,27.81,0,0,0,1361,1537l.46,0c7.75-.32,1-11.75,1-11.75-9-12.44-14.57-23.16-18.87-42.28-.7-3.1,6.47-33.62,10.14-47.08,2.68-9.85,6.25-20.93,1.07-29.72-3.32-5.63-9.59-8.89-15.89-10.62s-12.89-2.24-19.19-4c-7.29-2-14.7-5.6-22-3.77Z"/><path class="cls-13" d="M1318,1391.07l-1.29-.39-.25-.08-1.09-.35-1.69-.54h0a7.63,7.63,0,0,0-3.78,5.71c-1.81,10.09,10.7,21.69,20.33,20.88a8.45,8.45,0,0,0,3.87-1.2,9.88,9.88,0,0,0,3.25-4.18c1.78-3.71,1.24-11.84-1.35-16.12-5.42-1.21-11-1.79-16.33-3.25l-1.34-.38Z"/><path class="cls-15" d="M1344.54,1370.77c0,6.06-2.28,13.14-8.09,14.83-1.75.5-3.62.44-5.4.82s-3.64,1.36-4.21,3.09c-.88,2.66,1.63,5.75.33,8.23a5.28,5.28,0,0,1-2.9,2.17,18,18,0,0,1-7.45,1.15,5.7,5.7,0,0,1-3.35-1c-2.32-1.93-1.14-5.61-.3-8.51,3.53-12.23-3.12-25.1-2.53-37.82.16-3.26.85-6.64,2.9-9.2s5.1-4,8.16-5c5-1.66,10.68-2.43,15.58-.39,5.13,2.13,7.76,7.15,7.58,12.54C1344.64,1358.1,1344.49,1364.31,1344.54,1370.77Z"/><path class="cls-3" d="M1315.08,1381.68a67,67,0,0,0,.89-7.3c0-3.59-1.43-7-2.66-10.37a8.21,8.21,0,0,1-.7-4.39c.3-1.48,1.72-2.82,3.19-2.5,1.23.27,2,1.52,2.45,2.67a27.22,27.22,0,0,1,1.93,6.74,2.51,2.51,0,0,0,.59,1.52c.63.56,1.62.29,2.4,0a25.57,25.57,0,0,0,14.88-20.43c6.6,4.77,6.6,11.63,6.53,18.23,1.22-5.31,2.44-10.71,2.12-16.15s-2.41-11-6.71-14.35c-5-3.84-11.79-4-18-3.32-7.82.9-16.22,3.5-20.48,10.12-5.32,8.28-2.16,19.14-3.06,28.94a11.67,11.67,0,0,1-1,4.21c-1,2-2.84,3.35-4.33,5a11.24,11.24,0,0,0-3.19,7.53,7.06,7.06,0,0,0,4.34,6.56c1.23.42,2.58.43,3.73,1,2.75,1.42,3,5.3,5.22,7.5,1.68,1.69,4.2,2.12,6.47,2.82,3.59,1.11,6.91,3.07,10.61,3.74,2.13.39,8.84.11,9.26-3.09.28-2.2-2.87-3-4.44-3.8C1317.7,1398.49,1314.19,1390,1315.08,1381.68Z"/><path class="cls-15" d="M1297.09,1720c2.59,1.21,5.59,2.08,8.27,1.08l.14-.06a85.29,85.29,0,0,1-8.83-16.88,10.35,10.35,0,0,0-4-5.07,3.68,3.68,0,0,0-2.18.06c-.92.34-1.78,1.15-2.73.9l-.56.68c-.27,3.81-.5,7.79,1.07,11.27C1289.91,1715.69,1293.41,1718.27,1297.09,1720Z"/><circle class="cls-11" cx="1425.05" cy="1296.41" r="58.67" transform="translate(-253.01 2242.74) rotate(-71.71)"/><path class="cls-13" d="M1392.81,1283l5,9,5.21-8.92,6.49.09-8.26,14,8.57,15.44-6.55-.08-5.6-9.86-5.74,9.71-6.42-.08,8.9-14.92-7.93-14.46Z"/><path class="cls-13" d="M1419.37,1283.39l6.85,18,7.27-17.87,6.1.08-.38,29.38-4.93-.06.26-19.82-6.67,16.75-3.57,0-6.23-16.92-.26,19.81-5-.06.39-29.38Z"/><path class="cls-13" d="M1450.44,1283.79l-.3,23.59,10.4.13-.08,5.8-15.88-.21.38-29.38Z"/><path class="cls-15" d="M1394.29,1354.62s2.62-11-1.07-13.21-1.23-5.93,1-5.25,3.88,4.37,3.88,4.37,3-11.42,5.05-12.66a1.88,1.88,0,0,1,3,1.77c-.29,1-1.17,3.39-1,4s1.55-3.59,2.81-3.59a3.07,3.07,0,0,1,2,4.67c-1.36,2.72-1,3.21,0,2.43s1.36-3,1.75-3,2.82-.09,2.14,2.14-1.66,3.31-1.27,4,1.12-1.07,1.39-1.56.36-1.07,1.63-.87,1,4.71-1.46,8.68-7.49,11.25-7.68,13.49S1394.29,1354.62,1394.29,1354.62Z"/><path class="cls-11" d="M1275.49,1400.89s12-9.6,27.45-9.66c7.39,0,20.47.79,32.08,1.65a45.39,45.39,0,0,0,38.51-16.51l20-24.36,14.19,7.73s-9.68,49.81-52.67,61.43c-27.68,7.49-75.48,14.72-75.48,14.72S1261.89,1430.38,1275.49,1400.89Z"/><path class="cls-18" d="M1285.54,1435.64a.52.52,0,0,1-.08-1c.42-.06,42.32-6.77,68.62-12.46a.53.53,0,0,1,.22,1c-26.33,5.69-68.25,12.4-68.68,12.47Z"/><path class="cls-18" d="M1334,1443.43h-9.47a.52.52,0,1,1,0-1H1334a.52.52,0,0,1,0,1Z"/><path class="cls-18" d="M1334,1459.44h-9.47a.52.52,0,1,1,0-1H1334a.52.52,0,0,1,0,1Z"/><path class="cls-18" d="M1334,1475.46h-9.47a.53.53,0,0,1-.53-.53.52.52,0,0,1,.53-.52H1334a.52.52,0,0,1,.52.52A.52.52,0,0,1,1334,1475.46Z"/><path class="cls-9" d="M814.39,1648.62H605.45a8.44,8.44,0,0,0,0,16.88H814.39a8.44,8.44,0,0,0,0-16.88Z"/><path class="cls-11" d="M617.14,1516.29H802.7a20.14,20.14,0,0,1,20.14,20.14v101.85a20.13,20.13,0,0,1-20.13,20.13H617.15A20.14,20.14,0,0,1,597,1638.27V1536.43A20.14,20.14,0,0,1,617.14,1516.29Z"/><polygon class="cls-2" points="680.06 1627.17 694.77 1627.17 737.1 1547.53 722.39 1547.53 680.06 1627.17"/><polygon class="cls-2" points="784.53 1589.71 784.42 1589.71 761.65 1557.5 746.03 1557.5 768.86 1589.8 746.03 1620.58 761.65 1620.58 784.42 1589.89 784.53 1589.89 784.48 1589.8 784.53 1589.71"/><polygon class="cls-2" points="635.31 1589.71 635.41 1589.71 658.18 1557.5 672.46 1557.5 649.63 1589.8 672.46 1620.58 658.18 1620.58 635.41 1589.89 635.31 1589.89 635.36 1589.8 635.31 1589.71"/><rect class="cls-11" x="494.26" y="661.23" width="184.08" height="115.85" rx="16.41"/><path class="cls-2" d="M544.39,716.36a11.07,11.07,0,0,1-3.31,2.62l-1.77,1.16a11.51,11.51,0,0,0,1.77,1.15,23.93,23.93,0,0,1,2.5,1.78,4.68,4.68,0,0,1,1.28,1.85,8.91,8.91,0,0,1,.46,3.16v14.1a5.08,5.08,0,0,0,1.73,4.32c1.16.88,3.1,1.31,5.82,1.31v5.86h-2.69q-6.18,0-8.83-2.16c-1.77-1.44-2.66-3.85-2.66-7.25V727.62a5.41,5.41,0,0,0-.85-3.43,3.16,3.16,0,0,0-2.62-1H533v-5.94h2.23a3.16,3.16,0,0,0,2.62-1,5.43,5.43,0,0,0,.85-3.43V696.09q0-5,2.66-7.21t8.83-2.19h2.69v5.85q-4.08,0-5.82,1.31a5.1,5.1,0,0,0-1.73,4.32v14.18A6.73,6.73,0,0,1,544.39,716.36Z"/><path class="cls-2" d="M639.61,717.21v5.94h-2.24a3.16,3.16,0,0,0-2.62,1,5.47,5.47,0,0,0-.85,3.43v16.64c0,3.4-.88,5.81-2.65,7.25s-4.72,2.16-8.83,2.16h-2.7v-5.86c2.72,0,4.66-.43,5.82-1.31s1.73-2.31,1.73-4.32v-14.1a8.66,8.66,0,0,1,.47-3.16,4.56,4.56,0,0,1,1.27-1.85,25.08,25.08,0,0,1,2.5-1.78,12.14,12.14,0,0,0,1.78-1.15L631.51,719a11.07,11.07,0,0,1-3.31-2.62,6.73,6.73,0,0,1-.93-4V698.17a5.07,5.07,0,0,0-1.73-4.32q-1.74-1.3-5.82-1.31v-5.85h2.7q6.17,0,8.83,2.19t2.65,7.21v16.65a5.49,5.49,0,0,0,.85,3.43,3.16,3.16,0,0,0,2.62,1Z"/><path class="cls-7" d="M755,397.43c-.58-1.95-1.22-3.9-1.9-5.81l1.54-.55c.7,1.93,1.35,3.91,1.94,5.89Zm-7-17.81c-1.41-2.91-3-5.81-4.64-8.61l1.41-.84c1.69,2.85,3.27,5.78,4.71,8.72Zm-11.86-19.47c-1.94-2.6-4-5.16-6.14-7.62l1.24-1.08c2.16,2.49,4.25,5.09,6.21,7.72Zm-98-12.33-.39-1.59c.34-.09.67-.18,1-.29a21.78,21.78,0,0,0,7.36-4l1,1.27a23.55,23.55,0,0,1-7.9,4.32C638.85,347.62,638.49,347.73,638.11,347.82Zm-13.38-1.17a19.73,19.73,0,0,1-8.09-6.14l1.31-1a18,18,0,0,0,7.42,5.62ZM721,343.13c-2.37-2.23-4.85-4.39-7.37-6.44l1-1.27c2.56,2.07,5.07,4.26,7.46,6.51Zm-65.76-10.61-1.49-.69a31.5,31.5,0,0,0,2.45-8c.06-.4.12-.8.17-1.2l1.63.21-.18,1.25A33.14,33.14,0,0,1,655.21,332.52ZM703.06,329c-2.73-1.78-5.55-3.48-8.39-5.05l.79-1.43c2.88,1.58,5.73,3.3,8.49,5.11Zm-87.78-1.27-1.61-.3a21.63,21.63,0,0,1,4.29-9.19l1.29,1A20.12,20.12,0,0,0,615.28,327.74Zm67.66-9.47c-3-1.26-6.09-2.42-9.16-3.44l.52-1.55c3.11,1,6.23,2.2,9.28,3.48Zm-53.63-6.52-.61-1.52a36,36,0,0,1,9.78-2.32l.16,1.63A34.75,34.75,0,0,0,629.31,311.75Zm31.89-.32c-2.27-.48-4.59-.9-6.89-1.24-.91-.13-1.83-.26-2.75-.37l.2-1.63c.93.11,1.87.24,2.79.38l1,.15a49.72,49.72,0,0,0-2.71-8.07l1.5-.65a49.14,49.14,0,0,1,3,9c1.43.24,2.86.52,4.27.82Zm-14.81-22a80.3,80.3,0,0,0-6.13-7.57l1.21-1.11a80.86,80.86,0,0,1,6.26,7.73Zm-15.59-16.5c-2.48-2.07-5.1-4.05-7.79-5.91l.94-1.35c2.72,1.88,5.38,3.9,7.9,6Zm-18.91-12.69c-2.86-1.53-5.82-3-8.81-4.24l.65-1.51c3,1.31,6,2.75,8.93,4.3Zm-21-8.74c-3.11-.95-6.29-1.78-9.46-2.47l.35-1.61c3.21.7,6.44,1.55,9.59,2.51Zm-54.78-3.3-.3-1.61c3.22-.6,6.52-1.07,9.82-1.39l.16,1.64C542.49,247.13,539.23,247.59,536.06,248.18Zm32.45-1.25c-3.24-.33-6.52-.54-9.75-.6l0-1.64c3.28.06,6.61.27,9.89.61Z"/><path class="cls-7" d="M888,575h-1.64l1.63-.12Zm-.38-13.13-1.65,0c.06-3.27.23-6.6.51-9.89l1.63.14C887.79,555.34,887.62,558.63,887.57,561.86Zm2.18-22.72-1.62-.29c.56-3.22,1.25-6.48,2-9.69l1.6.39C891,532.72,890.31,535.94,889.75,539.14ZM895.41,517l-1.55-.53c1-3.11,2.23-6.23,3.49-9.26l1.51.63C897.62,510.86,896.45,513.94,895.41,517Zm9-21-1.45-.76c1.53-2.92,3.17-5.82,4.88-8.61l1.4.86C907.54,490.28,905.91,493.14,904.4,496Zm12.16-19.32-1.32-1c.44-.59.88-1.17,1.33-1.75,1.56-2,3.2-4,4.88-6l1.24,1.07C921,471,919.41,473,917.87,475,917.43,475.56,917,476.13,916.56,476.71Zm117.68-.27-.3-1.62A28.6,28.6,0,0,0,1040,473a25.51,25.51,0,0,0,2.86-1.44l.83,1.42a27,27,0,0,1-3,1.53A31.17,31.17,0,0,1,1034.24,476.44Zm-13.36-.13a40.19,40.19,0,0,1-9.51-3.19l.71-1.48a38.41,38.41,0,0,0,9.12,3.06Zm-20.43-10.87a40.07,40.07,0,0,1-3-3.38,42.88,42.88,0,0,1-3.13-4.53l1.41-.85a43.43,43.43,0,0,0,3,4.37,38,38,0,0,0,2.89,3.22Zm53-1.69-1.35-.92a31.22,31.22,0,0,0,4.1-8.63l1.57.46A32,32,0,0,1,1053.42,463.75ZM931.66,459.6l-1.14-1.18c2.35-2.28,4.83-4.51,7.34-6.64l1.06,1.26C936.43,455.14,934,457.34,931.66,459.6Zm57.53-14.37a55.76,55.76,0,0,1-1.6-9.86l1.64-.12a54.05,54.05,0,0,0,1.55,9.56Zm-39.93-.17-.94-1.34c2.69-1.89,5.47-3.71,8.28-5.42l.85,1.4C954.68,441.39,951.92,443.2,949.26,445.06Zm107.66-3.46a22.41,22.41,0,0,0-2.4-6.68c-.39-.7-.81-1.39-1.25-2l1.36-.93c.46.69.91,1.42,1.33,2.17a24,24,0,0,1,2.57,7.16Zm-88-8.19-.72-1.47c2.94-1.46,6-2.84,9-4.09l.63,1.51C974.81,430.61,971.81,432,968.89,433.41Zm21.19-8.5-.49-1.56c3.16-1,6.37-1.87,9.55-2.63l.38,1.59C996.38,423.06,993.2,423.94,990.08,424.91Zm53.77-.41a37.94,37.94,0,0,0-9-3.44l.4-1.59a39.17,39.17,0,0,1,9.37,3.59Zm-54.26-2.2-1.63-.2a82.1,82.1,0,0,1,1.84-9.77l1.59.4A78.4,78.4,0,0,0,989.59,422.3Zm22.74-2.35-.18-1.63a77.8,77.8,0,0,1,9.93-.5l0,1.64A76.23,76.23,0,0,0,1012.33,420ZM995.51,400.4l-1.52-.63c.33-.79.67-1.57,1-2.35,1-2.22,2.11-4.44,3.28-6.6l1.44.78c-1.15,2.13-2.23,4.32-3.22,6.5C996.16,398.86,995.83,399.63,995.51,400.4Zm11.1-19.86-1.34-1c1.9-2.68,3.94-5.31,6.08-7.83l1.25,1.06C1010.49,375.3,1008.48,377.9,1006.61,380.54Zm15-17.16-1.12-1.2c2.4-2.25,4.93-4.43,7.51-6.47l1,1.28C1026.44,359,1024,361.16,1021.58,363.38Zm18.06-13.9-.87-1.39c2.79-1.75,5.69-3.4,8.61-4.91l.76,1.46C1045.25,346.12,1042.4,347.75,1039.64,349.48Zm20.4-10.15-.59-1.54c3.1-1.17,6.27-2.22,9.42-3.11l.45,1.58C1066.21,337.14,1063.09,338.17,1060,339.33Zm22-5.87-.26-1.62c3.27-.51,6.59-.88,9.86-1.08l.11,1.64C1088.52,332.6,1085.26,333,1082,333.46Z"/><path class="cls-7" d="M179.06,1400.63c-2.19-2.47-4.35-5-6.42-7.51l1.27-1c2.05,2.5,4.2,5,6.37,7.47Zm-14.52-17.9c-1.94-2.63-3.87-5.34-5.72-8.06l1.36-.92c1.84,2.7,3.75,5.39,5.68,8Zm-12.86-19.12c-1.71-2.8-3.39-5.67-5-8.53l1.43-.8c1.6,2.84,3.27,5.69,5,8.47Zm-11.16-20.16c-1.47-2.94-2.9-5.94-4.25-8.92l1.49-.68c1.35,3,2.77,5.94,4.22,8.86Zm-9.42-21c-1.21-3-2.38-6.15-3.49-9.24l1.55-.55c1.1,3.07,2.26,6.16,3.47,9.19Zm-7.62-21.74c-1-3.13-1.87-6.33-2.71-9.5l1.58-.42c.84,3.15,1.75,6.33,2.7,9.44Zm-5.8-22.3c-.7-3.22-1.34-6.48-1.92-9.69l1.62-.29c.57,3.19,1.21,6.43,1.9,9.63Zm-3.93-22.71c-.43-3.25-.8-6.55-1.1-9.81l1.63-.16c.31,3.25.67,6.53,1.1,9.76Zm-2-23c-.15-3.28-.24-6.6-.27-9.88h1.64c0,3.26.12,6.56.27,9.81Zm1.58-23-1.64-.06c.13-3.27.33-6.59.58-9.87l1.64.13C113.63,1203.19,113.44,1206.48,113.31,1209.73Zm1.93-22.82-1.63-.21c.42-3.26.91-6.55,1.46-9.77l1.62.27C116.15,1180.41,115.66,1183.67,115.24,1186.91Zm4-22.55-1.6-.36q.78-3.51,1.67-7c.22-.87.45-1.74.68-2.61l1.59.43c-.24.86-.47,1.73-.68,2.58Q120,1160.88,119.2,1164.36Zm31.52-11.93a21,21,0,0,1-8.35-2.6q-.63-.36-1.23-.75l.9-1.37c.37.24.76.48,1.15.7a19.1,19.1,0,0,0,7.69,2.38Zm13.16-2.68-.82-1.42a13.79,13.79,0,0,0,6.11-6.77l1.52.6A15.31,15.31,0,0,1,163.88,1149.75Zm-38.12-7.22-1.5-.66a53.74,53.74,0,0,1,4.51-8.39c-.44-1-.85-2-1.24-3.06l1.54-.57a47.53,47.53,0,0,0,4.21,8.7l-1.39.87a42.39,42.39,0,0,1-2.31-4.18A55.83,55.83,0,0,0,125.76,1142.53Zm41.91-12.66a19,19,0,0,0-7.24-5.91l.72-1.47a20.59,20.59,0,0,1,7.86,6.43ZM139.34,1125l-.89-1.38a29.18,29.18,0,0,1,2.81-1.62,19.14,19.14,0,0,1,6.68-1.91l.17,1.63a17.63,17.63,0,0,0-6.12,1.75A27.1,27.1,0,0,0,139.34,1125Zm-15.24-7.39c-.61-3.22-1.08-6.52-1.39-9.82l1.64-.15c.3,3.25.76,6.5,1.36,9.67Zm-.2-23-1.64,0c.08-3.28.31-6.61.68-9.9l1.63.18C124.2,1088.1,124,1091.39,123.9,1094.62Zm2.87-22.6-1.6-.37c.73-3.2,1.62-6.42,2.63-9.56l1.57.51C128.37,1065.69,127.49,1068.86,126.77,1072Zm7.3-21.58-1.5-.68c1.37-3,2.88-6,4.5-8.84l1.43.81C136.91,1044.55,135.42,1047.48,134.07,1050.44Zm11.5-19.65-1.32-1c2-2.67,4.07-5.26,6.25-7.7l1.22,1.09C149.58,1025.61,147.51,1028.16,145.57,1030.79Z"/><path class="cls-11" d="M1210.16,506.38l33.62-12.77-12-64.49,17.38-2.31S1272,496,1271.57,500.39s-46.29,35.92-46.29,35.92Z"/><path class="cls-3" d="M1089.88,724.91l-18.35-8a3.72,3.72,0,0,0-4.92,2.88l-1.39,8.16,3.94,4.15-4.9,1.49-5.4,31.78,3.75,3s8.39-21.69,21.32-24.94Z"/><path class="cls-3" d="M1288.07,753.54l4.57,19.5a3.72,3.72,0,0,0,5.25,2.21l7.37-3.78,1-5.64,4.13,3L1339,754.14l.13-4.78s-22.39,6.28-32.75-2.13Z"/><path class="cls-3" d="M1210.16,613.27l6.16,7.36a25.58,25.58,0,0,0,9.06,6.87c16.61,7.52,54.1,29.46,57.22,32.22,3.75,3.31,28.44,88,28.44,88-3.94,2.84-14.18,5.84-23.83,8.82,0,0-29.76-48.43-34.86-73.42l-65.46-21.24-12.45-37.62Z"/><path class="cls-5" d="M1174,749.62s-43.84,8.13-89.83-3c-4.2-9.38.26-15.87,7-23.54,38.27,9.1,64.29-1.84,64.29-1.84.69-5.67-.08-21.8-1-27.12-4.44-27.3-12.49-47.58-.16-74.3,1.83-4,1.36-2.73,2.9-6.1,13.92-2.84,42.79-.52,58.53,1.08,0,0-1,40.78-20.53,51.29C1195.21,666.13,1197.08,733.29,1174,749.62Z"/><path class="cls-11" d="M1156.37,509.37l57-3.17,10.83,1s6,20.21,1.91,41.84c-4.62,24.36-6.34,52.09-6.83,62a4,4,0,0,1-4,3.77h-59.84a2.54,2.54,0,0,1-2.5-2.09l-13.81-75.24C1138.37,532.2,1137.47,509.37,1156.37,509.37Z"/><path class="cls-15" d="M1195.1,457.1a20.9,20.9,0,0,1,4.75,13c0,7.82,3.08,10.43,3.08,15.41s-5.93,8.54-9.25,11.86-.68,9.76-.68,9.76h0a14.09,14.09,0,0,1-17.78,1.94l-1.94-1.26s1.9-6.88,0-11.86-11.15-16.84-8.06-26.09S1182.89,444.89,1195.1,457.1Z"/><path class="cls-3" d="M1175.89,479.16s-3.08,0-3.08,4.89,3.79,6.73,5,6.73-4.51,5.22-4.51,5.22-11.15,6.17-13,0,2.84-7.05,2.84-7.05-9.84-5.64-5.69-9.79,4.27-3.08,3.32-8.06-.15-15.9,6.45-15.9c0,0-.52-7.59,8-9.25s12.57,2.61,12.57,2.61,4.51-5.75,9.25-3,5.93,5.13,5.93,5.13a5.45,5.45,0,0,1,6.17.95c2.73,2.72.71,14.94-12.1,13.75s-13.24-3.56-13.24-3.56,5.07,6,1.15,9.94-6.41,7.14-6.41,8.57S1175.89,479.16,1175.89,479.16Z"/><path class="cls-15" d="M1234.27,433.27s-2.07-4.42-2.07-7.91l16.92-2.71-.65,8.84S1234.85,434.64,1234.27,433.27Z"/><path class="cls-15" d="M1250.14,403.58l-1.08,19.95-16.85,2.09a26.9,26.9,0,0,0-4.54-6.84,4.73,4.73,0,0,1-1.12-5.5s2.6-2.15,3.62.66,1,4.39,3,4.13,1.69-11.57,1.69-11.57Z"/><path class="cls-15" d="M1250.14,403.29s0,6.72-3.62,7.62c0,0-1.76.62-1.35-1.47a31.46,31.46,0,0,0,.87-5.15C1246,402.91,1249.5,400.51,1250.14,403.29Z"/><path class="cls-15" d="M1246.42,403.78s0,7.06-3.8,8c0,0-1.85.65-1.43-1.54a33.4,33.4,0,0,0,.92-5.42C1242.11,403.38,1245.75,400.85,1246.42,403.78Z"/><path class="cls-15" d="M1242.39,404.24s0,7.06-3.8,8c0,0-1.85.65-1.42-1.55a34.07,34.07,0,0,0,.91-5.41C1238.08,403.84,1241.72,401.31,1242.39,404.24Z"/><path class="cls-15" d="M1238.16,405.41s0,7.06-3.81,8c0,0-1.85.66-1.42-1.54a33.22,33.22,0,0,0,.91-5.42C1233.84,405,1237.48,402.49,1238.16,405.41Z"/><path class="cls-18" d="M1179.14,619.84h-23.78a.52.52,0,0,1,0-1h23.78a.52.52,0,0,1,0,1Z"/><path class="cls-16" d="M1195.21,620.39c0,2.06-2.35,3.74-5.24,3.74s-5.25-1.68-5.25-3.74,2.35-3.74,5.25-3.74S1195.21,618.32,1195.21,620.39Z"/><path class="cls-18" d="M1213.52,620.28H1199a.51.51,0,0,1,0-1h14.51a.51.51,0,0,1,0,1Z"/><path class="cls-15" d="M1148.46,434.46l-15-5.69L1136,412a3.57,3.57,0,0,1,.79-2.05l9.89-12.64a1.7,1.7,0,0,1,2.27-.35h0a1.72,1.72,0,0,1,.47,2.4l-6.22,9a.39.39,0,0,0,.07.51l.5.44a.38.38,0,0,0,.57-.07l5-8.08,5.11-6.07c.49-.69,2.13-1.16,2.77-.61,0,0,1.55,1.38-.2,3.29l-3.79,4.86-5.24,8.67a.38.38,0,0,0,.11.52h0a.39.39,0,0,0,.53-.1l6.55-9a1.89,1.89,0,0,1,2.8-.29h0a1.88,1.88,0,0,1,.29,2.49l-5.74,8.2a.39.39,0,0,0,0,.48l.17.18a.38.38,0,0,0,.59,0l4.93-6.46a1.47,1.47,0,0,1,2.1-.24h0a1.46,1.46,0,0,1,.34,1.84l-4.73,8.44-1,6.11a13.25,13.25,0,0,1-2.22,5.39Z"/><path class="cls-11" d="M1139.17,537.51s-28.8-9.58-39.18-16.37,31.92-94.33,31.92-94.33l18.71,7.37-20.3,69.8,41.08,4.55Z"/><path class="cls-18" d="M1176.32,542.3h-21a.51.51,0,0,1-.51-.51.51.51,0,0,1,.51-.51h21a.51.51,0,0,1,.51.51A.51.51,0,0,1,1176.32,542.3Z"/></g></g></svg>